G04*
G04 #@! TF.GenerationSoftware,Altium Limited,Altium Designer,25.3.3 (18)*
G04*
G04 Layer_Color=8421504*
%FSLAX25Y25*%
%MOIN*%
G70*
G04*
G04 #@! TF.SameCoordinates,C26FD52E-3306-4ED3-9720-8CB08B7D1827*
G04*
G04*
G04 #@! TF.FilePolarity,Positive*
G04*
G01*
G75*
%ADD11R,0.01417X0.00866*%
%ADD12R,0.00799X0.00898*%
D11*
X191707Y585266D02*
D03*
Y587746D02*
D03*
X203500Y585266D02*
D03*
Y587746D02*
D03*
D12*
X196755Y172060D02*
D03*
X198452D02*
D03*
X196755Y186470D02*
D03*
X198452D02*
D03*
X196755Y200881D02*
D03*
X198452D02*
D03*
X196755Y244112D02*
D03*
X198452D02*
D03*
X196755Y229702D02*
D03*
X198452D02*
D03*
X196755Y215291D02*
D03*
X198452D02*
D03*
X196755Y301754D02*
D03*
X198452D02*
D03*
X196755Y316165D02*
D03*
X198452D02*
D03*
X196755Y330575D02*
D03*
X198452D02*
D03*
X196755Y287344D02*
D03*
X198452D02*
D03*
X196755Y272933D02*
D03*
X198452D02*
D03*
X196755Y258523D02*
D03*
X198452D02*
D03*
X196755Y388217D02*
D03*
X198452D02*
D03*
X196755Y402627D02*
D03*
X198452D02*
D03*
X196755Y417038D02*
D03*
X198452D02*
D03*
X196755Y373806D02*
D03*
X198452D02*
D03*
X196755Y359396D02*
D03*
X198452D02*
D03*
X196755Y344986D02*
D03*
X198452D02*
D03*
X196755Y474680D02*
D03*
X198452D02*
D03*
X196755Y489090D02*
D03*
X198452D02*
D03*
X196755Y503501D02*
D03*
X198452D02*
D03*
X196755Y460269D02*
D03*
X198452D02*
D03*
X196755Y445859D02*
D03*
X198452D02*
D03*
X196755Y431448D02*
D03*
X198452D02*
D03*
X196755Y517911D02*
D03*
X198452D02*
D03*
X196755Y532322D02*
D03*
X198452D02*
D03*
X196755Y546732D02*
D03*
X198452D02*
D03*
X196755Y561142D02*
D03*
X198452D02*
D03*
X196755Y575553D02*
D03*
X198452D02*
D03*
M02*
