G04*
G04 #@! TF.GenerationSoftware,Altium Limited,Altium Designer,25.3.3 (18)*
G04*
G04 Layer_Physical_Order=2*
G04 Layer_Color=16711680*
%FSLAX25Y25*%
%MOIN*%
G70*
G04*
G04 #@! TF.SameCoordinates,C26FD52E-3306-4ED3-9720-8CB08B7D1827*
G04*
G04*
G04 #@! TF.FilePolarity,Positive*
G04*
G01*
G75*
%ADD11R,0.01417X0.00866*%
%ADD17C,0.03543*%
%ADD18R,0.00898X0.00799*%
%ADD19R,0.00866X0.01417*%
G36*
X210926Y617423D02*
X207005D01*
Y612539D01*
X207990D01*
Y607421D01*
X202084D01*
Y612539D01*
X203068D01*
Y617423D01*
X201084D01*
Y631203D01*
X210926D01*
Y617423D01*
D02*
G37*
G36*
X194123D02*
X192154D01*
Y612539D01*
X193138D01*
Y607421D01*
X187232D01*
Y612539D01*
X188216D01*
Y617423D01*
X184281D01*
Y631203D01*
X194123D01*
Y617423D01*
D02*
G37*
G36*
X227730D02*
X222135D01*
Y612613D01*
X216729D01*
Y611298D01*
X222135D01*
Y608983D01*
X216729D01*
Y607668D01*
X222135D01*
Y605353D01*
X216729D01*
Y604038D01*
X222135D01*
Y601723D01*
X216729D01*
Y600408D01*
X222135D01*
Y598203D01*
X216729D01*
Y596888D01*
X222135D01*
Y594573D01*
X216729D01*
Y593258D01*
X222135D01*
Y590943D01*
X216729D01*
Y589628D01*
X222135D01*
Y588525D01*
X222594D01*
Y587463D01*
X221176D01*
Y588525D01*
X221635D01*
Y589128D01*
X216230D01*
Y591443D01*
X221635D01*
Y592758D01*
X216230D01*
Y595073D01*
X221635D01*
Y596388D01*
X216230D01*
Y598703D01*
X221635D01*
Y599908D01*
X216230D01*
Y602223D01*
X221635D01*
Y603538D01*
X216230D01*
Y605853D01*
X221635D01*
Y607168D01*
X216230D01*
Y609483D01*
X221635D01*
Y610798D01*
X216230D01*
Y613113D01*
X218198D01*
Y617423D01*
X217887D01*
Y631203D01*
X227730D01*
Y617423D01*
D02*
G37*
G36*
X177320D02*
X177009D01*
Y612964D01*
X178962D01*
Y610649D01*
X173557D01*
Y609334D01*
X178962D01*
Y607019D01*
X173557D01*
Y605704D01*
X178962D01*
Y603389D01*
X173557D01*
Y602074D01*
X178962D01*
Y599759D01*
X173557D01*
Y598554D01*
X178962D01*
Y596239D01*
X173557D01*
Y594924D01*
X178962D01*
Y592609D01*
X173557D01*
Y591294D01*
X178962D01*
Y588979D01*
X173557D01*
Y588376D01*
X174015D01*
Y587313D01*
X172598D01*
Y588376D01*
X173057D01*
Y589479D01*
X178462D01*
Y590794D01*
X173057D01*
Y593109D01*
X178462D01*
Y594424D01*
X173057D01*
Y596739D01*
X178462D01*
Y598054D01*
X173057D01*
Y600259D01*
X178462D01*
Y601574D01*
X173057D01*
Y603889D01*
X178462D01*
Y605204D01*
X173057D01*
Y607519D01*
X178462D01*
Y608834D01*
X173057D01*
Y611149D01*
X178462D01*
Y612464D01*
X173057D01*
Y613642D01*
X173072D01*
Y617423D01*
X167477D01*
Y631203D01*
X177320D01*
Y617423D01*
D02*
G37*
G36*
X222135Y583792D02*
X216729D01*
Y582478D01*
X222135D01*
Y580162D01*
X216729D01*
Y578848D01*
X222135D01*
Y576533D01*
X216729D01*
Y575217D01*
X222135D01*
Y572902D01*
X216729D01*
Y571588D01*
X222135D01*
Y570410D01*
Y569382D01*
X216729D01*
Y568067D01*
X222135D01*
Y565752D01*
X216729D01*
Y564437D01*
X222135D01*
Y562122D01*
X216729D01*
Y560807D01*
X222135D01*
Y558492D01*
X216729D01*
Y557177D01*
X222135D01*
Y556000D01*
Y554972D01*
X216729D01*
Y553657D01*
X222135D01*
Y551342D01*
X216729D01*
Y550027D01*
X222135D01*
Y547712D01*
X216729D01*
Y546397D01*
X222135D01*
Y544082D01*
X216729D01*
Y542767D01*
X222135D01*
Y541589D01*
Y540561D01*
X216729D01*
Y539246D01*
X222135D01*
Y536931D01*
X216729D01*
Y535616D01*
X222135D01*
Y533301D01*
X216729D01*
Y531986D01*
X222135D01*
Y529671D01*
X216729D01*
Y528356D01*
X222135D01*
Y527179D01*
Y526151D01*
X216729D01*
Y524836D01*
X222135D01*
Y522521D01*
X216729D01*
Y521206D01*
X222135D01*
Y518891D01*
X216729D01*
Y517576D01*
X222135D01*
Y515261D01*
X216729D01*
Y513946D01*
X222135D01*
Y512768D01*
Y511740D01*
X216729D01*
Y510425D01*
X222135D01*
Y508110D01*
X216729D01*
Y506795D01*
X222135D01*
Y504480D01*
X216729D01*
Y503165D01*
X222135D01*
Y500850D01*
X216729D01*
Y499535D01*
X222135D01*
Y498358D01*
Y497330D01*
X216729D01*
Y496015D01*
X222135D01*
Y493700D01*
X216729D01*
Y492385D01*
X222135D01*
Y490070D01*
X216729D01*
Y488755D01*
X222135D01*
Y486440D01*
X216729D01*
Y485125D01*
X222135D01*
Y483947D01*
Y482919D01*
X216729D01*
Y481604D01*
X222135D01*
Y479289D01*
X216729D01*
Y477974D01*
X222135D01*
Y475659D01*
X216729D01*
Y474344D01*
X222135D01*
Y472029D01*
X216729D01*
Y470714D01*
X222135D01*
Y469537D01*
Y468509D01*
X216729D01*
Y467194D01*
X222135D01*
Y464879D01*
X216729D01*
Y463564D01*
X222135D01*
Y461249D01*
X216729D01*
Y459934D01*
X222135D01*
Y457619D01*
X216729D01*
Y456304D01*
X222135D01*
Y455126D01*
Y454098D01*
X216729D01*
Y452783D01*
X222135D01*
Y450468D01*
X216729D01*
Y449153D01*
X222135D01*
Y446838D01*
X216729D01*
Y445523D01*
X222135D01*
Y443208D01*
X216729D01*
Y441893D01*
X222135D01*
Y440716D01*
Y439688D01*
X216729D01*
Y438373D01*
X222135D01*
Y436058D01*
X216729D01*
Y434743D01*
X222135D01*
Y432428D01*
X216729D01*
Y431113D01*
X222135D01*
Y428798D01*
X216729D01*
Y427483D01*
X222135D01*
Y426306D01*
Y425277D01*
X216729D01*
Y423962D01*
X222135D01*
Y421647D01*
X216729D01*
Y420332D01*
X222135D01*
Y418017D01*
X216729D01*
Y416702D01*
X222135D01*
Y414387D01*
X216729D01*
Y413072D01*
X222135D01*
Y411895D01*
Y410867D01*
X216729D01*
Y409552D01*
X222135D01*
Y407237D01*
X216729D01*
Y405922D01*
X222135D01*
Y403607D01*
X216729D01*
Y402292D01*
X222135D01*
Y399977D01*
X216729D01*
Y398662D01*
X222135D01*
Y397485D01*
Y396457D01*
X216729D01*
Y395142D01*
X222135D01*
Y392827D01*
X216729D01*
Y391512D01*
X222135D01*
Y389196D01*
X216729D01*
Y387881D01*
X222135D01*
Y385566D01*
X216729D01*
Y384251D01*
X222135D01*
Y383074D01*
Y382046D01*
X216729D01*
Y380731D01*
X222135D01*
Y378416D01*
X216729D01*
Y377101D01*
X222135D01*
Y374786D01*
X216729D01*
Y373471D01*
X222135D01*
Y371156D01*
X216729D01*
Y369841D01*
X222135D01*
Y368664D01*
Y367636D01*
X216729D01*
Y366321D01*
X222135D01*
Y364006D01*
X216729D01*
Y362691D01*
X222135D01*
Y360376D01*
X216729D01*
Y359061D01*
X222135D01*
Y356746D01*
X216729D01*
Y355431D01*
X222135D01*
Y354253D01*
Y353225D01*
X216729D01*
Y351910D01*
X222135D01*
Y349595D01*
X216729D01*
Y348280D01*
X222135D01*
Y345965D01*
X216729D01*
Y344650D01*
X222135D01*
Y342335D01*
X216729D01*
Y341020D01*
X222135D01*
Y339843D01*
Y338815D01*
X216729D01*
Y337500D01*
X222135D01*
Y335185D01*
X216729D01*
Y333870D01*
X222135D01*
Y331555D01*
X216729D01*
Y330240D01*
X222135D01*
Y327925D01*
X216729D01*
Y326610D01*
X222135D01*
Y325432D01*
Y324404D01*
X216729D01*
Y323089D01*
X222135D01*
Y320774D01*
X216729D01*
Y319459D01*
X222135D01*
Y317144D01*
X216729D01*
Y315829D01*
X222135D01*
Y313514D01*
X216729D01*
Y312199D01*
X222135D01*
Y311022D01*
Y309994D01*
X216729D01*
Y308679D01*
X222135D01*
Y306364D01*
X216729D01*
Y305049D01*
X222135D01*
Y302734D01*
X216729D01*
Y301419D01*
X222135D01*
Y299104D01*
X216729D01*
Y297789D01*
X222135D01*
Y296611D01*
Y295583D01*
X216729D01*
Y294268D01*
X222135D01*
Y291953D01*
X216729D01*
Y290638D01*
X222135D01*
Y288323D01*
X216729D01*
Y287008D01*
X222135D01*
Y284693D01*
X216729D01*
Y283378D01*
X222135D01*
Y282201D01*
Y281173D01*
X216729D01*
Y279858D01*
X222135D01*
Y277543D01*
X216729D01*
Y276228D01*
X222135D01*
Y273913D01*
X216729D01*
Y272598D01*
X222135D01*
Y270283D01*
X216729D01*
Y268968D01*
X222135D01*
Y267791D01*
Y266762D01*
X216729D01*
Y265447D01*
X222135D01*
Y263132D01*
X216729D01*
Y261817D01*
X222135D01*
Y259502D01*
X216729D01*
Y258187D01*
X222135D01*
Y255872D01*
X216729D01*
Y254557D01*
X222135D01*
Y253380D01*
Y252352D01*
X216729D01*
Y251037D01*
X222135D01*
Y248722D01*
X216729D01*
Y247407D01*
X222135D01*
Y245092D01*
X216729D01*
Y243777D01*
X222135D01*
Y241462D01*
X216729D01*
Y240147D01*
X222135D01*
Y238970D01*
Y237941D01*
X216729D01*
Y236627D01*
X222135D01*
Y234312D01*
X216729D01*
Y232997D01*
X222135D01*
Y230681D01*
X216729D01*
Y229366D01*
X222135D01*
Y227051D01*
X216729D01*
Y225736D01*
X222135D01*
Y224559D01*
Y223531D01*
X216729D01*
Y222216D01*
X222135D01*
Y219901D01*
X216729D01*
Y218586D01*
X222135D01*
Y216271D01*
X216729D01*
Y214956D01*
X222135D01*
Y212641D01*
X216729D01*
Y211326D01*
X222135D01*
Y210149D01*
Y209120D01*
X216729D01*
Y207805D01*
X222135D01*
Y205490D01*
X216729D01*
Y204175D01*
X222135D01*
Y201860D01*
X216729D01*
Y200546D01*
X222135D01*
Y198231D01*
X216729D01*
Y196915D01*
X222135D01*
Y195738D01*
Y194710D01*
X216729D01*
Y193395D01*
X222135D01*
Y191080D01*
X216729D01*
Y189765D01*
X222135D01*
Y187450D01*
X216729D01*
Y186135D01*
X222135D01*
Y183820D01*
X216729D01*
Y182505D01*
X222135D01*
Y181328D01*
Y180300D01*
X216729D01*
Y178985D01*
Y178485D01*
X201618D01*
Y178026D01*
X200752D01*
Y179443D01*
X201618D01*
Y178985D01*
X216230D01*
Y180800D01*
X221635D01*
Y181328D01*
Y182005D01*
X216230D01*
Y184320D01*
X221635D01*
Y185635D01*
X216230D01*
Y187950D01*
X221635D01*
Y189265D01*
X216230D01*
Y191580D01*
X221635D01*
Y192895D01*
X201618D01*
Y192436D01*
X200752D01*
Y193854D01*
X201618D01*
Y193395D01*
X216230D01*
Y195210D01*
X221635D01*
Y195738D01*
Y196415D01*
X216230D01*
Y198731D01*
X221635D01*
Y200045D01*
X216230D01*
Y202361D01*
X221635D01*
Y203676D01*
X216230D01*
Y205991D01*
X221635D01*
Y207306D01*
X201618D01*
Y206847D01*
X200752D01*
Y208264D01*
X201618D01*
Y207805D01*
X216230D01*
Y209620D01*
X221635D01*
Y210149D01*
Y210826D01*
X216230D01*
Y213141D01*
X221635D01*
Y214456D01*
X216230D01*
Y216771D01*
X221635D01*
Y218086D01*
X216230D01*
Y220401D01*
X221635D01*
Y221716D01*
X201618D01*
Y221257D01*
X200752D01*
Y222675D01*
X201618D01*
Y222216D01*
X216230D01*
Y224031D01*
X221635D01*
Y224559D01*
Y225237D01*
X216230D01*
Y227552D01*
X221635D01*
Y228866D01*
X216230D01*
Y231181D01*
X221635D01*
Y232497D01*
X216230D01*
Y234811D01*
X221635D01*
Y236126D01*
X201618D01*
Y235668D01*
X200752D01*
Y237085D01*
X201618D01*
Y236627D01*
X216230D01*
Y238441D01*
X221635D01*
Y238970D01*
Y239647D01*
X216230D01*
Y241962D01*
X221635D01*
Y243277D01*
X216230D01*
Y245592D01*
X221635D01*
Y246907D01*
X216230D01*
Y249222D01*
X221635D01*
Y250537D01*
X201618D01*
Y250078D01*
X200752D01*
Y251496D01*
X201618D01*
Y251037D01*
X216230D01*
Y252852D01*
X221635D01*
Y253380D01*
Y254057D01*
X216230D01*
Y256372D01*
X221635D01*
Y257687D01*
X216230D01*
Y260002D01*
X221635D01*
Y261317D01*
X216230D01*
Y263632D01*
X221635D01*
Y264947D01*
X201618D01*
Y264489D01*
X200752D01*
Y265906D01*
X201618D01*
Y265447D01*
X216230D01*
Y267262D01*
X221635D01*
Y267791D01*
Y268468D01*
X216230D01*
Y270783D01*
X221635D01*
Y272098D01*
X216230D01*
Y274413D01*
X221635D01*
Y275728D01*
X216230D01*
Y278043D01*
X221635D01*
Y279358D01*
X201618D01*
Y278899D01*
X200752D01*
Y280316D01*
X201618D01*
Y279858D01*
X216230D01*
Y281673D01*
X221635D01*
Y282201D01*
Y282878D01*
X216230D01*
Y285193D01*
X221635D01*
Y286508D01*
X216230D01*
Y288823D01*
X221635D01*
Y290138D01*
X216230D01*
Y292453D01*
X221635D01*
Y293768D01*
X201618D01*
Y293310D01*
X200752D01*
Y294727D01*
X201618D01*
Y294268D01*
X216230D01*
Y296083D01*
X221635D01*
Y296611D01*
Y297289D01*
X216230D01*
Y299604D01*
X221635D01*
Y300919D01*
X216230D01*
Y303234D01*
X221635D01*
Y304549D01*
X216230D01*
Y306864D01*
X221635D01*
Y308179D01*
X201618D01*
Y307720D01*
X200752D01*
Y309137D01*
X201618D01*
Y308679D01*
X216230D01*
Y310494D01*
X221635D01*
Y311022D01*
Y311699D01*
X216230D01*
Y314014D01*
X221635D01*
Y315329D01*
X216230D01*
Y317644D01*
X221635D01*
Y318959D01*
X216230D01*
Y321274D01*
X221635D01*
Y322589D01*
X201618D01*
Y322130D01*
X200752D01*
Y323548D01*
X201618D01*
Y323089D01*
X216230D01*
Y324904D01*
X221635D01*
Y325432D01*
Y326110D01*
X216230D01*
Y328425D01*
X221635D01*
Y329740D01*
X216230D01*
Y332055D01*
X221635D01*
Y333370D01*
X216230D01*
Y335685D01*
X221635D01*
Y337000D01*
X201618D01*
Y336541D01*
X200752D01*
Y337958D01*
X201618D01*
Y337500D01*
X216230D01*
Y339315D01*
X221635D01*
Y339843D01*
Y340520D01*
X216230D01*
Y342835D01*
X221635D01*
Y344150D01*
X216230D01*
Y346465D01*
X221635D01*
Y347780D01*
X216230D01*
Y350095D01*
X221635D01*
Y351410D01*
X201618D01*
Y350952D01*
X200752D01*
Y352369D01*
X201618D01*
Y351910D01*
X216230D01*
Y353725D01*
X221635D01*
Y354253D01*
Y354931D01*
X216230D01*
Y357246D01*
X221635D01*
Y358561D01*
X216230D01*
Y360876D01*
X221635D01*
Y362191D01*
X216230D01*
Y364506D01*
X221635D01*
Y365821D01*
X201618D01*
Y365362D01*
X200752D01*
Y366779D01*
X201618D01*
Y366321D01*
X216230D01*
Y368136D01*
X221635D01*
Y368664D01*
Y369341D01*
X216230D01*
Y371656D01*
X221635D01*
Y372971D01*
X216230D01*
Y375286D01*
X221635D01*
Y376601D01*
X216230D01*
Y378916D01*
X221635D01*
Y380231D01*
X201618D01*
Y379772D01*
X200752D01*
Y381190D01*
X201618D01*
Y380731D01*
X216230D01*
Y382546D01*
X221635D01*
Y383074D01*
Y383752D01*
X216230D01*
Y386067D01*
X221635D01*
Y387382D01*
X216230D01*
Y389697D01*
X221635D01*
Y391012D01*
X216230D01*
Y393326D01*
X221635D01*
Y394641D01*
X201618D01*
Y394183D01*
X200752D01*
Y395600D01*
X201618D01*
Y395142D01*
X216230D01*
Y396956D01*
X221635D01*
Y397485D01*
Y398162D01*
X216230D01*
Y400477D01*
X221635D01*
Y401792D01*
X216230D01*
Y404107D01*
X221635D01*
Y405422D01*
X216230D01*
Y407737D01*
X221635D01*
Y409052D01*
X201618D01*
Y408593D01*
X200752D01*
Y410011D01*
X201618D01*
Y409552D01*
X216230D01*
Y411367D01*
X221635D01*
Y411895D01*
Y412572D01*
X216230D01*
Y414887D01*
X221635D01*
Y416202D01*
X216230D01*
Y418517D01*
X221635D01*
Y419832D01*
X216230D01*
Y422147D01*
X221635D01*
Y423462D01*
X201618D01*
Y423004D01*
X200752D01*
Y424421D01*
X201618D01*
Y423962D01*
X216230D01*
Y425777D01*
X221635D01*
Y426306D01*
Y426983D01*
X216230D01*
Y429298D01*
X221635D01*
Y430613D01*
X216230D01*
Y432928D01*
X221635D01*
Y434243D01*
X216230D01*
Y436558D01*
X221635D01*
Y437873D01*
X201618D01*
Y437414D01*
X200752D01*
Y438832D01*
X201618D01*
Y438373D01*
X216230D01*
Y440188D01*
X221635D01*
Y440716D01*
Y441393D01*
X216230D01*
Y443708D01*
X221635D01*
Y445023D01*
X216230D01*
Y447338D01*
X221635D01*
Y448653D01*
X216230D01*
Y450968D01*
X221635D01*
Y452283D01*
X201618D01*
Y451825D01*
X200752D01*
Y453242D01*
X201618D01*
Y452783D01*
X216230D01*
Y454598D01*
X221635D01*
Y455126D01*
Y455804D01*
X216230D01*
Y458119D01*
X221635D01*
Y459434D01*
X216230D01*
Y461749D01*
X221635D01*
Y463064D01*
X216230D01*
Y465379D01*
X221635D01*
Y466694D01*
X201618D01*
Y466235D01*
X200752D01*
Y467653D01*
X201618D01*
Y467194D01*
X216230D01*
Y469009D01*
X221635D01*
Y469537D01*
Y470214D01*
X216230D01*
Y472529D01*
X221635D01*
Y473844D01*
X216230D01*
Y476159D01*
X221635D01*
Y477474D01*
X216230D01*
Y479789D01*
X221635D01*
Y481104D01*
X201618D01*
Y480646D01*
X200752D01*
Y482063D01*
X201618D01*
Y481604D01*
X216230D01*
Y483419D01*
X221635D01*
Y483947D01*
Y484625D01*
X216230D01*
Y486940D01*
X221635D01*
Y488255D01*
X216230D01*
Y490570D01*
X221635D01*
Y491885D01*
X216230D01*
Y494200D01*
X221635D01*
Y495515D01*
X201618D01*
Y495056D01*
X200752D01*
Y496473D01*
X201618D01*
Y496015D01*
X216230D01*
Y497830D01*
X221635D01*
Y498358D01*
Y499035D01*
X216230D01*
Y501350D01*
X221635D01*
Y502665D01*
X216230D01*
Y504980D01*
X221635D01*
Y506295D01*
X216230D01*
Y508610D01*
X221635D01*
Y509925D01*
X201618D01*
Y509467D01*
X200752D01*
Y510884D01*
X201618D01*
Y510425D01*
X216230D01*
Y512240D01*
X221635D01*
Y512768D01*
Y513446D01*
X216230D01*
Y515761D01*
X221635D01*
Y517076D01*
X216230D01*
Y519391D01*
X221635D01*
Y520706D01*
X216230D01*
Y523021D01*
X221635D01*
Y524336D01*
X201618D01*
Y523877D01*
X200752D01*
Y525294D01*
X201618D01*
Y524836D01*
X216230D01*
Y526651D01*
X221635D01*
Y527179D01*
Y527856D01*
X216230D01*
Y530171D01*
X221635D01*
Y531486D01*
X216230D01*
Y533801D01*
X221635D01*
Y535116D01*
X216230D01*
Y537431D01*
X221635D01*
Y538746D01*
X201618D01*
Y538287D01*
X200752D01*
Y539705D01*
X201618D01*
Y539246D01*
X216230D01*
Y541061D01*
X221635D01*
Y541589D01*
Y542267D01*
X216230D01*
Y544582D01*
X221635D01*
Y545897D01*
X216230D01*
Y548212D01*
X221635D01*
Y549527D01*
X216230D01*
Y551842D01*
X221635D01*
Y553157D01*
X201618D01*
Y552698D01*
X200752D01*
Y554115D01*
X201618D01*
Y553657D01*
X216230D01*
Y555472D01*
X221635D01*
Y556000D01*
Y556677D01*
X216230D01*
Y558992D01*
X221635D01*
Y560307D01*
X216230D01*
Y562622D01*
X221635D01*
Y563937D01*
X216230D01*
Y566252D01*
X221635D01*
Y567567D01*
X201618D01*
Y567108D01*
X200752D01*
Y568526D01*
X201618D01*
Y568067D01*
X216230D01*
Y569882D01*
X221635D01*
Y570410D01*
Y571088D01*
X216230D01*
Y573403D01*
X221635D01*
Y574718D01*
X216230D01*
Y577033D01*
X221635D01*
Y578347D01*
X216230D01*
Y580662D01*
X221635D01*
Y581978D01*
X201618D01*
Y581519D01*
X200752D01*
Y582936D01*
X201618D01*
Y582478D01*
X216230D01*
Y584293D01*
X221635D01*
Y585415D01*
X222135D01*
Y583792D01*
D02*
G37*
G36*
X199138Y581519D02*
X198272D01*
Y581978D01*
X197854D01*
Y580854D01*
X197854D01*
X198141Y580832D01*
X198699Y580687D01*
X199223Y580446D01*
X199696Y580116D01*
X200104Y579708D01*
X200434Y579235D01*
X200675Y578711D01*
X200820Y578153D01*
X200842Y577865D01*
X199655D01*
X199655Y577865D01*
X199598Y578159D01*
X199359Y578707D01*
X198974Y579163D01*
X198474Y579490D01*
X198194Y579596D01*
Y578064D01*
X197013D01*
Y579596D01*
X196733Y579490D01*
X196233Y579163D01*
X195848Y578707D01*
X195609Y578159D01*
X195552Y577865D01*
X194365D01*
X194387Y578153D01*
X194532Y578711D01*
X194773Y579235D01*
X195103Y579708D01*
X195511Y580116D01*
X195984Y580446D01*
X196508Y580687D01*
X197066Y580832D01*
X197353Y580854D01*
X197353Y582478D01*
X198272D01*
Y582936D01*
X199138D01*
Y581519D01*
D02*
G37*
G36*
X200842Y577365D02*
X200820Y577078D01*
X200675Y576520D01*
X200434Y575996D01*
X200104Y575523D01*
X199696Y575115D01*
X199223Y574785D01*
X198699Y574544D01*
X198141Y574399D01*
X197854Y574377D01*
X197854Y572753D01*
X196935D01*
Y572295D01*
X196069D01*
Y573712D01*
X196935D01*
Y573253D01*
X197353D01*
Y574377D01*
X197353Y574377D01*
X197066Y574399D01*
X196508Y574544D01*
X195984Y574785D01*
X195511Y575115D01*
X195103Y575523D01*
X194773Y575996D01*
X194532Y576520D01*
X194387Y577078D01*
X194365Y577365D01*
X195552Y577365D01*
X195552Y577365D01*
X195609Y577072D01*
X195848Y576524D01*
X196233Y576068D01*
X196733Y575741D01*
X197013Y575635D01*
Y577167D01*
X198194D01*
Y575635D01*
X198474Y575741D01*
X198974Y576068D01*
X199359Y576524D01*
X199598Y577072D01*
X199655Y577365D01*
X200842D01*
Y577365D01*
D02*
G37*
G36*
X173557Y584143D02*
X178962D01*
Y581828D01*
X173557D01*
Y580513D01*
X178962D01*
Y578198D01*
X173557D01*
Y576883D01*
X178962D01*
Y574568D01*
X173557D01*
Y573253D01*
X193589D01*
Y573712D01*
X194455D01*
Y572295D01*
X193589D01*
Y572753D01*
X178962D01*
Y570938D01*
X173557D01*
Y570410D01*
Y569733D01*
X178962D01*
Y567418D01*
X173557D01*
Y566103D01*
X178962D01*
Y563788D01*
X173557D01*
Y562473D01*
X178962D01*
Y560158D01*
X173557D01*
Y558843D01*
X193589D01*
Y559302D01*
X194455D01*
Y557884D01*
X193589D01*
Y558343D01*
X178962D01*
Y556528D01*
X173557D01*
Y556000D01*
Y555323D01*
X178962D01*
Y553007D01*
X173557D01*
Y551692D01*
X178962D01*
Y549377D01*
X173557D01*
Y548062D01*
X178962D01*
Y545748D01*
X173557D01*
Y544432D01*
X193589D01*
Y544891D01*
X194455D01*
Y543474D01*
X193589D01*
Y543932D01*
X178962D01*
Y542118D01*
X173557D01*
Y541589D01*
Y540912D01*
X178962D01*
Y538597D01*
X173557D01*
Y537282D01*
X178962D01*
Y534967D01*
X173557D01*
Y533652D01*
X178962D01*
Y531337D01*
X173557D01*
Y530022D01*
X193589D01*
Y530481D01*
X194455D01*
Y529063D01*
X193589D01*
Y529522D01*
X178962D01*
Y527707D01*
X173557D01*
Y527179D01*
Y526502D01*
X178962D01*
Y524187D01*
X173557D01*
Y522871D01*
X178962D01*
Y520556D01*
X173557D01*
Y519242D01*
X178962D01*
Y516926D01*
X173557D01*
Y515612D01*
X193589D01*
Y516070D01*
X194455D01*
Y514653D01*
X193589D01*
Y515111D01*
X178962D01*
Y513297D01*
X173557D01*
Y512768D01*
Y512091D01*
X178962D01*
Y509776D01*
X173557D01*
Y508461D01*
X178962D01*
Y506146D01*
X173557D01*
Y504831D01*
X178962D01*
Y502516D01*
X173557D01*
Y501201D01*
X193589D01*
Y501660D01*
X194455D01*
Y500242D01*
X193589D01*
Y500701D01*
X178962D01*
Y498886D01*
X173557D01*
Y498358D01*
Y497681D01*
X178962D01*
Y495366D01*
X173557D01*
Y494051D01*
X178962D01*
Y491736D01*
X173557D01*
Y490421D01*
X178962D01*
Y488106D01*
X173557D01*
Y486791D01*
X193589D01*
Y487249D01*
X194455D01*
Y485832D01*
X193589D01*
Y486291D01*
X178962D01*
Y484476D01*
X173557D01*
Y483947D01*
Y483270D01*
X178962D01*
Y480955D01*
X173557D01*
Y479640D01*
X178962D01*
Y477325D01*
X173557D01*
Y476010D01*
X178962D01*
Y473695D01*
X173557D01*
Y472380D01*
X193589D01*
Y472839D01*
X194455D01*
Y471421D01*
X193589D01*
Y471880D01*
X178962D01*
Y470065D01*
X173557D01*
Y469537D01*
Y468860D01*
X178962D01*
Y466545D01*
X173557D01*
Y465230D01*
X178962D01*
Y462915D01*
X173557D01*
Y461600D01*
X178962D01*
Y459285D01*
X173557D01*
Y457970D01*
X193589D01*
Y458428D01*
X194455D01*
Y457011D01*
X193589D01*
Y457470D01*
X178962D01*
Y455655D01*
X173557D01*
Y455126D01*
Y454449D01*
X178962D01*
Y452134D01*
X173557D01*
Y450819D01*
X178962D01*
Y448504D01*
X173557D01*
Y447189D01*
X178962D01*
Y444874D01*
X173557D01*
Y443559D01*
X193589D01*
Y444018D01*
X194455D01*
Y442601D01*
X193589D01*
Y443059D01*
X178962D01*
Y441244D01*
X173557D01*
Y440716D01*
Y440039D01*
X178962D01*
Y437724D01*
X173557D01*
Y436409D01*
X178962D01*
Y434094D01*
X173557D01*
Y432779D01*
X178962D01*
Y430464D01*
X173557D01*
Y429149D01*
X193589D01*
Y429607D01*
X194455D01*
Y428190D01*
X193589D01*
Y428649D01*
X178962D01*
Y426834D01*
X173557D01*
Y426306D01*
Y425628D01*
X178962D01*
Y423313D01*
X173557D01*
Y421998D01*
X178962D01*
Y419683D01*
X173557D01*
Y418368D01*
X178962D01*
Y416053D01*
X173557D01*
Y414738D01*
X193589D01*
Y415197D01*
X194455D01*
Y413780D01*
X193589D01*
Y414238D01*
X178962D01*
Y412423D01*
X173557D01*
Y411895D01*
Y411218D01*
X178962D01*
Y408903D01*
X173557D01*
Y407588D01*
X178962D01*
Y405273D01*
X173557D01*
Y403958D01*
X178962D01*
Y401643D01*
X173557D01*
Y400328D01*
X193589D01*
Y400786D01*
X194455D01*
Y399369D01*
X193589D01*
Y399828D01*
X178962D01*
Y398013D01*
X173557D01*
Y397485D01*
Y396807D01*
X178962D01*
Y394492D01*
X173557D01*
Y393177D01*
X178962D01*
Y390862D01*
X173557D01*
Y389547D01*
X178962D01*
Y387232D01*
X173557D01*
Y385917D01*
X193589D01*
Y386376D01*
X194455D01*
Y384959D01*
X193589D01*
Y385417D01*
X178962D01*
Y383602D01*
X173557D01*
Y383074D01*
Y382397D01*
X178962D01*
Y380082D01*
X173557D01*
Y378767D01*
X178962D01*
Y376452D01*
X173557D01*
Y375137D01*
X178962D01*
Y372822D01*
X173557D01*
Y371507D01*
X193589D01*
Y371966D01*
X194455D01*
Y370548D01*
X193589D01*
Y371007D01*
X178962D01*
Y369192D01*
X173557D01*
Y368664D01*
Y367986D01*
X178962D01*
Y365671D01*
X173557D01*
Y364356D01*
X178962D01*
Y362041D01*
X173557D01*
Y360726D01*
X178962D01*
Y358412D01*
X173557D01*
Y357097D01*
X193589D01*
Y357555D01*
X194455D01*
Y356138D01*
X193589D01*
Y356596D01*
X178962D01*
Y354782D01*
X173557D01*
Y354253D01*
Y353576D01*
X178962D01*
Y351261D01*
X173557D01*
Y349946D01*
X178962D01*
Y347631D01*
X173557D01*
Y346316D01*
X178962D01*
Y344001D01*
X173557D01*
Y342686D01*
X193589D01*
Y343145D01*
X194455D01*
Y341727D01*
X193589D01*
Y342186D01*
X178962D01*
Y340371D01*
X173557D01*
Y339843D01*
Y339165D01*
X178962D01*
Y336851D01*
X173557D01*
Y335536D01*
X178962D01*
Y333221D01*
X173557D01*
Y331906D01*
X178962D01*
Y329591D01*
X173557D01*
Y328276D01*
X193589D01*
Y328734D01*
X194455D01*
Y327317D01*
X193589D01*
Y327776D01*
X178962D01*
Y325961D01*
X173557D01*
Y325432D01*
Y324755D01*
X178962D01*
Y322440D01*
X173557D01*
Y321125D01*
X178962D01*
Y318810D01*
X173557D01*
Y317495D01*
X178962D01*
Y315180D01*
X173557D01*
Y313865D01*
X193589D01*
Y314324D01*
X194455D01*
Y312906D01*
X193589D01*
Y313365D01*
X178962D01*
Y311550D01*
X173557D01*
Y311022D01*
Y310345D01*
X178962D01*
Y308030D01*
X173557D01*
Y306715D01*
X178962D01*
Y304400D01*
X173557D01*
Y303085D01*
X178962D01*
Y300770D01*
X173557D01*
Y299455D01*
X193589D01*
Y299913D01*
X194455D01*
Y298496D01*
X193589D01*
Y298955D01*
X178962D01*
Y297140D01*
X173557D01*
Y296611D01*
Y295934D01*
X178962D01*
Y293619D01*
X173557D01*
Y292304D01*
X178962D01*
Y289989D01*
X173557D01*
Y288674D01*
X178962D01*
Y286359D01*
X173557D01*
Y285044D01*
X193589D01*
Y285503D01*
X194455D01*
Y284085D01*
X193589D01*
Y284544D01*
X178962D01*
Y282729D01*
X173557D01*
Y282201D01*
Y281524D01*
X178962D01*
Y279209D01*
X173557D01*
Y277894D01*
X178962D01*
Y275579D01*
X173557D01*
Y274264D01*
X178962D01*
Y271949D01*
X173557D01*
Y270634D01*
X193589D01*
Y271092D01*
X194455D01*
Y269675D01*
X193589D01*
Y270134D01*
X178962D01*
Y268319D01*
X173557D01*
Y267791D01*
Y267113D01*
X178962D01*
Y264798D01*
X173557D01*
Y263483D01*
X178962D01*
Y261168D01*
X173557D01*
Y259853D01*
X178962D01*
Y257538D01*
X173557D01*
Y256223D01*
X193589D01*
Y256682D01*
X194455D01*
Y255265D01*
X193589D01*
Y255723D01*
X178962D01*
Y253908D01*
X173557D01*
Y253380D01*
Y252703D01*
X178962D01*
Y250388D01*
X173557D01*
Y249073D01*
X178962D01*
Y246758D01*
X173557D01*
Y245443D01*
X178962D01*
Y243128D01*
X173557D01*
Y241813D01*
X193589D01*
Y242271D01*
X194455D01*
Y240854D01*
X193589D01*
Y241313D01*
X178962D01*
Y239498D01*
X173557D01*
Y238970D01*
Y238292D01*
X178962D01*
Y235977D01*
X173557D01*
Y234662D01*
X178962D01*
Y232347D01*
X173557D01*
Y231032D01*
X178962D01*
Y228717D01*
X173557D01*
Y227402D01*
X193589D01*
Y227861D01*
X194455D01*
Y226444D01*
X193589D01*
Y226902D01*
X178962D01*
Y225087D01*
X173557D01*
Y224559D01*
Y223882D01*
X178962D01*
Y221567D01*
X173557D01*
Y220252D01*
X178962D01*
Y217937D01*
X173557D01*
Y216622D01*
X178962D01*
Y214307D01*
X173557D01*
Y212992D01*
X193589D01*
Y213451D01*
X194455D01*
Y212033D01*
X193589D01*
Y212492D01*
X178962D01*
Y210677D01*
X173557D01*
Y210149D01*
Y209471D01*
X178962D01*
Y207156D01*
X173557D01*
Y205841D01*
X178962D01*
Y203526D01*
X173557D01*
Y202211D01*
X178962D01*
Y199896D01*
X173557D01*
Y198581D01*
X193589D01*
Y199040D01*
X194455D01*
Y197623D01*
X193589D01*
Y198081D01*
X178962D01*
Y196266D01*
X173557D01*
Y195738D01*
Y195061D01*
X178962D01*
Y192746D01*
X173557D01*
Y191431D01*
X178962D01*
Y189116D01*
X173557D01*
Y187801D01*
X178962D01*
Y185486D01*
X173557D01*
Y184171D01*
X193589D01*
Y184630D01*
X194455D01*
Y183212D01*
X193589D01*
Y183671D01*
X178962D01*
Y181856D01*
X173557D01*
Y181328D01*
Y180650D01*
X178962D01*
Y178335D01*
X173557D01*
Y177021D01*
X178962D01*
Y174706D01*
X173557D01*
Y173390D01*
X178962D01*
Y171075D01*
X173557D01*
Y169761D01*
X193589D01*
Y170219D01*
X194455D01*
Y168802D01*
X193589D01*
Y169261D01*
X173057D01*
Y171575D01*
X178462D01*
Y172890D01*
X173057D01*
Y175206D01*
X178462D01*
Y176521D01*
X173057D01*
Y178835D01*
X178462D01*
Y180150D01*
X173057D01*
Y181328D01*
Y182356D01*
X178462D01*
Y183671D01*
X173057D01*
Y185986D01*
X178462D01*
Y187301D01*
X173057D01*
Y189616D01*
X178462D01*
Y190931D01*
X173057D01*
Y193246D01*
X178462D01*
Y194561D01*
X173057D01*
Y195738D01*
Y196766D01*
X178462D01*
Y198081D01*
X173057D01*
Y200396D01*
X178462D01*
Y201711D01*
X173057D01*
Y204026D01*
X178462D01*
Y205341D01*
X173057D01*
Y207656D01*
X178462D01*
Y208971D01*
X173057D01*
Y210149D01*
Y211177D01*
X178462D01*
Y212492D01*
X173057D01*
Y214807D01*
X178462D01*
Y216122D01*
X173057D01*
Y218437D01*
X178462D01*
Y219752D01*
X173057D01*
Y222067D01*
X178462D01*
Y223382D01*
X173057D01*
Y224559D01*
Y225587D01*
X178462D01*
Y226902D01*
X173057D01*
Y229217D01*
X178462D01*
Y230532D01*
X173057D01*
Y232847D01*
X178462D01*
Y234162D01*
X173057D01*
Y236477D01*
X178462D01*
Y237792D01*
X173057D01*
Y238970D01*
Y239998D01*
X178462D01*
Y241313D01*
X173057D01*
Y243628D01*
X178462D01*
Y244943D01*
X173057D01*
Y247258D01*
X178462D01*
Y248573D01*
X173057D01*
Y250888D01*
X178462D01*
Y252203D01*
X173057D01*
Y253380D01*
Y254408D01*
X178462D01*
Y255723D01*
X173057D01*
Y258038D01*
X178462D01*
Y259353D01*
X173057D01*
Y261668D01*
X178462D01*
Y262983D01*
X173057D01*
Y265298D01*
X178462D01*
Y266613D01*
X173057D01*
Y267791D01*
Y268819D01*
X178462D01*
Y270134D01*
X173057D01*
Y272449D01*
X178462D01*
Y273764D01*
X173057D01*
Y276079D01*
X178462D01*
Y277394D01*
X173057D01*
Y279709D01*
X178462D01*
Y281024D01*
X173057D01*
Y282201D01*
Y283229D01*
X178462D01*
Y284544D01*
X173057D01*
Y286859D01*
X178462D01*
Y288174D01*
X173057D01*
Y290489D01*
X178462D01*
Y291804D01*
X173057D01*
Y294119D01*
X178462D01*
Y295434D01*
X173057D01*
Y296611D01*
Y297640D01*
X178462D01*
Y298955D01*
X173057D01*
Y301270D01*
X178462D01*
Y302585D01*
X173057D01*
Y304900D01*
X178462D01*
Y306215D01*
X173057D01*
Y308530D01*
X178462D01*
Y309845D01*
X173057D01*
Y311022D01*
Y312050D01*
X178462D01*
Y313365D01*
X173057D01*
Y315680D01*
X178462D01*
Y316995D01*
X173057D01*
Y319310D01*
X178462D01*
Y320625D01*
X173057D01*
Y322940D01*
X178462D01*
Y324255D01*
X173057D01*
Y325432D01*
Y326461D01*
X178462D01*
Y327776D01*
X173057D01*
Y330090D01*
X178462D01*
Y331405D01*
X173057D01*
Y333721D01*
X178462D01*
Y335036D01*
X173057D01*
Y337351D01*
X178462D01*
Y338666D01*
X173057D01*
Y339843D01*
Y340871D01*
X178462D01*
Y342186D01*
X173057D01*
Y344501D01*
X178462D01*
Y345816D01*
X173057D01*
Y348131D01*
X178462D01*
Y349446D01*
X173057D01*
Y351761D01*
X178462D01*
Y353076D01*
X173057D01*
Y354253D01*
Y355281D01*
X178462D01*
Y356596D01*
X173057D01*
Y358911D01*
X178462D01*
Y360226D01*
X173057D01*
Y362542D01*
X178462D01*
Y363857D01*
X173057D01*
Y366172D01*
X178462D01*
Y367487D01*
X173057D01*
Y368664D01*
Y369692D01*
X178462D01*
Y371007D01*
X173057D01*
Y373322D01*
X178462D01*
Y374637D01*
X173057D01*
Y376952D01*
X178462D01*
Y378267D01*
X173057D01*
Y380582D01*
X178462D01*
Y381897D01*
X173057D01*
Y383074D01*
Y384102D01*
X178462D01*
Y385417D01*
X173057D01*
Y387732D01*
X178462D01*
Y389047D01*
X173057D01*
Y391362D01*
X178462D01*
Y392677D01*
X173057D01*
Y394992D01*
X178462D01*
Y396307D01*
X173057D01*
Y397485D01*
Y398513D01*
X178462D01*
Y399828D01*
X173057D01*
Y402143D01*
X178462D01*
Y403458D01*
X173057D01*
Y405773D01*
X178462D01*
Y407088D01*
X173057D01*
Y409403D01*
X178462D01*
Y410718D01*
X173057D01*
Y411895D01*
Y412923D01*
X178462D01*
Y414238D01*
X173057D01*
Y416553D01*
X178462D01*
Y417868D01*
X173057D01*
Y420183D01*
X178462D01*
Y421498D01*
X173057D01*
Y423813D01*
X178462D01*
Y425128D01*
X173057D01*
Y426306D01*
Y427334D01*
X178462D01*
Y428649D01*
X173057D01*
Y430964D01*
X178462D01*
Y432279D01*
X173057D01*
Y434594D01*
X178462D01*
Y435909D01*
X173057D01*
Y438224D01*
X178462D01*
Y439539D01*
X173057D01*
Y440716D01*
Y441744D01*
X178462D01*
Y443059D01*
X173057D01*
Y445374D01*
X178462D01*
Y446689D01*
X173057D01*
Y449004D01*
X178462D01*
Y450319D01*
X173057D01*
Y452634D01*
X178462D01*
Y453949D01*
X173057D01*
Y455126D01*
Y456155D01*
X178462D01*
Y457470D01*
X173057D01*
Y459785D01*
X178462D01*
Y461100D01*
X173057D01*
Y463415D01*
X178462D01*
Y464730D01*
X173057D01*
Y467045D01*
X178462D01*
Y468360D01*
X173057D01*
Y469537D01*
Y470565D01*
X178462D01*
Y471880D01*
X173057D01*
Y474195D01*
X178462D01*
Y475510D01*
X173057D01*
Y477825D01*
X178462D01*
Y479140D01*
X173057D01*
Y481455D01*
X178462D01*
Y482770D01*
X173057D01*
Y483947D01*
Y484976D01*
X178462D01*
Y486291D01*
X173057D01*
Y488606D01*
X178462D01*
Y489921D01*
X173057D01*
Y492236D01*
X178462D01*
Y493551D01*
X173057D01*
Y495866D01*
X178462D01*
Y497181D01*
X173057D01*
Y498358D01*
Y499386D01*
X178462D01*
Y500701D01*
X173057D01*
Y503016D01*
X178462D01*
Y504331D01*
X173057D01*
Y506646D01*
X178462D01*
Y507961D01*
X173057D01*
Y510276D01*
X178462D01*
Y511591D01*
X173057D01*
Y512768D01*
Y513797D01*
X178462D01*
Y515111D01*
X173057D01*
Y517426D01*
X178462D01*
Y518742D01*
X173057D01*
Y521057D01*
X178462D01*
Y522371D01*
X173057D01*
Y524686D01*
X178462D01*
Y526002D01*
X173057D01*
Y527179D01*
Y528207D01*
X178462D01*
Y529522D01*
X173057D01*
Y531837D01*
X178462D01*
Y533152D01*
X173057D01*
Y535467D01*
X178462D01*
Y536782D01*
X173057D01*
Y539097D01*
X178462D01*
Y540412D01*
X173057D01*
Y541589D01*
Y542618D01*
X178462D01*
Y543932D01*
X173057D01*
Y546247D01*
X178462D01*
Y547562D01*
X173057D01*
Y549878D01*
X178462D01*
Y551193D01*
X173057D01*
Y553507D01*
X178462D01*
Y554822D01*
X173057D01*
Y556000D01*
Y557028D01*
X178462D01*
Y558343D01*
X173057D01*
Y560658D01*
X178462D01*
Y561973D01*
X173057D01*
Y564288D01*
X178462D01*
Y565603D01*
X173057D01*
Y567918D01*
X178462D01*
Y569233D01*
X173057D01*
Y570410D01*
Y571438D01*
X178462D01*
Y572753D01*
X173057D01*
Y575068D01*
X178462D01*
Y576383D01*
X173057D01*
Y578698D01*
X178462D01*
Y580013D01*
X173057D01*
Y582328D01*
X178462D01*
Y583643D01*
X173057D01*
Y585266D01*
X173557D01*
Y584143D01*
D02*
G37*
G36*
X199138Y567108D02*
X198272D01*
Y567567D01*
X197854D01*
Y566443D01*
X197854D01*
X198141Y566421D01*
X198699Y566276D01*
X199223Y566035D01*
X199696Y565706D01*
X200104Y565298D01*
X200434Y564824D01*
X200675Y564301D01*
X200820Y563742D01*
X200842Y563455D01*
X199655D01*
X199655Y563455D01*
X199598Y563749D01*
X199359Y564296D01*
X198974Y564752D01*
X198474Y565080D01*
X198194Y565186D01*
Y563654D01*
X197013D01*
Y565186D01*
X196733Y565080D01*
X196233Y564752D01*
X195848Y564296D01*
X195609Y563749D01*
X195552Y563455D01*
X194365D01*
X194387Y563742D01*
X194532Y564301D01*
X194773Y564824D01*
X195103Y565298D01*
X195511Y565706D01*
X195984Y566035D01*
X196508Y566276D01*
X197066Y566421D01*
X197353Y566443D01*
X197353Y568067D01*
X198272D01*
Y568526D01*
X199138D01*
Y567108D01*
D02*
G37*
G36*
X200842Y562955D02*
X200820Y562668D01*
X200675Y562109D01*
X200434Y561585D01*
X200104Y561112D01*
X199696Y560704D01*
X199223Y560375D01*
X198699Y560134D01*
X198141Y559989D01*
X197854Y559967D01*
X197854Y558343D01*
X196935D01*
Y557884D01*
X196069D01*
Y559302D01*
X196935D01*
Y558843D01*
X197353D01*
Y559967D01*
X197353Y559967D01*
X197066Y559989D01*
X196508Y560134D01*
X195984Y560375D01*
X195511Y560704D01*
X195103Y561112D01*
X194773Y561585D01*
X194532Y562109D01*
X194387Y562668D01*
X194365Y562955D01*
X195552Y562955D01*
X195552Y562955D01*
X195609Y562661D01*
X195848Y562114D01*
X196233Y561657D01*
X196733Y561330D01*
X197013Y561224D01*
Y562756D01*
X198194D01*
Y561224D01*
X198474Y561330D01*
X198974Y561657D01*
X199359Y562114D01*
X199598Y562661D01*
X199655Y562955D01*
X200842D01*
Y562955D01*
D02*
G37*
G36*
X199138Y552698D02*
X198272D01*
Y553157D01*
X197854D01*
Y552033D01*
X197854D01*
X198141Y552011D01*
X198699Y551866D01*
X199223Y551625D01*
X199696Y551295D01*
X200104Y550887D01*
X200434Y550414D01*
X200675Y549890D01*
X200820Y549332D01*
X200842Y549045D01*
X199655D01*
X199655Y549045D01*
X199598Y549338D01*
X199359Y549886D01*
X198974Y550342D01*
X198474Y550669D01*
X198194Y550775D01*
Y549243D01*
X197013D01*
Y550775D01*
X196733Y550669D01*
X196233Y550342D01*
X195848Y549886D01*
X195609Y549338D01*
X195552Y549045D01*
X194365D01*
X194387Y549332D01*
X194532Y549890D01*
X194773Y550414D01*
X195103Y550887D01*
X195511Y551295D01*
X195984Y551625D01*
X196508Y551866D01*
X197066Y552011D01*
X197353Y552033D01*
X197353Y553657D01*
X198272D01*
Y554115D01*
X199138D01*
Y552698D01*
D02*
G37*
G36*
X200842Y548545D02*
X200820Y548257D01*
X200675Y547699D01*
X200434Y547175D01*
X200104Y546702D01*
X199696Y546294D01*
X199223Y545964D01*
X198699Y545723D01*
X198141Y545578D01*
X197854Y545556D01*
X197854Y543932D01*
X196935D01*
Y543474D01*
X196069D01*
Y544891D01*
X196935D01*
Y544432D01*
X197353D01*
Y545556D01*
X197353Y545556D01*
X197066Y545578D01*
X196508Y545723D01*
X195984Y545964D01*
X195511Y546294D01*
X195103Y546702D01*
X194773Y547175D01*
X194532Y547699D01*
X194387Y548257D01*
X194365Y548545D01*
X195552Y548545D01*
X195552Y548545D01*
X195609Y548251D01*
X195848Y547703D01*
X196233Y547247D01*
X196733Y546920D01*
X197013Y546814D01*
Y548346D01*
X198194D01*
Y546814D01*
X198474Y546920D01*
X198974Y547247D01*
X199359Y547703D01*
X199598Y548251D01*
X199655Y548545D01*
X200842D01*
Y548545D01*
D02*
G37*
G36*
X199138Y538287D02*
X198272D01*
Y538746D01*
X197854D01*
Y537622D01*
X197854D01*
X198141Y537600D01*
X198699Y537455D01*
X199223Y537214D01*
X199696Y536885D01*
X200104Y536477D01*
X200434Y536004D01*
X200675Y535480D01*
X200820Y534922D01*
X200842Y534634D01*
X199655D01*
X199655Y534634D01*
X199598Y534928D01*
X199359Y535475D01*
X198974Y535932D01*
X198474Y536259D01*
X198194Y536365D01*
Y534833D01*
X197013D01*
Y536365D01*
X196733Y536259D01*
X196233Y535932D01*
X195848Y535475D01*
X195609Y534928D01*
X195552Y534634D01*
X194365D01*
X194387Y534922D01*
X194532Y535480D01*
X194773Y536004D01*
X195103Y536477D01*
X195511Y536885D01*
X195984Y537214D01*
X196508Y537455D01*
X197066Y537600D01*
X197353Y537622D01*
X197353Y539246D01*
X198272D01*
Y539705D01*
X199138D01*
Y538287D01*
D02*
G37*
G36*
X200842Y534134D02*
X200820Y533847D01*
X200675Y533288D01*
X200434Y532764D01*
X200104Y532291D01*
X199696Y531883D01*
X199223Y531554D01*
X198699Y531313D01*
X198141Y531168D01*
X197854Y531146D01*
X197854Y529522D01*
X196935D01*
Y529063D01*
X196069D01*
Y530481D01*
X196935D01*
Y530022D01*
X197353D01*
Y531146D01*
X197353Y531146D01*
X197066Y531168D01*
X196508Y531313D01*
X195984Y531554D01*
X195511Y531883D01*
X195103Y532291D01*
X194773Y532764D01*
X194532Y533288D01*
X194387Y533847D01*
X194365Y534134D01*
X195552Y534134D01*
X195552Y534134D01*
X195609Y533840D01*
X195848Y533293D01*
X196233Y532836D01*
X196733Y532509D01*
X197013Y532403D01*
Y533935D01*
X198194D01*
Y532403D01*
X198474Y532509D01*
X198974Y532836D01*
X199359Y533293D01*
X199598Y533840D01*
X199655Y534134D01*
X200842D01*
Y534134D01*
D02*
G37*
G36*
X199138Y523877D02*
X198272D01*
Y524336D01*
X197854D01*
Y523212D01*
X197854D01*
X198141Y523190D01*
X198699Y523045D01*
X199223Y522804D01*
X199696Y522474D01*
X200104Y522066D01*
X200434Y521593D01*
X200675Y521069D01*
X200820Y520511D01*
X200842Y520224D01*
X199655D01*
X199655Y520224D01*
X199598Y520517D01*
X199359Y521065D01*
X198974Y521521D01*
X198474Y521848D01*
X198194Y521954D01*
Y520422D01*
X197013D01*
Y521954D01*
X196733Y521848D01*
X196233Y521521D01*
X195848Y521065D01*
X195609Y520517D01*
X195552Y520224D01*
X194365D01*
X194387Y520511D01*
X194532Y521069D01*
X194773Y521593D01*
X195103Y522066D01*
X195511Y522474D01*
X195984Y522804D01*
X196508Y523045D01*
X197066Y523190D01*
X197353Y523212D01*
X197353Y524836D01*
X198272D01*
Y525294D01*
X199138D01*
Y523877D01*
D02*
G37*
G36*
X200842Y519724D02*
X200820Y519436D01*
X200675Y518878D01*
X200434Y518354D01*
X200104Y517881D01*
X199696Y517473D01*
X199223Y517143D01*
X198699Y516902D01*
X198141Y516757D01*
X197854Y516735D01*
X197854Y515111D01*
X196935D01*
Y514653D01*
X196069D01*
Y516070D01*
X196935D01*
Y515612D01*
X197353D01*
Y516735D01*
X197353Y516735D01*
X197066Y516757D01*
X196508Y516902D01*
X195984Y517143D01*
X195511Y517473D01*
X195103Y517881D01*
X194773Y518354D01*
X194532Y518878D01*
X194387Y519436D01*
X194365Y519724D01*
X195552Y519724D01*
X195552Y519724D01*
X195609Y519430D01*
X195848Y518882D01*
X196233Y518426D01*
X196733Y518099D01*
X197013Y517993D01*
Y519525D01*
X198194D01*
Y517993D01*
X198474Y518099D01*
X198974Y518426D01*
X199359Y518882D01*
X199598Y519430D01*
X199655Y519724D01*
X200842D01*
Y519724D01*
D02*
G37*
G36*
X199138Y509467D02*
X198272D01*
Y509925D01*
X197854D01*
Y508802D01*
X197854D01*
X198141Y508779D01*
X198699Y508634D01*
X199223Y508393D01*
X199696Y508064D01*
X200104Y507656D01*
X200434Y507183D01*
X200675Y506659D01*
X200820Y506101D01*
X200842Y505813D01*
X199655D01*
X199655Y505813D01*
X199598Y506107D01*
X199359Y506654D01*
X198974Y507111D01*
X198474Y507438D01*
X198194Y507544D01*
Y506012D01*
X197013D01*
Y507544D01*
X196733Y507438D01*
X196233Y507111D01*
X195848Y506654D01*
X195609Y506107D01*
X195552Y505813D01*
X194365D01*
X194387Y506101D01*
X194532Y506659D01*
X194773Y507183D01*
X195103Y507656D01*
X195511Y508064D01*
X195984Y508393D01*
X196508Y508634D01*
X197066Y508779D01*
X197353Y508802D01*
X197353Y510425D01*
X198272D01*
Y510884D01*
X199138D01*
Y509467D01*
D02*
G37*
G36*
X200842Y505313D02*
X200820Y505026D01*
X200675Y504467D01*
X200434Y503943D01*
X200104Y503470D01*
X199696Y503062D01*
X199223Y502733D01*
X198699Y502492D01*
X198141Y502347D01*
X197854Y502325D01*
X197854Y500701D01*
X196935D01*
Y500242D01*
X196069D01*
Y501660D01*
X196935D01*
Y501201D01*
X197353D01*
Y502325D01*
X197353Y502325D01*
X197066Y502347D01*
X196508Y502492D01*
X195984Y502733D01*
X195511Y503062D01*
X195103Y503470D01*
X194773Y503943D01*
X194532Y504467D01*
X194387Y505026D01*
X194365Y505313D01*
X195552Y505313D01*
X195552Y505313D01*
X195609Y505019D01*
X195848Y504472D01*
X196233Y504016D01*
X196733Y503688D01*
X197013Y503582D01*
Y505114D01*
X198194D01*
Y503582D01*
X198474Y503688D01*
X198974Y504016D01*
X199359Y504472D01*
X199598Y505019D01*
X199655Y505313D01*
X200842D01*
Y505313D01*
D02*
G37*
G36*
X199138Y495056D02*
X198272D01*
Y495515D01*
X197854D01*
Y494391D01*
X197854D01*
X198141Y494369D01*
X198699Y494224D01*
X199223Y493983D01*
X199696Y493653D01*
X200104Y493246D01*
X200434Y492772D01*
X200675Y492248D01*
X200820Y491690D01*
X200842Y491403D01*
X199655D01*
X199655Y491403D01*
X199598Y491697D01*
X199359Y492244D01*
X198974Y492700D01*
X198474Y493027D01*
X198194Y493133D01*
Y491602D01*
X197013D01*
Y493133D01*
X196733Y493027D01*
X196233Y492700D01*
X195848Y492244D01*
X195609Y491697D01*
X195552Y491403D01*
X194365D01*
X194387Y491690D01*
X194532Y492248D01*
X194773Y492772D01*
X195103Y493246D01*
X195511Y493653D01*
X195984Y493983D01*
X196508Y494224D01*
X197066Y494369D01*
X197353Y494391D01*
X197353Y496015D01*
X198272D01*
Y496473D01*
X199138D01*
Y495056D01*
D02*
G37*
G36*
X200842Y490903D02*
X200820Y490615D01*
X200675Y490057D01*
X200434Y489533D01*
X200104Y489060D01*
X199696Y488652D01*
X199223Y488322D01*
X198699Y488081D01*
X198141Y487936D01*
X197854Y487914D01*
X197854Y486291D01*
X196935D01*
Y485832D01*
X196069D01*
Y487249D01*
X196935D01*
Y486791D01*
X197353D01*
Y487914D01*
X197353Y487914D01*
X197066Y487936D01*
X196508Y488081D01*
X195984Y488322D01*
X195511Y488652D01*
X195103Y489060D01*
X194773Y489533D01*
X194532Y490057D01*
X194387Y490615D01*
X194365Y490903D01*
X195552Y490903D01*
X195552Y490903D01*
X195609Y490609D01*
X195848Y490061D01*
X196233Y489605D01*
X196733Y489278D01*
X197013Y489172D01*
Y490704D01*
X198194D01*
Y489172D01*
X198474Y489278D01*
X198974Y489605D01*
X199359Y490061D01*
X199598Y490609D01*
X199655Y490903D01*
X200842D01*
Y490903D01*
D02*
G37*
G36*
X199138Y480646D02*
X198272D01*
Y481104D01*
X197854D01*
Y479981D01*
X197854D01*
X198141Y479958D01*
X198699Y479813D01*
X199223Y479572D01*
X199696Y479243D01*
X200104Y478835D01*
X200434Y478362D01*
X200675Y477838D01*
X200820Y477280D01*
X200842Y476992D01*
X199655D01*
X199655Y476992D01*
X199598Y477286D01*
X199359Y477833D01*
X198974Y478290D01*
X198474Y478617D01*
X198194Y478723D01*
Y477191D01*
X197013D01*
Y478723D01*
X196733Y478617D01*
X196233Y478290D01*
X195848Y477833D01*
X195609Y477286D01*
X195552Y476992D01*
X194365D01*
X194387Y477280D01*
X194532Y477838D01*
X194773Y478362D01*
X195103Y478835D01*
X195511Y479243D01*
X195984Y479572D01*
X196508Y479813D01*
X197066Y479958D01*
X197353Y479981D01*
X197353Y481604D01*
X198272D01*
Y482063D01*
X199138D01*
Y480646D01*
D02*
G37*
G36*
X200842Y476492D02*
X200820Y476205D01*
X200675Y475646D01*
X200434Y475123D01*
X200104Y474649D01*
X199696Y474242D01*
X199223Y473912D01*
X198699Y473671D01*
X198141Y473526D01*
X197854Y473504D01*
X197854Y471880D01*
X196935D01*
Y471421D01*
X196069D01*
Y472839D01*
X196935D01*
Y472380D01*
X197353D01*
Y473504D01*
X197353Y473504D01*
X197066Y473526D01*
X196508Y473671D01*
X195984Y473912D01*
X195511Y474242D01*
X195103Y474649D01*
X194773Y475123D01*
X194532Y475646D01*
X194387Y476205D01*
X194365Y476492D01*
X195552Y476492D01*
X195552Y476492D01*
X195609Y476198D01*
X195848Y475651D01*
X196233Y475195D01*
X196733Y474867D01*
X197013Y474761D01*
Y476293D01*
X198194D01*
Y474761D01*
X198474Y474867D01*
X198974Y475195D01*
X199359Y475651D01*
X199598Y476198D01*
X199655Y476492D01*
X200842D01*
Y476492D01*
D02*
G37*
G36*
X199138Y466235D02*
X198272D01*
Y466694D01*
X197854D01*
Y465570D01*
X197854D01*
X198141Y465548D01*
X198699Y465403D01*
X199223Y465162D01*
X199696Y464832D01*
X200104Y464425D01*
X200434Y463951D01*
X200675Y463427D01*
X200820Y462869D01*
X200842Y462582D01*
X199655D01*
X199655Y462582D01*
X199598Y462876D01*
X199359Y463423D01*
X198974Y463879D01*
X198474Y464206D01*
X198194Y464313D01*
Y462781D01*
X197013D01*
Y464313D01*
X196733Y464206D01*
X196233Y463879D01*
X195848Y463423D01*
X195609Y462876D01*
X195552Y462582D01*
X194365D01*
X194387Y462869D01*
X194532Y463427D01*
X194773Y463951D01*
X195103Y464425D01*
X195511Y464832D01*
X195984Y465162D01*
X196508Y465403D01*
X197066Y465548D01*
X197353Y465570D01*
X197353Y467194D01*
X198272D01*
Y467653D01*
X199138D01*
Y466235D01*
D02*
G37*
G36*
X200842Y462082D02*
X200820Y461794D01*
X200675Y461236D01*
X200434Y460712D01*
X200104Y460239D01*
X199696Y459831D01*
X199223Y459502D01*
X198699Y459261D01*
X198141Y459116D01*
X197854Y459093D01*
X197854Y457470D01*
X196935D01*
Y457011D01*
X196069D01*
Y458428D01*
X196935D01*
Y457970D01*
X197353D01*
Y459093D01*
X197353Y459093D01*
X197066Y459116D01*
X196508Y459261D01*
X195984Y459502D01*
X195511Y459831D01*
X195103Y460239D01*
X194773Y460712D01*
X194532Y461236D01*
X194387Y461794D01*
X194365Y462082D01*
X195552Y462082D01*
X195552Y462082D01*
X195609Y461788D01*
X195848Y461240D01*
X196233Y460784D01*
X196733Y460457D01*
X197013Y460351D01*
Y461883D01*
X198194D01*
Y460351D01*
X198474Y460457D01*
X198974Y460784D01*
X199359Y461240D01*
X199598Y461788D01*
X199655Y462082D01*
X200842D01*
Y462082D01*
D02*
G37*
G36*
X199138Y451825D02*
X198272D01*
Y452283D01*
X197854D01*
Y451160D01*
X197854D01*
X198141Y451137D01*
X198699Y450992D01*
X199223Y450751D01*
X199696Y450422D01*
X200104Y450014D01*
X200434Y449541D01*
X200675Y449017D01*
X200820Y448459D01*
X200842Y448171D01*
X199655D01*
X199655Y448171D01*
X199598Y448465D01*
X199359Y449013D01*
X198974Y449469D01*
X198474Y449796D01*
X198194Y449902D01*
Y448370D01*
X197013D01*
Y449902D01*
X196733Y449796D01*
X196233Y449469D01*
X195848Y449013D01*
X195609Y448465D01*
X195552Y448171D01*
X194365D01*
X194387Y448459D01*
X194532Y449017D01*
X194773Y449541D01*
X195103Y450014D01*
X195511Y450422D01*
X195984Y450751D01*
X196508Y450992D01*
X197066Y451137D01*
X197353Y451160D01*
X197353Y452783D01*
X198272D01*
Y453242D01*
X199138D01*
Y451825D01*
D02*
G37*
G36*
X200842Y447671D02*
X200820Y447384D01*
X200675Y446826D01*
X200434Y446302D01*
X200104Y445828D01*
X199696Y445421D01*
X199223Y445091D01*
X198699Y444850D01*
X198141Y444705D01*
X197854Y444683D01*
X197854Y443059D01*
X196935D01*
Y442601D01*
X196069D01*
Y444018D01*
X196935D01*
Y443559D01*
X197353D01*
Y444683D01*
X197353Y444683D01*
X197066Y444705D01*
X196508Y444850D01*
X195984Y445091D01*
X195511Y445421D01*
X195103Y445828D01*
X194773Y446302D01*
X194532Y446826D01*
X194387Y447384D01*
X194365Y447671D01*
X195552Y447671D01*
X195552Y447671D01*
X195609Y447377D01*
X195848Y446830D01*
X196233Y446374D01*
X196733Y446047D01*
X197013Y445940D01*
Y447472D01*
X198194D01*
Y445940D01*
X198474Y446047D01*
X198974Y446374D01*
X199359Y446830D01*
X199598Y447377D01*
X199655Y447671D01*
X200842D01*
Y447671D01*
D02*
G37*
G36*
X199138Y437414D02*
X198272D01*
Y437873D01*
X197854D01*
Y436749D01*
X197854D01*
X198141Y436727D01*
X198699Y436582D01*
X199223Y436341D01*
X199696Y436011D01*
X200104Y435604D01*
X200434Y435130D01*
X200675Y434607D01*
X200820Y434048D01*
X200842Y433761D01*
X199655D01*
X199655Y433761D01*
X199598Y434055D01*
X199359Y434602D01*
X198974Y435058D01*
X198474Y435386D01*
X198194Y435492D01*
Y433960D01*
X197013D01*
Y435492D01*
X196733Y435386D01*
X196233Y435058D01*
X195848Y434602D01*
X195609Y434055D01*
X195552Y433761D01*
X194365D01*
X194387Y434048D01*
X194532Y434607D01*
X194773Y435130D01*
X195103Y435604D01*
X195511Y436011D01*
X195984Y436341D01*
X196508Y436582D01*
X197066Y436727D01*
X197353Y436749D01*
X197353Y438373D01*
X198272D01*
Y438832D01*
X199138D01*
Y437414D01*
D02*
G37*
G36*
X200842Y433261D02*
X200820Y432973D01*
X200675Y432415D01*
X200434Y431891D01*
X200104Y431418D01*
X199696Y431010D01*
X199223Y430681D01*
X198699Y430440D01*
X198141Y430295D01*
X197854Y430272D01*
X197854Y428649D01*
X196935D01*
Y428190D01*
X196069D01*
Y429607D01*
X196935D01*
Y429149D01*
X197353D01*
Y430272D01*
X197353Y430272D01*
X197066Y430295D01*
X196508Y430440D01*
X195984Y430681D01*
X195511Y431010D01*
X195103Y431418D01*
X194773Y431891D01*
X194532Y432415D01*
X194387Y432973D01*
X194365Y433261D01*
X195552Y433261D01*
X195552Y433261D01*
X195609Y432967D01*
X195848Y432420D01*
X196233Y431963D01*
X196733Y431636D01*
X197013Y431530D01*
Y433062D01*
X198194D01*
Y431530D01*
X198474Y431636D01*
X198974Y431963D01*
X199359Y432420D01*
X199598Y432967D01*
X199655Y433261D01*
X200842D01*
Y433261D01*
D02*
G37*
G36*
X199138Y423004D02*
X198272D01*
Y423462D01*
X197854D01*
Y422339D01*
X197854D01*
X198141Y422317D01*
X198699Y422172D01*
X199223Y421931D01*
X199696Y421601D01*
X200104Y421193D01*
X200434Y420720D01*
X200675Y420196D01*
X200820Y419638D01*
X200842Y419350D01*
X199655D01*
X199655Y419350D01*
X199598Y419644D01*
X199359Y420192D01*
X198974Y420648D01*
X198474Y420975D01*
X198194Y421081D01*
Y419549D01*
X197013D01*
Y421081D01*
X196733Y420975D01*
X196233Y420648D01*
X195848Y420192D01*
X195609Y419644D01*
X195552Y419350D01*
X194365D01*
X194387Y419638D01*
X194532Y420196D01*
X194773Y420720D01*
X195103Y421193D01*
X195511Y421601D01*
X195984Y421931D01*
X196508Y422172D01*
X197066Y422317D01*
X197353Y422339D01*
X197353Y423962D01*
X198272D01*
Y424421D01*
X199138D01*
Y423004D01*
D02*
G37*
G36*
X200842Y418850D02*
X200820Y418563D01*
X200675Y418005D01*
X200434Y417481D01*
X200104Y417007D01*
X199696Y416600D01*
X199223Y416270D01*
X198699Y416029D01*
X198141Y415884D01*
X197854Y415862D01*
X197854Y414238D01*
X196935D01*
Y413780D01*
X196069D01*
Y415197D01*
X196935D01*
Y414738D01*
X197353D01*
Y415862D01*
X197353Y415862D01*
X197066Y415884D01*
X196508Y416029D01*
X195984Y416270D01*
X195511Y416600D01*
X195103Y417007D01*
X194773Y417481D01*
X194532Y418005D01*
X194387Y418563D01*
X194365Y418850D01*
X195552Y418850D01*
X195552Y418850D01*
X195609Y418557D01*
X195848Y418009D01*
X196233Y417553D01*
X196733Y417226D01*
X197013Y417120D01*
Y418652D01*
X198194D01*
Y417120D01*
X198474Y417226D01*
X198974Y417553D01*
X199359Y418009D01*
X199598Y418557D01*
X199655Y418850D01*
X200842D01*
Y418850D01*
D02*
G37*
G36*
X199138Y408593D02*
X198272D01*
Y409052D01*
X197854D01*
Y407928D01*
X197854D01*
X198141Y407906D01*
X198699Y407761D01*
X199223Y407520D01*
X199696Y407191D01*
X200104Y406783D01*
X200434Y406310D01*
X200675Y405786D01*
X200820Y405227D01*
X200842Y404940D01*
X199655D01*
X199655Y404940D01*
X199598Y405234D01*
X199359Y405781D01*
X198974Y406237D01*
X198474Y406565D01*
X198194Y406671D01*
Y405139D01*
X197013D01*
Y406671D01*
X196733Y406565D01*
X196233Y406237D01*
X195848Y405781D01*
X195609Y405234D01*
X195552Y404940D01*
X194365D01*
X194387Y405227D01*
X194532Y405786D01*
X194773Y406310D01*
X195103Y406783D01*
X195511Y407191D01*
X195984Y407520D01*
X196508Y407761D01*
X197066Y407906D01*
X197353Y407928D01*
X197353Y409552D01*
X198272D01*
Y410011D01*
X199138D01*
Y408593D01*
D02*
G37*
G36*
X200842Y404440D02*
X200820Y404152D01*
X200675Y403594D01*
X200434Y403070D01*
X200104Y402597D01*
X199696Y402189D01*
X199223Y401860D01*
X198699Y401619D01*
X198141Y401474D01*
X197854Y401451D01*
X197854Y399828D01*
X196935D01*
Y399369D01*
X196069D01*
Y400786D01*
X196935D01*
Y400328D01*
X197353D01*
Y401451D01*
X197353Y401451D01*
X197066Y401474D01*
X196508Y401619D01*
X195984Y401860D01*
X195511Y402189D01*
X195103Y402597D01*
X194773Y403070D01*
X194532Y403594D01*
X194387Y404152D01*
X194365Y404440D01*
X195552Y404440D01*
X195552Y404440D01*
X195609Y404146D01*
X195848Y403599D01*
X196233Y403142D01*
X196733Y402815D01*
X197013Y402709D01*
Y404241D01*
X198194D01*
Y402709D01*
X198474Y402815D01*
X198974Y403142D01*
X199359Y403599D01*
X199598Y404146D01*
X199655Y404440D01*
X200842D01*
Y404440D01*
D02*
G37*
G36*
X199138Y394183D02*
X198272D01*
Y394641D01*
X197854D01*
Y393518D01*
X197854D01*
X198141Y393496D01*
X198699Y393351D01*
X199223Y393110D01*
X199696Y392780D01*
X200104Y392372D01*
X200434Y391899D01*
X200675Y391375D01*
X200820Y390817D01*
X200842Y390529D01*
X199655D01*
X199655Y390529D01*
X199598Y390823D01*
X199359Y391371D01*
X198974Y391827D01*
X198474Y392154D01*
X198194Y392260D01*
Y390728D01*
X197013D01*
Y392260D01*
X196733Y392154D01*
X196233Y391827D01*
X195848Y391371D01*
X195609Y390823D01*
X195552Y390529D01*
X194365D01*
X194387Y390817D01*
X194532Y391375D01*
X194773Y391899D01*
X195103Y392372D01*
X195511Y392780D01*
X195984Y393110D01*
X196508Y393351D01*
X197066Y393496D01*
X197353Y393518D01*
X197353Y395142D01*
X198272D01*
Y395600D01*
X199138D01*
Y394183D01*
D02*
G37*
G36*
X200842Y390029D02*
X200820Y389742D01*
X200675Y389184D01*
X200434Y388660D01*
X200104Y388187D01*
X199696Y387779D01*
X199223Y387449D01*
X198699Y387208D01*
X198141Y387063D01*
X197854Y387041D01*
X197854Y385417D01*
X196935D01*
Y384959D01*
X196069D01*
Y386376D01*
X196935D01*
Y385917D01*
X197353D01*
Y387041D01*
X197353Y387041D01*
X197066Y387063D01*
X196508Y387208D01*
X195984Y387449D01*
X195511Y387779D01*
X195103Y388187D01*
X194773Y388660D01*
X194532Y389184D01*
X194387Y389742D01*
X194365Y390029D01*
X195552Y390029D01*
X195552Y390029D01*
X195609Y389736D01*
X195848Y389188D01*
X196233Y388732D01*
X196733Y388405D01*
X197013Y388299D01*
Y389831D01*
X198194D01*
Y388299D01*
X198474Y388405D01*
X198974Y388732D01*
X199359Y389188D01*
X199598Y389736D01*
X199655Y390029D01*
X200842D01*
Y390029D01*
D02*
G37*
G36*
X199138Y379772D02*
X198272D01*
Y380231D01*
X197854D01*
Y379107D01*
X197854D01*
X198141Y379085D01*
X198699Y378940D01*
X199223Y378699D01*
X199696Y378370D01*
X200104Y377962D01*
X200434Y377489D01*
X200675Y376965D01*
X200820Y376407D01*
X200842Y376119D01*
X199655D01*
X199655Y376119D01*
X199598Y376413D01*
X199359Y376960D01*
X198974Y377416D01*
X198474Y377744D01*
X198194Y377850D01*
Y376318D01*
X197013D01*
Y377850D01*
X196733Y377744D01*
X196233Y377416D01*
X195848Y376960D01*
X195609Y376413D01*
X195552Y376119D01*
X194365D01*
X194387Y376407D01*
X194532Y376965D01*
X194773Y377489D01*
X195103Y377962D01*
X195511Y378370D01*
X195984Y378699D01*
X196508Y378940D01*
X197066Y379085D01*
X197353Y379107D01*
X197353Y380731D01*
X198272D01*
Y381190D01*
X199138D01*
Y379772D01*
D02*
G37*
G36*
X200842Y375619D02*
X200820Y375331D01*
X200675Y374773D01*
X200434Y374249D01*
X200104Y373776D01*
X199696Y373368D01*
X199223Y373039D01*
X198699Y372798D01*
X198141Y372653D01*
X197854Y372631D01*
X197854Y371007D01*
X196935D01*
Y370548D01*
X196069D01*
Y371966D01*
X196935D01*
Y371507D01*
X197353D01*
Y372631D01*
X197353Y372631D01*
X197066Y372653D01*
X196508Y372798D01*
X195984Y373039D01*
X195511Y373368D01*
X195103Y373776D01*
X194773Y374249D01*
X194532Y374773D01*
X194387Y375331D01*
X194365Y375619D01*
X195552Y375619D01*
X195552Y375619D01*
X195609Y375325D01*
X195848Y374778D01*
X196233Y374321D01*
X196733Y373994D01*
X197013Y373888D01*
Y375420D01*
X198194D01*
Y373888D01*
X198474Y373994D01*
X198974Y374322D01*
X199359Y374778D01*
X199598Y375325D01*
X199655Y375619D01*
X200842D01*
Y375619D01*
D02*
G37*
G36*
X199138Y365362D02*
X198272D01*
Y365821D01*
X197854D01*
Y364697D01*
X197854D01*
X198141Y364675D01*
X198699Y364530D01*
X199223Y364289D01*
X199696Y363959D01*
X200104Y363551D01*
X200434Y363078D01*
X200675Y362554D01*
X200820Y361996D01*
X200842Y361708D01*
X199655D01*
X199655Y361708D01*
X199598Y362002D01*
X199359Y362550D01*
X198974Y363006D01*
X198474Y363333D01*
X198194Y363439D01*
Y361907D01*
X197013D01*
Y363439D01*
X196733Y363333D01*
X196233Y363006D01*
X195848Y362550D01*
X195609Y362002D01*
X195552Y361708D01*
X194365D01*
X194387Y361996D01*
X194532Y362554D01*
X194773Y363078D01*
X195103Y363551D01*
X195511Y363959D01*
X195984Y364289D01*
X196508Y364530D01*
X197066Y364675D01*
X197353Y364697D01*
X197353Y366321D01*
X198272D01*
Y366779D01*
X199138D01*
Y365362D01*
D02*
G37*
G36*
X200842Y361209D02*
X200820Y360921D01*
X200675Y360363D01*
X200434Y359839D01*
X200104Y359366D01*
X199696Y358958D01*
X199223Y358628D01*
X198699Y358387D01*
X198141Y358242D01*
X197854Y358220D01*
X197854Y356596D01*
X196935D01*
Y356138D01*
X196069D01*
Y357555D01*
X196935D01*
Y357097D01*
X197353D01*
Y358220D01*
X197353Y358220D01*
X197066Y358242D01*
X196508Y358387D01*
X195984Y358628D01*
X195511Y358958D01*
X195103Y359366D01*
X194773Y359839D01*
X194532Y360363D01*
X194387Y360921D01*
X194365Y361209D01*
X195552Y361209D01*
X195552Y361209D01*
X195609Y360915D01*
X195848Y360367D01*
X196233Y359911D01*
X196733Y359584D01*
X197013Y359478D01*
Y361010D01*
X198194D01*
Y359478D01*
X198474Y359584D01*
X198974Y359911D01*
X199359Y360367D01*
X199598Y360915D01*
X199655Y361209D01*
X200842D01*
Y361209D01*
D02*
G37*
G36*
X199138Y350952D02*
X198272D01*
Y351410D01*
X197854D01*
Y350287D01*
X197854D01*
X198141Y350264D01*
X198699Y350119D01*
X199223Y349878D01*
X199696Y349549D01*
X200104Y349141D01*
X200434Y348668D01*
X200675Y348144D01*
X200820Y347586D01*
X200842Y347298D01*
X199655D01*
X199655Y347298D01*
X199598Y347592D01*
X199359Y348139D01*
X198974Y348596D01*
X198474Y348923D01*
X198194Y349029D01*
Y347497D01*
X197013D01*
Y349029D01*
X196733Y348923D01*
X196233Y348596D01*
X195848Y348139D01*
X195609Y347592D01*
X195552Y347298D01*
X194365D01*
X194387Y347586D01*
X194532Y348144D01*
X194773Y348668D01*
X195103Y349141D01*
X195511Y349549D01*
X195984Y349878D01*
X196508Y350119D01*
X197066Y350264D01*
X197353Y350287D01*
X197353Y351910D01*
X198272D01*
Y352369D01*
X199138D01*
Y350952D01*
D02*
G37*
G36*
X200842Y346798D02*
X200820Y346511D01*
X200675Y345952D01*
X200434Y345428D01*
X200104Y344955D01*
X199696Y344548D01*
X199223Y344218D01*
X198699Y343977D01*
X198141Y343832D01*
X197854Y343810D01*
X197854Y342186D01*
X196935D01*
Y341727D01*
X196069D01*
Y343145D01*
X196935D01*
Y342686D01*
X197353D01*
Y343810D01*
X197353Y343810D01*
X197066Y343832D01*
X196508Y343977D01*
X195984Y344218D01*
X195511Y344548D01*
X195103Y344955D01*
X194773Y345428D01*
X194532Y345952D01*
X194387Y346511D01*
X194365Y346798D01*
X195552Y346798D01*
X195552Y346798D01*
X195609Y346504D01*
X195848Y345957D01*
X196233Y345500D01*
X196733Y345173D01*
X197013Y345067D01*
Y346599D01*
X198194D01*
Y345067D01*
X198474Y345173D01*
X198974Y345500D01*
X199359Y345957D01*
X199598Y346504D01*
X199655Y346798D01*
X200842D01*
Y346798D01*
D02*
G37*
G36*
X199138Y336541D02*
X198272D01*
Y337000D01*
X197854D01*
Y335876D01*
X197854D01*
X198141Y335854D01*
X198699Y335709D01*
X199223Y335468D01*
X199696Y335138D01*
X200104Y334730D01*
X200434Y334257D01*
X200675Y333733D01*
X200820Y333175D01*
X200842Y332888D01*
X199655D01*
X199655Y332888D01*
X199598Y333181D01*
X199359Y333729D01*
X198974Y334185D01*
X198474Y334512D01*
X198194Y334618D01*
Y333086D01*
X197013D01*
Y334618D01*
X196733Y334512D01*
X196233Y334185D01*
X195848Y333729D01*
X195609Y333181D01*
X195552Y332888D01*
X194365D01*
X194387Y333175D01*
X194532Y333733D01*
X194773Y334257D01*
X195103Y334730D01*
X195511Y335138D01*
X195984Y335468D01*
X196508Y335709D01*
X197066Y335854D01*
X197353Y335876D01*
X197353Y337500D01*
X198272D01*
Y337958D01*
X199138D01*
Y336541D01*
D02*
G37*
G36*
X200842Y332388D02*
X200820Y332100D01*
X200675Y331542D01*
X200434Y331018D01*
X200104Y330545D01*
X199696Y330137D01*
X199223Y329807D01*
X198699Y329566D01*
X198141Y329421D01*
X197854Y329399D01*
X197854Y327776D01*
X196935D01*
Y327317D01*
X196069D01*
Y328734D01*
X196935D01*
Y328276D01*
X197353D01*
Y329399D01*
X197353Y329399D01*
X197066Y329421D01*
X196508Y329566D01*
X195984Y329807D01*
X195511Y330137D01*
X195103Y330545D01*
X194773Y331018D01*
X194532Y331542D01*
X194387Y332100D01*
X194365Y332388D01*
X195552Y332388D01*
X195552Y332388D01*
X195609Y332094D01*
X195848Y331546D01*
X196233Y331090D01*
X196733Y330763D01*
X197013Y330657D01*
Y332189D01*
X198194D01*
Y330657D01*
X198474Y330763D01*
X198974Y331090D01*
X199359Y331546D01*
X199598Y332094D01*
X199655Y332388D01*
X200842D01*
Y332388D01*
D02*
G37*
G36*
X199138Y322130D02*
X198272D01*
Y322589D01*
X197854D01*
Y321465D01*
X197854D01*
X198141Y321443D01*
X198699Y321298D01*
X199223Y321057D01*
X199696Y320728D01*
X200104Y320320D01*
X200434Y319847D01*
X200675Y319323D01*
X200820Y318765D01*
X200842Y318477D01*
X199655D01*
X199655Y318477D01*
X199598Y318771D01*
X199359Y319318D01*
X198974Y319775D01*
X198474Y320102D01*
X198194Y320208D01*
Y318676D01*
X197013D01*
Y320208D01*
X196733Y320102D01*
X196233Y319775D01*
X195848Y319318D01*
X195609Y318771D01*
X195552Y318477D01*
X194365D01*
X194387Y318765D01*
X194532Y319323D01*
X194773Y319847D01*
X195103Y320320D01*
X195511Y320728D01*
X195984Y321057D01*
X196508Y321298D01*
X197066Y321443D01*
X197353Y321465D01*
X197353Y323089D01*
X198272D01*
Y323548D01*
X199138D01*
Y322130D01*
D02*
G37*
G36*
X200842Y317977D02*
X200820Y317690D01*
X200675Y317131D01*
X200434Y316608D01*
X200104Y316134D01*
X199696Y315726D01*
X199223Y315397D01*
X198699Y315156D01*
X198141Y315011D01*
X197854Y314989D01*
X197854Y313365D01*
X196935D01*
Y312906D01*
X196069D01*
Y314324D01*
X196935D01*
Y313865D01*
X197353D01*
Y314989D01*
X197353Y314989D01*
X197066Y315011D01*
X196508Y315156D01*
X195984Y315397D01*
X195511Y315726D01*
X195103Y316134D01*
X194773Y316608D01*
X194532Y317131D01*
X194387Y317690D01*
X194365Y317977D01*
X195552Y317977D01*
X195552Y317977D01*
X195609Y317683D01*
X195848Y317136D01*
X196233Y316680D01*
X196733Y316353D01*
X197013Y316246D01*
Y317778D01*
X198194D01*
Y316246D01*
X198474Y316353D01*
X198974Y316680D01*
X199359Y317136D01*
X199598Y317683D01*
X199655Y317977D01*
X200842D01*
Y317977D01*
D02*
G37*
G36*
X199138Y307720D02*
X198272D01*
Y308179D01*
X197854D01*
Y307055D01*
X197854D01*
X198141Y307033D01*
X198699Y306888D01*
X199223Y306647D01*
X199696Y306317D01*
X200104Y305909D01*
X200434Y305436D01*
X200675Y304912D01*
X200820Y304354D01*
X200842Y304067D01*
X199655D01*
X199655Y304067D01*
X199598Y304361D01*
X199359Y304908D01*
X198974Y305364D01*
X198474Y305691D01*
X198194Y305797D01*
Y304265D01*
X197013D01*
Y305798D01*
X196733Y305691D01*
X196233Y305364D01*
X195848Y304908D01*
X195609Y304361D01*
X195552Y304067D01*
X194365D01*
X194387Y304354D01*
X194532Y304912D01*
X194773Y305436D01*
X195103Y305909D01*
X195511Y306317D01*
X195984Y306647D01*
X196508Y306888D01*
X197066Y307033D01*
X197353Y307055D01*
X197353Y308679D01*
X198272D01*
Y309137D01*
X199138D01*
Y307720D01*
D02*
G37*
G36*
X200842Y303567D02*
X200820Y303279D01*
X200675Y302721D01*
X200434Y302197D01*
X200104Y301724D01*
X199696Y301316D01*
X199223Y300987D01*
X198699Y300746D01*
X198141Y300601D01*
X197854Y300578D01*
X197854Y298955D01*
X196935D01*
Y298496D01*
X196069D01*
Y299913D01*
X196935D01*
Y299455D01*
X197353D01*
Y300578D01*
X197353Y300578D01*
X197066Y300601D01*
X196508Y300746D01*
X195984Y300987D01*
X195511Y301316D01*
X195103Y301724D01*
X194773Y302197D01*
X194532Y302721D01*
X194387Y303279D01*
X194365Y303567D01*
X195552Y303567D01*
X195552Y303567D01*
X195609Y303273D01*
X195848Y302726D01*
X196233Y302269D01*
X196733Y301942D01*
X197013Y301836D01*
Y303368D01*
X198194D01*
Y301836D01*
X198474Y301942D01*
X198974Y302269D01*
X199359Y302726D01*
X199598Y303273D01*
X199655Y303567D01*
X200842D01*
Y303567D01*
D02*
G37*
G36*
X199138Y293310D02*
X198272D01*
Y293768D01*
X197854D01*
Y292645D01*
X197854D01*
X198141Y292622D01*
X198699Y292477D01*
X199223Y292236D01*
X199696Y291907D01*
X200104Y291499D01*
X200434Y291026D01*
X200675Y290502D01*
X200820Y289944D01*
X200842Y289656D01*
X199655D01*
X199655Y289656D01*
X199598Y289950D01*
X199359Y290497D01*
X198974Y290954D01*
X198474Y291281D01*
X198194Y291387D01*
Y289855D01*
X197013D01*
Y291387D01*
X196733Y291281D01*
X196233Y290954D01*
X195848Y290497D01*
X195609Y289950D01*
X195552Y289656D01*
X194365D01*
X194387Y289944D01*
X194532Y290502D01*
X194773Y291026D01*
X195103Y291499D01*
X195511Y291907D01*
X195984Y292236D01*
X196508Y292477D01*
X197066Y292622D01*
X197353Y292645D01*
X197353Y294268D01*
X198272D01*
Y294727D01*
X199138D01*
Y293310D01*
D02*
G37*
G36*
X200842Y289156D02*
X200820Y288869D01*
X200675Y288311D01*
X200434Y287787D01*
X200104Y287313D01*
X199696Y286906D01*
X199223Y286576D01*
X198699Y286335D01*
X198141Y286190D01*
X197854Y286168D01*
X197854Y284544D01*
X196935D01*
Y284085D01*
X196069D01*
Y285503D01*
X196935D01*
Y285044D01*
X197353D01*
Y286168D01*
X197353Y286168D01*
X197066Y286190D01*
X196508Y286335D01*
X195984Y286576D01*
X195511Y286906D01*
X195103Y287313D01*
X194773Y287787D01*
X194532Y288311D01*
X194387Y288869D01*
X194365Y289156D01*
X195552Y289156D01*
X195552Y289156D01*
X195609Y288862D01*
X195848Y288315D01*
X196233Y287859D01*
X196733Y287532D01*
X197013Y287425D01*
Y288957D01*
X198194D01*
Y287425D01*
X198474Y287532D01*
X198974Y287859D01*
X199359Y288315D01*
X199598Y288862D01*
X199655Y289156D01*
X200842D01*
Y289156D01*
D02*
G37*
G36*
X199138Y278899D02*
X198272D01*
Y279358D01*
X197854D01*
Y278234D01*
X197854D01*
X198141Y278212D01*
X198699Y278067D01*
X199223Y277826D01*
X199696Y277496D01*
X200104Y277089D01*
X200434Y276615D01*
X200675Y276091D01*
X200820Y275533D01*
X200842Y275246D01*
X199655D01*
X199655Y275246D01*
X199598Y275540D01*
X199359Y276087D01*
X198974Y276543D01*
X198474Y276870D01*
X198194Y276976D01*
Y275445D01*
X197013D01*
Y276976D01*
X196733Y276870D01*
X196233Y276543D01*
X195848Y276087D01*
X195609Y275540D01*
X195552Y275246D01*
X194365D01*
X194387Y275533D01*
X194532Y276091D01*
X194773Y276615D01*
X195103Y277089D01*
X195511Y277496D01*
X195984Y277826D01*
X196508Y278067D01*
X197066Y278212D01*
X197353Y278234D01*
X197353Y279858D01*
X198272D01*
Y280316D01*
X199138D01*
Y278899D01*
D02*
G37*
G36*
X200842Y274746D02*
X200820Y274458D01*
X200675Y273900D01*
X200434Y273376D01*
X200104Y272903D01*
X199696Y272495D01*
X199223Y272166D01*
X198699Y271924D01*
X198141Y271780D01*
X197854Y271757D01*
X197854Y270134D01*
X196935D01*
Y269675D01*
X196069D01*
Y271092D01*
X196935D01*
Y270634D01*
X197353D01*
Y271757D01*
X197353Y271757D01*
X197066Y271780D01*
X196508Y271924D01*
X195984Y272166D01*
X195511Y272495D01*
X195103Y272903D01*
X194773Y273376D01*
X194532Y273900D01*
X194387Y274458D01*
X194365Y274746D01*
X195552Y274746D01*
X195552Y274746D01*
X195609Y274452D01*
X195848Y273905D01*
X196233Y273448D01*
X196733Y273121D01*
X197013Y273015D01*
Y274547D01*
X198194D01*
Y273015D01*
X198474Y273121D01*
X198974Y273448D01*
X199359Y273905D01*
X199598Y274452D01*
X199655Y274746D01*
X200842D01*
Y274746D01*
D02*
G37*
G36*
X199138Y264489D02*
X198272D01*
Y264947D01*
X197854D01*
Y263824D01*
X197854D01*
X198141Y263802D01*
X198699Y263656D01*
X199223Y263416D01*
X199696Y263086D01*
X200104Y262678D01*
X200434Y262205D01*
X200675Y261681D01*
X200820Y261123D01*
X200842Y260835D01*
X199655D01*
X199655Y260835D01*
X199598Y261129D01*
X199359Y261677D01*
X198974Y262133D01*
X198474Y262460D01*
X198194Y262566D01*
Y261034D01*
X197013D01*
Y262566D01*
X196733Y262460D01*
X196233Y262133D01*
X195848Y261677D01*
X195609Y261129D01*
X195552Y260835D01*
X194365D01*
X194387Y261123D01*
X194532Y261681D01*
X194773Y262205D01*
X195103Y262678D01*
X195511Y263086D01*
X195984Y263416D01*
X196508Y263656D01*
X197066Y263802D01*
X197353Y263824D01*
X197353Y265447D01*
X198272D01*
Y265906D01*
X199138D01*
Y264489D01*
D02*
G37*
G36*
X200842Y260335D02*
X200820Y260048D01*
X200675Y259490D01*
X200434Y258966D01*
X200104Y258492D01*
X199696Y258085D01*
X199223Y257755D01*
X198699Y257514D01*
X198141Y257369D01*
X197854Y257347D01*
X197854Y255723D01*
X196935D01*
Y255265D01*
X196069D01*
Y256682D01*
X196935D01*
Y256223D01*
X197353D01*
Y257347D01*
X197353Y257347D01*
X197066Y257369D01*
X196508Y257514D01*
X195984Y257755D01*
X195511Y258085D01*
X195103Y258492D01*
X194773Y258966D01*
X194532Y259490D01*
X194387Y260048D01*
X194365Y260335D01*
X195552Y260335D01*
X195552Y260335D01*
X195609Y260041D01*
X195848Y259494D01*
X196233Y259038D01*
X196733Y258711D01*
X197013Y258605D01*
Y260137D01*
X198194D01*
Y258605D01*
X198474Y258711D01*
X198974Y259038D01*
X199359Y259494D01*
X199598Y260041D01*
X199655Y260335D01*
X200842D01*
Y260335D01*
D02*
G37*
G36*
X199138Y250078D02*
X198272D01*
Y250537D01*
X197854D01*
Y249413D01*
X197854D01*
X198141Y249391D01*
X198699Y249246D01*
X199223Y249005D01*
X199696Y248675D01*
X200104Y248268D01*
X200434Y247794D01*
X200675Y247270D01*
X200820Y246712D01*
X200842Y246425D01*
X199655D01*
X199655Y246425D01*
X199598Y246719D01*
X199359Y247266D01*
X198974Y247722D01*
X198474Y248049D01*
X198194Y248156D01*
Y246624D01*
X197013D01*
Y248156D01*
X196733Y248049D01*
X196233Y247722D01*
X195848Y247266D01*
X195609Y246719D01*
X195552Y246425D01*
X194365D01*
X194387Y246712D01*
X194532Y247270D01*
X194773Y247794D01*
X195103Y248268D01*
X195511Y248675D01*
X195984Y249005D01*
X196508Y249246D01*
X197066Y249391D01*
X197353Y249413D01*
X197353Y251037D01*
X198272D01*
Y251496D01*
X199138D01*
Y250078D01*
D02*
G37*
G36*
X200842Y245925D02*
X200820Y245637D01*
X200675Y245079D01*
X200434Y244555D01*
X200104Y244082D01*
X199696Y243674D01*
X199223Y243345D01*
X198699Y243104D01*
X198141Y242959D01*
X197854Y242936D01*
X197854Y241313D01*
X196935D01*
Y240854D01*
X196069D01*
Y242271D01*
X196935D01*
Y241813D01*
X197353D01*
Y242936D01*
X197353Y242936D01*
X197066Y242959D01*
X196508Y243104D01*
X195984Y243345D01*
X195511Y243674D01*
X195103Y244082D01*
X194773Y244555D01*
X194532Y245079D01*
X194387Y245637D01*
X194365Y245925D01*
X195552Y245925D01*
X195552Y245925D01*
X195609Y245631D01*
X195848Y245084D01*
X196233Y244627D01*
X196733Y244300D01*
X197013Y244194D01*
Y245726D01*
X198194D01*
Y244194D01*
X198474Y244300D01*
X198974Y244627D01*
X199359Y245084D01*
X199598Y245631D01*
X199655Y245925D01*
X200842D01*
Y245925D01*
D02*
G37*
G36*
X199138Y235668D02*
X198272D01*
Y236126D01*
X197854D01*
Y235003D01*
X197854D01*
X198141Y234981D01*
X198699Y234836D01*
X199223Y234595D01*
X199696Y234265D01*
X200104Y233857D01*
X200434Y233384D01*
X200675Y232860D01*
X200820Y232302D01*
X200842Y232014D01*
X199655D01*
X199655Y232014D01*
X199598Y232308D01*
X199359Y232856D01*
X198974Y233312D01*
X198474Y233639D01*
X198194Y233745D01*
Y232213D01*
X197013D01*
Y233745D01*
X196733Y233639D01*
X196233Y233312D01*
X195848Y232856D01*
X195609Y232308D01*
X195552Y232014D01*
X194365D01*
X194387Y232302D01*
X194532Y232860D01*
X194773Y233384D01*
X195103Y233857D01*
X195511Y234265D01*
X195984Y234595D01*
X196508Y234836D01*
X197066Y234981D01*
X197353Y235003D01*
X197353Y236627D01*
X198272D01*
Y237085D01*
X199138D01*
Y235668D01*
D02*
G37*
G36*
X200842Y231514D02*
X200820Y231227D01*
X200675Y230669D01*
X200434Y230145D01*
X200104Y229672D01*
X199696Y229264D01*
X199223Y228934D01*
X198699Y228693D01*
X198141Y228548D01*
X197854Y228526D01*
X197854Y226902D01*
X196935D01*
Y226444D01*
X196069D01*
Y227861D01*
X196935D01*
Y227402D01*
X197353D01*
Y228526D01*
X197353Y228526D01*
X197066Y228548D01*
X196508Y228693D01*
X195984Y228934D01*
X195511Y229264D01*
X195103Y229672D01*
X194773Y230145D01*
X194532Y230669D01*
X194387Y231227D01*
X194365Y231514D01*
X195552Y231514D01*
X195552Y231514D01*
X195609Y231221D01*
X195848Y230673D01*
X196233Y230217D01*
X196733Y229890D01*
X197013Y229784D01*
Y231316D01*
X198194D01*
Y229784D01*
X198474Y229890D01*
X198974Y230217D01*
X199359Y230673D01*
X199598Y231221D01*
X199655Y231514D01*
X200842D01*
Y231514D01*
D02*
G37*
G36*
X199138Y221257D02*
X198272D01*
Y221716D01*
X197854D01*
Y220592D01*
X197854D01*
X198141Y220570D01*
X198699Y220425D01*
X199223Y220184D01*
X199696Y219854D01*
X200104Y219447D01*
X200434Y218973D01*
X200675Y218450D01*
X200820Y217891D01*
X200842Y217604D01*
X199655D01*
X199655Y217604D01*
X199598Y217898D01*
X199359Y218445D01*
X198974Y218901D01*
X198474Y219229D01*
X198194Y219335D01*
Y217803D01*
X197013D01*
Y219335D01*
X196733Y219229D01*
X196233Y218901D01*
X195848Y218445D01*
X195609Y217898D01*
X195552Y217604D01*
X194365D01*
X194387Y217891D01*
X194532Y218450D01*
X194773Y218973D01*
X195103Y219447D01*
X195511Y219854D01*
X195984Y220184D01*
X196508Y220425D01*
X197066Y220570D01*
X197353Y220592D01*
X197353Y222216D01*
X198272D01*
Y222675D01*
X199138D01*
Y221257D01*
D02*
G37*
G36*
X200842Y217104D02*
X200820Y216816D01*
X200675Y216258D01*
X200434Y215734D01*
X200104Y215261D01*
X199696Y214853D01*
X199223Y214524D01*
X198699Y214283D01*
X198141Y214138D01*
X197854Y214116D01*
X197854Y212492D01*
X196935D01*
Y212033D01*
X196069D01*
Y213451D01*
X196935D01*
Y212992D01*
X197353D01*
Y214116D01*
X197353Y214116D01*
X197066Y214138D01*
X196508Y214283D01*
X195984Y214524D01*
X195511Y214853D01*
X195103Y215261D01*
X194773Y215734D01*
X194532Y216258D01*
X194387Y216816D01*
X194365Y217104D01*
X195552Y217104D01*
X195552Y217104D01*
X195609Y216810D01*
X195848Y216263D01*
X196233Y215806D01*
X196733Y215479D01*
X197013Y215373D01*
Y216905D01*
X198194D01*
Y215373D01*
X198474Y215479D01*
X198974Y215806D01*
X199359Y216263D01*
X199598Y216810D01*
X199655Y217104D01*
X200842D01*
Y217104D01*
D02*
G37*
G36*
X199138Y206847D02*
X198272D01*
Y207306D01*
X197854D01*
Y206182D01*
X197854D01*
X198141Y206160D01*
X198699Y206015D01*
X199223Y205774D01*
X199696Y205444D01*
X200104Y205036D01*
X200434Y204563D01*
X200675Y204039D01*
X200820Y203481D01*
X200842Y203193D01*
X199655D01*
X199655Y203193D01*
X199598Y203487D01*
X199359Y204035D01*
X198974Y204491D01*
X198474Y204818D01*
X198194Y204924D01*
Y203392D01*
X197013D01*
Y204924D01*
X196733Y204818D01*
X196233Y204491D01*
X195848Y204035D01*
X195609Y203487D01*
X195552Y203193D01*
X194365D01*
X194387Y203481D01*
X194532Y204039D01*
X194773Y204563D01*
X195103Y205036D01*
X195511Y205444D01*
X195984Y205774D01*
X196508Y206015D01*
X197066Y206160D01*
X197353Y206182D01*
X197353Y207805D01*
X198272D01*
Y208264D01*
X199138D01*
Y206847D01*
D02*
G37*
G36*
X200842Y202694D02*
X200820Y202406D01*
X200675Y201848D01*
X200434Y201324D01*
X200104Y200851D01*
X199696Y200443D01*
X199223Y200113D01*
X198699Y199872D01*
X198141Y199727D01*
X197854Y199705D01*
X197854Y198081D01*
X196935D01*
Y197623D01*
X196069D01*
Y199040D01*
X196935D01*
Y198581D01*
X197353D01*
Y199705D01*
X197353Y199705D01*
X197066Y199727D01*
X196508Y199872D01*
X195984Y200113D01*
X195511Y200443D01*
X195103Y200851D01*
X194773Y201324D01*
X194532Y201848D01*
X194387Y202406D01*
X194365Y202694D01*
X195552Y202694D01*
X195552Y202694D01*
X195609Y202400D01*
X195848Y201852D01*
X196233Y201396D01*
X196733Y201069D01*
X197013Y200963D01*
Y202495D01*
X198194D01*
Y200963D01*
X198474Y201069D01*
X198974Y201396D01*
X199359Y201852D01*
X199598Y202400D01*
X199655Y202694D01*
X200842D01*
Y202694D01*
D02*
G37*
G36*
X199138Y192436D02*
X198272D01*
Y192895D01*
X197854D01*
Y191771D01*
X197854D01*
X198141Y191749D01*
X198699Y191604D01*
X199223Y191363D01*
X199696Y191034D01*
X200104Y190626D01*
X200434Y190153D01*
X200675Y189629D01*
X200820Y189070D01*
X200842Y188783D01*
X199655D01*
X199655Y188783D01*
X199598Y189077D01*
X199359Y189624D01*
X198974Y190080D01*
X198474Y190408D01*
X198194Y190514D01*
Y188982D01*
X197013D01*
Y190514D01*
X196733Y190408D01*
X196233Y190080D01*
X195848Y189624D01*
X195609Y189077D01*
X195552Y188783D01*
X194365D01*
X194387Y189070D01*
X194532Y189629D01*
X194773Y190153D01*
X195103Y190626D01*
X195511Y191034D01*
X195984Y191363D01*
X196508Y191604D01*
X197066Y191749D01*
X197353Y191771D01*
X197353Y193395D01*
X198272D01*
Y193854D01*
X199138D01*
Y192436D01*
D02*
G37*
G36*
X200842Y188283D02*
X200820Y187996D01*
X200675Y187437D01*
X200434Y186913D01*
X200104Y186440D01*
X199696Y186032D01*
X199223Y185703D01*
X198699Y185462D01*
X198141Y185317D01*
X197854Y185295D01*
X197854Y183671D01*
X196935D01*
Y183212D01*
X196069D01*
Y184630D01*
X196935D01*
Y184171D01*
X197353D01*
Y185295D01*
X197353Y185295D01*
X197066Y185317D01*
X196508Y185462D01*
X195984Y185703D01*
X195511Y186032D01*
X195103Y186440D01*
X194773Y186913D01*
X194532Y187437D01*
X194387Y187996D01*
X194365Y188283D01*
X195552Y188283D01*
X195552Y188283D01*
X195609Y187989D01*
X195848Y187442D01*
X196233Y186986D01*
X196733Y186658D01*
X197013Y186552D01*
Y188084D01*
X198194D01*
Y186552D01*
X198474Y186658D01*
X198974Y186986D01*
X199359Y187442D01*
X199598Y187989D01*
X199655Y188283D01*
X200842D01*
Y188283D01*
D02*
G37*
G36*
X199138Y178026D02*
X198272D01*
Y178485D01*
X197854D01*
Y177361D01*
X197854D01*
X198141Y177339D01*
X198699Y177194D01*
X199223Y176953D01*
X199696Y176623D01*
X200104Y176215D01*
X200434Y175742D01*
X200675Y175218D01*
X200820Y174660D01*
X200842Y174373D01*
X199655D01*
X199655Y174372D01*
X199598Y174666D01*
X199359Y175214D01*
X198974Y175670D01*
X198474Y175997D01*
X198194Y176103D01*
Y174571D01*
X197013D01*
Y176103D01*
X196733Y175997D01*
X196233Y175670D01*
X195848Y175214D01*
X195609Y174666D01*
X195552Y174373D01*
X194365D01*
X194387Y174660D01*
X194532Y175218D01*
X194773Y175742D01*
X195103Y176215D01*
X195511Y176623D01*
X195984Y176953D01*
X196508Y177194D01*
X197066Y177339D01*
X197353Y177361D01*
X197353Y178985D01*
X198272D01*
Y179443D01*
X199138D01*
Y178026D01*
D02*
G37*
G36*
X200842Y173872D02*
X200820Y173585D01*
X200675Y173027D01*
X200434Y172503D01*
X200104Y172030D01*
X199696Y171622D01*
X199223Y171292D01*
X198699Y171051D01*
X198141Y170906D01*
X197854Y170884D01*
X197854Y169261D01*
X196935D01*
Y168802D01*
X196069D01*
Y170219D01*
X196935D01*
Y169761D01*
X197353D01*
Y170884D01*
X197353Y170884D01*
X197066Y170906D01*
X196508Y171051D01*
X195984Y171292D01*
X195511Y171622D01*
X195103Y172030D01*
X194773Y172503D01*
X194532Y173027D01*
X194387Y173585D01*
X194365Y173872D01*
X195552Y173873D01*
X195552Y173872D01*
X195609Y173579D01*
X195848Y173031D01*
X196233Y172575D01*
X196733Y172248D01*
X197013Y172142D01*
Y173674D01*
X198194D01*
Y172142D01*
X198474Y172248D01*
X198974Y172575D01*
X199359Y173031D01*
X199598Y173579D01*
X199655Y173873D01*
X200842D01*
Y173872D01*
D02*
G37*
D11*
X173307Y587746D02*
D03*
Y585266D02*
D03*
X221885Y587896D02*
D03*
Y585415D02*
D03*
D17*
X190185Y609980D02*
D03*
X205037D02*
D03*
D18*
X197603Y174971D02*
D03*
Y173274D02*
D03*
Y189381D02*
D03*
Y187685D02*
D03*
Y203792D02*
D03*
Y202095D02*
D03*
Y247023D02*
D03*
Y245326D02*
D03*
Y232613D02*
D03*
Y230916D02*
D03*
Y218202D02*
D03*
Y216506D02*
D03*
Y304665D02*
D03*
Y302968D02*
D03*
Y319076D02*
D03*
Y317379D02*
D03*
Y333486D02*
D03*
Y331789D02*
D03*
Y290255D02*
D03*
Y288558D02*
D03*
Y275844D02*
D03*
Y274147D02*
D03*
Y261434D02*
D03*
Y259737D02*
D03*
Y391128D02*
D03*
Y389431D02*
D03*
Y405538D02*
D03*
Y403841D02*
D03*
Y419949D02*
D03*
Y418252D02*
D03*
Y376717D02*
D03*
Y375021D02*
D03*
Y362307D02*
D03*
Y360610D02*
D03*
Y347897D02*
D03*
Y346200D02*
D03*
Y477591D02*
D03*
Y475894D02*
D03*
Y492001D02*
D03*
Y490304D02*
D03*
Y506412D02*
D03*
Y504715D02*
D03*
Y463180D02*
D03*
Y461483D02*
D03*
Y448770D02*
D03*
Y447073D02*
D03*
Y434359D02*
D03*
Y432662D02*
D03*
Y520822D02*
D03*
Y519125D02*
D03*
Y535232D02*
D03*
Y533536D02*
D03*
Y549643D02*
D03*
Y547946D02*
D03*
Y564053D02*
D03*
Y562357D02*
D03*
Y578464D02*
D03*
Y576767D02*
D03*
D19*
X196502Y169510D02*
D03*
X194022D02*
D03*
X201185Y178735D02*
D03*
X198705D02*
D03*
X201185Y193145D02*
D03*
X198705D02*
D03*
X196502Y183921D02*
D03*
X194022D02*
D03*
X201185Y207556D02*
D03*
X198705D02*
D03*
X196502Y198331D02*
D03*
X194022D02*
D03*
X196502Y241563D02*
D03*
X194022D02*
D03*
X201185Y250787D02*
D03*
X198705D02*
D03*
X196502Y227152D02*
D03*
X194022D02*
D03*
X201185Y236377D02*
D03*
X198705D02*
D03*
X201185Y221966D02*
D03*
X198705D02*
D03*
X196502Y212742D02*
D03*
X194022D02*
D03*
X196502Y299205D02*
D03*
X194022D02*
D03*
X201185Y308429D02*
D03*
X198705D02*
D03*
X201185Y322839D02*
D03*
X198705D02*
D03*
X196502Y313615D02*
D03*
X194022D02*
D03*
X201185Y337250D02*
D03*
X198705D02*
D03*
X196502Y328026D02*
D03*
X194022D02*
D03*
X196502Y284794D02*
D03*
X194022D02*
D03*
X201185Y294018D02*
D03*
X198705D02*
D03*
X196502Y270384D02*
D03*
X194022D02*
D03*
X201185Y279608D02*
D03*
X198705D02*
D03*
X201185Y265197D02*
D03*
X198705D02*
D03*
X196502Y255973D02*
D03*
X194022D02*
D03*
X196502Y385667D02*
D03*
X194022D02*
D03*
X201185Y394892D02*
D03*
X198705D02*
D03*
X201185Y409302D02*
D03*
X198705D02*
D03*
X196502Y400078D02*
D03*
X194022D02*
D03*
X201185Y423712D02*
D03*
X198705D02*
D03*
X196502Y414488D02*
D03*
X194022D02*
D03*
X196502Y371257D02*
D03*
X194022D02*
D03*
X201185Y380481D02*
D03*
X198705D02*
D03*
X196502Y356846D02*
D03*
X194022D02*
D03*
X201185Y366071D02*
D03*
X198705D02*
D03*
X201185Y351660D02*
D03*
X198705D02*
D03*
X196502Y342436D02*
D03*
X194022D02*
D03*
X196502Y472130D02*
D03*
X194022D02*
D03*
X201185Y481354D02*
D03*
X198705D02*
D03*
X201185Y495765D02*
D03*
X198705D02*
D03*
X196502Y486541D02*
D03*
X194022D02*
D03*
X201185Y510175D02*
D03*
X198705D02*
D03*
X196502Y500951D02*
D03*
X194022D02*
D03*
X196502Y457720D02*
D03*
X194022D02*
D03*
X201185Y466944D02*
D03*
X198705D02*
D03*
X196502Y443309D02*
D03*
X194022D02*
D03*
X201185Y452533D02*
D03*
X198705D02*
D03*
X201185Y438123D02*
D03*
X198705D02*
D03*
X196502Y428899D02*
D03*
X194022D02*
D03*
X196502Y515361D02*
D03*
X194022D02*
D03*
X201185Y524586D02*
D03*
X198705D02*
D03*
X196502Y529772D02*
D03*
X194022D02*
D03*
X201185Y538996D02*
D03*
X198705D02*
D03*
X196502Y544182D02*
D03*
X194022D02*
D03*
X201185Y553407D02*
D03*
X198705D02*
D03*
X196502Y558593D02*
D03*
X194022D02*
D03*
X201185Y567817D02*
D03*
X198705D02*
D03*
X196502Y573003D02*
D03*
X194022D02*
D03*
X201185Y582228D02*
D03*
X198705D02*
D03*
M02*
