G04*
G04 #@! TF.GenerationSoftware,Altium Limited,Altium Designer,25.3.3 (18)*
G04*
G04 Layer_Physical_Order=2*
G04 Layer_Color=16711680*
%FSLAX25Y25*%
%MOIN*%
G70*
G04*
G04 #@! TF.SameCoordinates,601A9F49-DEDD-47AA-BEC0-E602D5E64D20*
G04*
G04*
G04 #@! TF.FilePolarity,Positive*
G04*
G01*
G75*
%ADD11R,0.01417X0.00866*%
%ADD21C,0.03543*%
%ADD22R,0.00898X0.00799*%
%ADD23R,0.00866X0.01417*%
G36*
X218926Y621423D02*
X215005D01*
Y616539D01*
X215990D01*
Y611421D01*
X210084D01*
Y616539D01*
X211068D01*
Y621423D01*
X209084D01*
Y635203D01*
X218926D01*
Y621423D01*
D02*
G37*
G36*
X202123D02*
X200153D01*
Y616539D01*
X201138D01*
Y611421D01*
X195232D01*
Y616539D01*
X196216D01*
Y621423D01*
X192280D01*
Y635203D01*
X202123D01*
Y621423D01*
D02*
G37*
G36*
X235730D02*
X230135D01*
Y616613D01*
X224729D01*
Y615298D01*
X230135D01*
Y612983D01*
X224729D01*
Y611668D01*
X230135D01*
Y609353D01*
X224729D01*
Y608038D01*
X230135D01*
Y605723D01*
X224729D01*
Y604408D01*
X230135D01*
Y602203D01*
X224729D01*
Y600888D01*
X230135D01*
Y598573D01*
X224729D01*
Y597258D01*
X230135D01*
Y594943D01*
X224729D01*
Y593628D01*
X230135D01*
Y592525D01*
X230594D01*
Y591463D01*
X229176D01*
Y592525D01*
X229635D01*
Y593128D01*
X224230D01*
Y595443D01*
X229635D01*
Y596758D01*
X224230D01*
Y599073D01*
X229635D01*
Y600388D01*
X224230D01*
Y602703D01*
X229635D01*
Y603908D01*
X224230D01*
Y606223D01*
X229635D01*
Y607538D01*
X224230D01*
Y609853D01*
X229635D01*
Y611168D01*
X224230D01*
Y613483D01*
X229635D01*
Y614798D01*
X224230D01*
Y617113D01*
X226198D01*
Y621423D01*
X225887D01*
Y635203D01*
X235730D01*
Y621423D01*
D02*
G37*
G36*
X185320D02*
X185009D01*
Y616964D01*
X186962D01*
Y614649D01*
X181557D01*
Y613334D01*
X186962D01*
Y611019D01*
X181557D01*
Y609704D01*
X186962D01*
Y607389D01*
X181557D01*
Y606074D01*
X186962D01*
Y603759D01*
X181557D01*
Y602554D01*
X186962D01*
Y600239D01*
X181557D01*
Y598924D01*
X186962D01*
Y596609D01*
X181557D01*
Y595294D01*
X186962D01*
Y592979D01*
X181557D01*
Y592376D01*
X182016D01*
Y591313D01*
X180598D01*
Y592376D01*
X181057D01*
Y593479D01*
X186462D01*
Y594794D01*
X181057D01*
Y597109D01*
X186462D01*
Y598424D01*
X181057D01*
Y600739D01*
X186462D01*
Y602054D01*
X181057D01*
Y604259D01*
X186462D01*
Y605574D01*
X181057D01*
Y607889D01*
X186462D01*
Y609204D01*
X181057D01*
Y611519D01*
X186462D01*
Y612834D01*
X181057D01*
Y615149D01*
X186462D01*
Y616464D01*
X181057D01*
Y617642D01*
X181072D01*
Y621423D01*
X175477D01*
Y635203D01*
X185320D01*
Y621423D01*
D02*
G37*
G36*
X230594Y588785D02*
X230135D01*
Y587792D01*
X224729D01*
Y586478D01*
X230135D01*
Y584163D01*
X224729D01*
Y582847D01*
X230135D01*
Y580533D01*
X224729D01*
Y579217D01*
X230135D01*
Y576902D01*
X224729D01*
Y575588D01*
X230135D01*
Y573382D01*
X224729D01*
Y572067D01*
X230135D01*
Y569752D01*
X224729D01*
Y568437D01*
X230135D01*
Y566122D01*
X224729D01*
Y564807D01*
X230135D01*
Y562492D01*
X224729D01*
Y561177D01*
X230135D01*
Y558972D01*
X224729D01*
Y557657D01*
X230135D01*
Y555342D01*
X224729D01*
Y554027D01*
X230135D01*
Y551712D01*
X224729D01*
Y550397D01*
X230135D01*
Y548082D01*
X224729D01*
Y546767D01*
X230135D01*
Y544561D01*
X224729D01*
Y543246D01*
X230135D01*
Y540931D01*
X224729D01*
Y539616D01*
X230135D01*
Y537301D01*
X224729D01*
Y535986D01*
X230135D01*
Y533671D01*
X224729D01*
Y532356D01*
X230135D01*
Y530151D01*
X224729D01*
Y528836D01*
X230135D01*
Y526521D01*
X224729D01*
Y525206D01*
X230135D01*
Y522891D01*
X224729D01*
Y521576D01*
X230135D01*
Y519261D01*
X224729D01*
Y517946D01*
X230135D01*
Y515740D01*
X224729D01*
Y514425D01*
X230135D01*
Y512110D01*
X224729D01*
Y510795D01*
X230135D01*
Y508480D01*
X224729D01*
Y507165D01*
X230135D01*
Y504850D01*
X224729D01*
Y503535D01*
X230135D01*
Y501330D01*
X224729D01*
Y500015D01*
X230135D01*
Y497700D01*
X224729D01*
Y496385D01*
X230135D01*
Y494070D01*
X224729D01*
Y492755D01*
X230135D01*
Y490440D01*
X224729D01*
Y489125D01*
X230135D01*
Y486919D01*
X224729D01*
Y485604D01*
X230135D01*
Y483289D01*
X224729D01*
Y481974D01*
X230135D01*
Y479659D01*
X224729D01*
Y478344D01*
X230135D01*
Y476029D01*
X224729D01*
Y474714D01*
X230135D01*
Y472509D01*
X224729D01*
Y471194D01*
X230135D01*
Y468879D01*
X224729D01*
Y467564D01*
X230135D01*
Y465249D01*
X224729D01*
Y463934D01*
X230135D01*
Y461619D01*
X224729D01*
Y460304D01*
X230135D01*
Y458098D01*
X224729D01*
Y456783D01*
X230135D01*
Y454468D01*
X224729D01*
Y453153D01*
X230135D01*
Y450838D01*
X224729D01*
Y449523D01*
X230135D01*
Y447208D01*
X224729D01*
Y445893D01*
X230135D01*
Y443688D01*
X224729D01*
Y442373D01*
X230135D01*
Y440058D01*
X224729D01*
Y438743D01*
X230135D01*
Y436428D01*
X224729D01*
Y435113D01*
X230135D01*
Y432798D01*
X224729D01*
Y431483D01*
X230135D01*
Y429277D01*
X224729D01*
Y427962D01*
X230135D01*
Y425647D01*
X224729D01*
Y424332D01*
X230135D01*
Y422017D01*
X224729D01*
Y420702D01*
X230135D01*
Y418387D01*
X224729D01*
Y417072D01*
X230135D01*
Y414867D01*
X224729D01*
Y413552D01*
X230135D01*
Y411237D01*
X224729D01*
Y409922D01*
X230135D01*
Y407607D01*
X224729D01*
Y406292D01*
X230135D01*
Y403977D01*
X224729D01*
Y402662D01*
X230135D01*
Y400456D01*
X224729D01*
Y399142D01*
X230135D01*
Y396827D01*
X224729D01*
Y395512D01*
X230135D01*
Y393197D01*
X224729D01*
Y391881D01*
X230135D01*
Y389566D01*
X224729D01*
Y388251D01*
X230135D01*
Y386046D01*
X224729D01*
Y384731D01*
X230135D01*
Y382416D01*
X224729D01*
Y381101D01*
X230135D01*
Y378786D01*
X224729D01*
Y377471D01*
X230135D01*
Y375156D01*
X224729D01*
Y373841D01*
X230135D01*
Y371636D01*
X224729D01*
Y370321D01*
X230135D01*
Y368006D01*
X224729D01*
Y366691D01*
X230135D01*
Y364376D01*
X224729D01*
Y363061D01*
X230135D01*
Y360746D01*
X224729D01*
Y359431D01*
X230135D01*
Y357225D01*
X224729D01*
Y355910D01*
X230135D01*
Y353595D01*
X224729D01*
Y352280D01*
X230135D01*
Y349965D01*
X224729D01*
Y348650D01*
X230135D01*
Y346335D01*
X224729D01*
Y345020D01*
X230135D01*
Y342815D01*
X224729D01*
Y341500D01*
X230135D01*
Y339185D01*
X224729D01*
Y337870D01*
X230135D01*
Y335555D01*
X224729D01*
Y334240D01*
X230135D01*
Y331925D01*
X224729D01*
Y330610D01*
X230135D01*
Y328404D01*
X224729D01*
Y327089D01*
X230135D01*
Y324774D01*
X224729D01*
Y323459D01*
X230135D01*
Y321144D01*
X224729D01*
Y319829D01*
X230135D01*
Y317514D01*
X224729D01*
Y316199D01*
X230135D01*
Y313994D01*
X224729D01*
Y312679D01*
X230135D01*
Y310364D01*
X224729D01*
Y309049D01*
X230135D01*
Y306734D01*
X224729D01*
Y305419D01*
X230135D01*
Y303104D01*
X224729D01*
Y301789D01*
X230135D01*
Y299583D01*
X224729D01*
Y298268D01*
X230135D01*
Y295953D01*
X224729D01*
Y294638D01*
X230135D01*
Y292323D01*
X224729D01*
Y291008D01*
X230135D01*
Y288693D01*
X224729D01*
Y287378D01*
X230135D01*
Y285173D01*
X224729D01*
Y283858D01*
X230135D01*
Y281543D01*
X224729D01*
Y280228D01*
X230135D01*
Y277913D01*
X224729D01*
Y276598D01*
X230135D01*
Y274283D01*
X224729D01*
Y272968D01*
X230135D01*
Y270762D01*
X224729D01*
Y269447D01*
X230135D01*
Y267132D01*
X224729D01*
Y265817D01*
X230135D01*
Y263502D01*
X224729D01*
Y262187D01*
X230135D01*
Y259872D01*
X224729D01*
Y258557D01*
X230135D01*
Y256352D01*
X224729D01*
Y255037D01*
X230135D01*
Y252722D01*
X224729D01*
Y251407D01*
X230135D01*
Y249092D01*
X224729D01*
Y247777D01*
X230135D01*
Y245462D01*
X224729D01*
Y244147D01*
X230135D01*
Y241941D01*
X224729D01*
Y240627D01*
X230135D01*
Y238312D01*
X224729D01*
Y236997D01*
X230135D01*
Y234681D01*
X224729D01*
Y233366D01*
X230135D01*
Y231051D01*
X224729D01*
Y229736D01*
X230135D01*
Y227531D01*
X224729D01*
Y226216D01*
X230135D01*
Y223901D01*
X224729D01*
Y222586D01*
X230135D01*
Y220271D01*
X224729D01*
Y218956D01*
X230135D01*
Y216641D01*
X224729D01*
Y215326D01*
X230135D01*
Y213121D01*
X224729D01*
Y211806D01*
X230135D01*
Y209490D01*
X224729D01*
Y208175D01*
X230135D01*
Y205860D01*
X224729D01*
Y204545D01*
X230135D01*
Y202231D01*
X224729D01*
Y200916D01*
X230135D01*
Y198710D01*
X224729D01*
Y197395D01*
X230135D01*
Y195080D01*
X224729D01*
Y193765D01*
X230135D01*
Y191450D01*
X224729D01*
Y190135D01*
X230135D01*
Y187820D01*
X224729D01*
Y186505D01*
X230135D01*
Y184300D01*
X224729D01*
Y182485D01*
X209618D01*
Y182026D01*
X208752D01*
Y183443D01*
X209618D01*
Y182985D01*
X224230D01*
Y184800D01*
X229635D01*
Y186005D01*
X224230D01*
Y188320D01*
X229635D01*
Y189635D01*
X224230D01*
Y191950D01*
X229635D01*
Y193265D01*
X224230D01*
Y195580D01*
X229635D01*
Y196895D01*
X209618D01*
Y196436D01*
X208752D01*
Y197854D01*
X209618D01*
Y197395D01*
X224230D01*
Y199210D01*
X229635D01*
Y200415D01*
X224230D01*
Y202730D01*
X229635D01*
Y204046D01*
X224230D01*
Y206361D01*
X229635D01*
Y207676D01*
X224230D01*
Y209991D01*
X229635D01*
Y211305D01*
X209618D01*
Y210847D01*
X208752D01*
Y212264D01*
X209618D01*
Y211806D01*
X224230D01*
Y213620D01*
X229635D01*
Y214826D01*
X224230D01*
Y217141D01*
X229635D01*
Y218456D01*
X224230D01*
Y220771D01*
X229635D01*
Y222086D01*
X224230D01*
Y224401D01*
X229635D01*
Y225716D01*
X209618D01*
Y225257D01*
X208752D01*
Y226675D01*
X209618D01*
Y226216D01*
X224230D01*
Y228031D01*
X229635D01*
Y229237D01*
X224230D01*
Y231552D01*
X229635D01*
Y232866D01*
X224230D01*
Y235181D01*
X229635D01*
Y236496D01*
X224230D01*
Y238811D01*
X229635D01*
Y240126D01*
X209618D01*
Y239668D01*
X208752D01*
Y241085D01*
X209618D01*
Y240627D01*
X224230D01*
Y242441D01*
X229635D01*
Y243647D01*
X224230D01*
Y245962D01*
X229635D01*
Y247277D01*
X224230D01*
Y249592D01*
X229635D01*
Y250907D01*
X224230D01*
Y253222D01*
X229635D01*
Y254537D01*
X209618D01*
Y254078D01*
X208752D01*
Y255496D01*
X209618D01*
Y255037D01*
X224230D01*
Y256852D01*
X229635D01*
Y258057D01*
X224230D01*
Y260372D01*
X229635D01*
Y261687D01*
X224230D01*
Y264002D01*
X229635D01*
Y265317D01*
X224230D01*
Y267632D01*
X229635D01*
Y268947D01*
X209618D01*
Y268489D01*
X208752D01*
Y269906D01*
X209618D01*
Y269447D01*
X224230D01*
Y271262D01*
X229635D01*
Y272468D01*
X224230D01*
Y274783D01*
X229635D01*
Y276098D01*
X224230D01*
Y278413D01*
X229635D01*
Y279728D01*
X224230D01*
Y282043D01*
X229635D01*
Y283358D01*
X209618D01*
Y282899D01*
X208752D01*
Y284316D01*
X209618D01*
Y283858D01*
X224230D01*
Y285673D01*
X229635D01*
Y286878D01*
X224230D01*
Y289193D01*
X229635D01*
Y290508D01*
X224230D01*
Y292823D01*
X229635D01*
Y294138D01*
X224230D01*
Y296453D01*
X229635D01*
Y297768D01*
X209618D01*
Y297310D01*
X208752D01*
Y298727D01*
X209618D01*
Y298268D01*
X224230D01*
Y300083D01*
X229635D01*
Y301289D01*
X224230D01*
Y303604D01*
X229635D01*
Y304919D01*
X224230D01*
Y307234D01*
X229635D01*
Y308549D01*
X224230D01*
Y310864D01*
X229635D01*
Y312179D01*
X209618D01*
Y311720D01*
X208752D01*
Y313137D01*
X209618D01*
Y312679D01*
X224230D01*
Y314494D01*
X229635D01*
Y315699D01*
X224230D01*
Y318014D01*
X229635D01*
Y319329D01*
X224230D01*
Y321644D01*
X229635D01*
Y322959D01*
X224230D01*
Y325274D01*
X229635D01*
Y326589D01*
X209618D01*
Y326131D01*
X208752D01*
Y327548D01*
X209618D01*
Y327089D01*
X224230D01*
Y328904D01*
X229635D01*
Y330110D01*
X224230D01*
Y332425D01*
X229635D01*
Y333740D01*
X224230D01*
Y336055D01*
X229635D01*
Y337370D01*
X224230D01*
Y339685D01*
X229635D01*
Y341000D01*
X209618D01*
Y340541D01*
X208752D01*
Y341958D01*
X209618D01*
Y341500D01*
X224230D01*
Y343315D01*
X229635D01*
Y344520D01*
X224230D01*
Y346835D01*
X229635D01*
Y348150D01*
X224230D01*
Y350465D01*
X229635D01*
Y351780D01*
X224230D01*
Y354095D01*
X229635D01*
Y355410D01*
X209618D01*
Y354952D01*
X208752D01*
Y356369D01*
X209618D01*
Y355910D01*
X224230D01*
Y357725D01*
X229635D01*
Y358931D01*
X224230D01*
Y361246D01*
X229635D01*
Y362561D01*
X224230D01*
Y364876D01*
X229635D01*
Y366191D01*
X224230D01*
Y368506D01*
X229635D01*
Y369821D01*
X209618D01*
Y369362D01*
X208752D01*
Y370779D01*
X209618D01*
Y370321D01*
X224230D01*
Y372136D01*
X229635D01*
Y373341D01*
X224230D01*
Y375656D01*
X229635D01*
Y376971D01*
X224230D01*
Y379286D01*
X229635D01*
Y380601D01*
X224230D01*
Y382916D01*
X229635D01*
Y384231D01*
X209618D01*
Y383772D01*
X208752D01*
Y385190D01*
X209618D01*
Y384731D01*
X224230D01*
Y386546D01*
X229635D01*
Y387752D01*
X224230D01*
Y390067D01*
X229635D01*
Y391382D01*
X224230D01*
Y393696D01*
X229635D01*
Y395011D01*
X224230D01*
Y397326D01*
X229635D01*
Y398641D01*
X209618D01*
Y398183D01*
X208752D01*
Y399600D01*
X209618D01*
Y399142D01*
X224230D01*
Y400956D01*
X229635D01*
Y402162D01*
X224230D01*
Y404477D01*
X229635D01*
Y405792D01*
X224230D01*
Y408107D01*
X229635D01*
Y409422D01*
X224230D01*
Y411737D01*
X229635D01*
Y413052D01*
X209618D01*
Y412593D01*
X208752D01*
Y414011D01*
X209618D01*
Y413552D01*
X224230D01*
Y415367D01*
X229635D01*
Y416572D01*
X224230D01*
Y418887D01*
X229635D01*
Y420202D01*
X224230D01*
Y422517D01*
X229635D01*
Y423832D01*
X224230D01*
Y426147D01*
X229635D01*
Y427462D01*
X209618D01*
Y427004D01*
X208752D01*
Y428421D01*
X209618D01*
Y427962D01*
X224230D01*
Y429777D01*
X229635D01*
Y430983D01*
X224230D01*
Y433298D01*
X229635D01*
Y434613D01*
X224230D01*
Y436928D01*
X229635D01*
Y438243D01*
X224230D01*
Y440558D01*
X229635D01*
Y441873D01*
X209618D01*
Y441414D01*
X208752D01*
Y442832D01*
X209618D01*
Y442373D01*
X224230D01*
Y444188D01*
X229635D01*
Y445393D01*
X224230D01*
Y447708D01*
X229635D01*
Y449023D01*
X224230D01*
Y451338D01*
X229635D01*
Y452653D01*
X224230D01*
Y454968D01*
X229635D01*
Y456283D01*
X209618D01*
Y455825D01*
X208752D01*
Y457242D01*
X209618D01*
Y456783D01*
X224230D01*
Y458598D01*
X229635D01*
Y459804D01*
X224230D01*
Y462119D01*
X229635D01*
Y463434D01*
X224230D01*
Y465749D01*
X229635D01*
Y467064D01*
X224230D01*
Y469379D01*
X229635D01*
Y470694D01*
X209618D01*
Y470235D01*
X208752D01*
Y471653D01*
X209618D01*
Y471194D01*
X224230D01*
Y473009D01*
X229635D01*
Y474214D01*
X224230D01*
Y476529D01*
X229635D01*
Y477844D01*
X224230D01*
Y480159D01*
X229635D01*
Y481474D01*
X224230D01*
Y483789D01*
X229635D01*
Y485104D01*
X209618D01*
Y484646D01*
X208752D01*
Y486063D01*
X209618D01*
Y485604D01*
X224230D01*
Y487419D01*
X229635D01*
Y488625D01*
X224230D01*
Y490940D01*
X229635D01*
Y492255D01*
X224230D01*
Y494570D01*
X229635D01*
Y495885D01*
X224230D01*
Y498200D01*
X229635D01*
Y499515D01*
X209618D01*
Y499056D01*
X208752D01*
Y500473D01*
X209618D01*
Y500015D01*
X224230D01*
Y501830D01*
X229635D01*
Y503035D01*
X224230D01*
Y505350D01*
X229635D01*
Y506665D01*
X224230D01*
Y508980D01*
X229635D01*
Y510295D01*
X224230D01*
Y512610D01*
X229635D01*
Y513925D01*
X209618D01*
Y513467D01*
X208752D01*
Y514884D01*
X209618D01*
Y514425D01*
X224230D01*
Y516240D01*
X229635D01*
Y517446D01*
X224230D01*
Y519761D01*
X229635D01*
Y521076D01*
X224230D01*
Y523391D01*
X229635D01*
Y524706D01*
X224230D01*
Y527021D01*
X229635D01*
Y528336D01*
X209618D01*
Y527877D01*
X208752D01*
Y529294D01*
X209618D01*
Y528836D01*
X224230D01*
Y530651D01*
X229635D01*
Y531856D01*
X224230D01*
Y534171D01*
X229635D01*
Y535486D01*
X224230D01*
Y537801D01*
X229635D01*
Y539116D01*
X224230D01*
Y541431D01*
X229635D01*
Y542746D01*
X209618D01*
Y542287D01*
X208752D01*
Y543705D01*
X209618D01*
Y543246D01*
X224230D01*
Y545061D01*
X229635D01*
Y546267D01*
X224230D01*
Y548582D01*
X229635D01*
Y549897D01*
X224230D01*
Y552212D01*
X229635D01*
Y553527D01*
X224230D01*
Y555842D01*
X229635D01*
Y557157D01*
X209618D01*
Y556698D01*
X208752D01*
Y558115D01*
X209618D01*
Y557657D01*
X224230D01*
Y559472D01*
X229635D01*
Y560677D01*
X224230D01*
Y562992D01*
X229635D01*
Y564307D01*
X224230D01*
Y566622D01*
X229635D01*
Y567937D01*
X224230D01*
Y570252D01*
X229635D01*
Y571567D01*
X209618D01*
Y571108D01*
X208752D01*
Y572526D01*
X209618D01*
Y572067D01*
X224230D01*
Y573882D01*
X229635D01*
Y575087D01*
X224230D01*
Y577402D01*
X229635D01*
Y578718D01*
X224230D01*
Y581033D01*
X229635D01*
Y582347D01*
X224230D01*
Y584662D01*
X229635D01*
Y585978D01*
X224230D01*
Y588293D01*
X229635D01*
Y588785D01*
X229176D01*
Y589848D01*
X230594D01*
Y588785D01*
D02*
G37*
G36*
X207138Y571108D02*
X206272D01*
Y571567D01*
X205854D01*
Y570673D01*
X206167Y570650D01*
X206775Y570494D01*
X207345Y570230D01*
X207859Y569869D01*
X208300Y569422D01*
X208654Y568903D01*
X208909Y568329D01*
X209056Y567719D01*
X209074Y567405D01*
X207872Y567405D01*
X207872D01*
X207815Y567746D01*
X207552Y568383D01*
X207109Y568913D01*
X206529Y569285D01*
X206204Y569401D01*
Y567654D01*
X205003D01*
Y569401D01*
X204678Y569285D01*
X204098Y568913D01*
X203655Y568383D01*
X203392Y567746D01*
X203335Y567405D01*
X202132D01*
X202132Y567405D01*
X202151Y567719D01*
X202298Y568329D01*
X202553Y568903D01*
X202907Y569422D01*
X203348Y569869D01*
X203862Y570230D01*
X204432Y570494D01*
X205040Y570650D01*
X205353Y570673D01*
X205353Y572067D01*
X206272D01*
Y572526D01*
X207138D01*
Y571108D01*
D02*
G37*
G36*
X209056Y566691D02*
X208909Y566081D01*
X208654Y565507D01*
X208300Y564988D01*
X207859Y564541D01*
X207345Y564180D01*
X206775Y563916D01*
X206167Y563760D01*
X205854Y563737D01*
Y562343D01*
X204935D01*
Y561884D01*
X204069D01*
Y563302D01*
X204935D01*
Y562843D01*
X205353D01*
Y563737D01*
X205353Y563737D01*
X205040Y563760D01*
X204432Y563916D01*
X203862Y564180D01*
X203348Y564541D01*
X202907Y564988D01*
X202553Y565507D01*
X202298Y566081D01*
X202151Y566691D01*
X202132Y567005D01*
X203335D01*
Y567005D01*
X203392Y566664D01*
X203655Y566026D01*
X204098Y565497D01*
X204678Y565125D01*
X205003Y565009D01*
Y566756D01*
X206204D01*
Y565009D01*
X206204Y565009D01*
X206204D01*
X206204D01*
D01*
X206529Y565125D01*
X207109Y565497D01*
X207552Y566026D01*
X207815Y566664D01*
X207872Y567005D01*
X209074Y567005D01*
X209056Y566691D01*
D02*
G37*
G36*
X182016Y588636D02*
X181557D01*
Y588143D01*
X186962D01*
Y585828D01*
X181557D01*
Y584513D01*
X186962D01*
Y582198D01*
X181557D01*
Y580883D01*
X186962D01*
Y578568D01*
X181557D01*
Y577253D01*
X186962D01*
Y574938D01*
X181557D01*
Y573733D01*
X186962D01*
Y571418D01*
X181557D01*
Y570103D01*
X186962D01*
Y567788D01*
X181557D01*
Y566473D01*
X186962D01*
Y564158D01*
X181557D01*
Y562843D01*
X201589D01*
Y563302D01*
X202455D01*
Y561884D01*
X201589D01*
Y562343D01*
X186962D01*
Y560528D01*
X181557D01*
Y559323D01*
X186962D01*
Y557007D01*
X181557D01*
Y555692D01*
X186962D01*
Y553377D01*
X181557D01*
Y552062D01*
X186962D01*
Y549748D01*
X181557D01*
Y548432D01*
X201589D01*
Y548891D01*
X202455D01*
Y547474D01*
X201589D01*
Y547932D01*
X186962D01*
Y546117D01*
X181557D01*
Y544912D01*
X186962D01*
Y542597D01*
X181557D01*
Y541282D01*
X186962D01*
Y538967D01*
X181557D01*
Y537652D01*
X186962D01*
Y535337D01*
X181557D01*
Y534022D01*
X201589D01*
Y534481D01*
X202455D01*
Y533063D01*
X201589D01*
Y533522D01*
X186962D01*
Y531707D01*
X181557D01*
Y530502D01*
X186962D01*
Y528187D01*
X181557D01*
Y526871D01*
X186962D01*
Y524556D01*
X181557D01*
Y523242D01*
X186962D01*
Y520927D01*
X181557D01*
Y519612D01*
X201589D01*
Y520070D01*
X202455D01*
Y518653D01*
X201589D01*
Y519111D01*
X186962D01*
Y517297D01*
X181557D01*
Y516091D01*
X186962D01*
Y513776D01*
X181557D01*
Y512461D01*
X186962D01*
Y510146D01*
X181557D01*
Y508831D01*
X186962D01*
Y506516D01*
X181557D01*
Y505201D01*
X201589D01*
Y505660D01*
X202455D01*
Y504242D01*
X201589D01*
Y504701D01*
X186962D01*
Y502886D01*
X181557D01*
Y501681D01*
X186962D01*
Y499366D01*
X181557D01*
Y498051D01*
X186962D01*
Y495736D01*
X181557D01*
Y494421D01*
X186962D01*
Y492106D01*
X181557D01*
Y490791D01*
X201589D01*
Y491249D01*
X202455D01*
Y489832D01*
X201589D01*
Y490291D01*
X186962D01*
Y488476D01*
X181557D01*
Y487270D01*
X186962D01*
Y484955D01*
X181557D01*
Y483640D01*
X186962D01*
Y481325D01*
X181557D01*
Y480010D01*
X186962D01*
Y477695D01*
X181557D01*
Y476380D01*
X201589D01*
Y476839D01*
X202455D01*
Y475421D01*
X201589D01*
Y475880D01*
X186962D01*
Y474065D01*
X181557D01*
Y472860D01*
X186962D01*
Y470545D01*
X181557D01*
Y469230D01*
X186962D01*
Y466915D01*
X181557D01*
Y465600D01*
X186962D01*
Y463285D01*
X181557D01*
Y461970D01*
X201589D01*
Y462428D01*
X202455D01*
Y461011D01*
X201589D01*
Y461470D01*
X186962D01*
Y459655D01*
X181557D01*
Y458449D01*
X186962D01*
Y456134D01*
X181557D01*
Y454819D01*
X186962D01*
Y452504D01*
X181557D01*
Y451189D01*
X186962D01*
Y448874D01*
X181557D01*
Y447559D01*
X201589D01*
Y448018D01*
X202455D01*
Y446601D01*
X201589D01*
Y447059D01*
X186962D01*
Y445244D01*
X181557D01*
Y444039D01*
X186962D01*
Y441724D01*
X181557D01*
Y440409D01*
X186962D01*
Y438094D01*
X181557D01*
Y436779D01*
X186962D01*
Y434464D01*
X181557D01*
Y433149D01*
X201589D01*
Y433607D01*
X202455D01*
Y432190D01*
X201589D01*
Y432649D01*
X186962D01*
Y430834D01*
X181557D01*
Y429628D01*
X186962D01*
Y427313D01*
X181557D01*
Y425998D01*
X186962D01*
Y423683D01*
X181557D01*
Y422368D01*
X186962D01*
Y420053D01*
X181557D01*
Y418738D01*
X201589D01*
Y419197D01*
X202455D01*
Y417780D01*
X201589D01*
Y418238D01*
X186962D01*
Y416423D01*
X181557D01*
Y415218D01*
X186962D01*
Y412903D01*
X181557D01*
Y411588D01*
X186962D01*
Y409273D01*
X181557D01*
Y407958D01*
X186962D01*
Y405643D01*
X181557D01*
Y404328D01*
X201589D01*
Y404786D01*
X202455D01*
Y403369D01*
X201589D01*
Y403828D01*
X186962D01*
Y402013D01*
X181557D01*
Y400807D01*
X186962D01*
Y398492D01*
X181557D01*
Y397177D01*
X186962D01*
Y394862D01*
X181557D01*
Y393547D01*
X186962D01*
Y391232D01*
X181557D01*
Y389917D01*
X201589D01*
Y390376D01*
X202455D01*
Y388959D01*
X201589D01*
Y389417D01*
X186962D01*
Y387602D01*
X181557D01*
Y386397D01*
X186962D01*
Y384082D01*
X181557D01*
Y382767D01*
X186962D01*
Y380452D01*
X181557D01*
Y379137D01*
X186962D01*
Y376822D01*
X181557D01*
Y375507D01*
X201589D01*
Y375966D01*
X202455D01*
Y374548D01*
X201589D01*
Y375007D01*
X186962D01*
Y373192D01*
X181557D01*
Y371987D01*
X186962D01*
Y369672D01*
X181557D01*
Y368356D01*
X186962D01*
Y366041D01*
X181557D01*
Y364726D01*
X186962D01*
Y362411D01*
X181557D01*
Y361097D01*
X201589D01*
Y361555D01*
X202455D01*
Y360138D01*
X201589D01*
Y360596D01*
X186962D01*
Y358782D01*
X181557D01*
Y357576D01*
X186962D01*
Y355261D01*
X181557D01*
Y353946D01*
X186962D01*
Y351631D01*
X181557D01*
Y350316D01*
X186962D01*
Y348001D01*
X181557D01*
Y346686D01*
X201589D01*
Y347145D01*
X202455D01*
Y345727D01*
X201589D01*
Y346186D01*
X186962D01*
Y344371D01*
X181557D01*
Y343165D01*
X186962D01*
Y340851D01*
X181557D01*
Y339536D01*
X186962D01*
Y337221D01*
X181557D01*
Y335906D01*
X186962D01*
Y333591D01*
X181557D01*
Y332276D01*
X201589D01*
Y332734D01*
X202455D01*
Y331317D01*
X201589D01*
Y331776D01*
X186962D01*
Y329961D01*
X181557D01*
Y328755D01*
X186962D01*
Y326440D01*
X181557D01*
Y325125D01*
X186962D01*
Y322810D01*
X181557D01*
Y321495D01*
X186962D01*
Y319180D01*
X181557D01*
Y317865D01*
X201589D01*
Y318324D01*
X202455D01*
Y316906D01*
X201589D01*
Y317365D01*
X186962D01*
Y315550D01*
X181557D01*
Y314345D01*
X186962D01*
Y312030D01*
X181557D01*
Y310715D01*
X186962D01*
Y308400D01*
X181557D01*
Y307085D01*
X186962D01*
Y304770D01*
X181557D01*
Y303455D01*
X201589D01*
Y303913D01*
X202455D01*
Y302496D01*
X201589D01*
Y302955D01*
X186962D01*
Y301140D01*
X181557D01*
Y299934D01*
X186962D01*
Y297619D01*
X181557D01*
Y296304D01*
X186962D01*
Y293989D01*
X181557D01*
Y292674D01*
X186962D01*
Y290359D01*
X181557D01*
Y289044D01*
X201589D01*
Y289503D01*
X202455D01*
Y288086D01*
X201589D01*
Y288544D01*
X186962D01*
Y286729D01*
X181557D01*
Y285524D01*
X186962D01*
Y283209D01*
X181557D01*
Y281894D01*
X186962D01*
Y279579D01*
X181557D01*
Y278264D01*
X186962D01*
Y275949D01*
X181557D01*
Y274634D01*
X201589D01*
Y275092D01*
X202455D01*
Y273675D01*
X201589D01*
Y274134D01*
X186962D01*
Y272319D01*
X181557D01*
Y271113D01*
X186962D01*
Y268798D01*
X181557D01*
Y267483D01*
X186962D01*
Y265168D01*
X181557D01*
Y263853D01*
X186962D01*
Y261538D01*
X181557D01*
Y260223D01*
X201589D01*
Y260682D01*
X202455D01*
Y259265D01*
X201589D01*
Y259723D01*
X186962D01*
Y257908D01*
X181557D01*
Y256703D01*
X186962D01*
Y254388D01*
X181557D01*
Y253073D01*
X186962D01*
Y250758D01*
X181557D01*
Y249443D01*
X186962D01*
Y247128D01*
X181557D01*
Y245813D01*
X201589D01*
Y246271D01*
X202455D01*
Y244854D01*
X201589D01*
Y245313D01*
X186962D01*
Y243498D01*
X181557D01*
Y242292D01*
X186962D01*
Y239977D01*
X181557D01*
Y238662D01*
X186962D01*
Y236347D01*
X181557D01*
Y235032D01*
X186962D01*
Y232717D01*
X181557D01*
Y231402D01*
X201589D01*
Y231861D01*
X202455D01*
Y230444D01*
X201589D01*
Y230902D01*
X186962D01*
Y229087D01*
X181557D01*
Y227882D01*
X186962D01*
Y225567D01*
X181557D01*
Y224252D01*
X186962D01*
Y221937D01*
X181557D01*
Y220622D01*
X186962D01*
Y218307D01*
X181557D01*
Y216992D01*
X201589D01*
Y217450D01*
X202455D01*
Y216033D01*
X201589D01*
Y216492D01*
X186962D01*
Y214677D01*
X181557D01*
Y213471D01*
X186962D01*
Y211156D01*
X181557D01*
Y209841D01*
X186962D01*
Y207526D01*
X181557D01*
Y206211D01*
X186962D01*
Y203896D01*
X181557D01*
Y202581D01*
X201589D01*
Y203040D01*
X202455D01*
Y201623D01*
X201589D01*
Y202081D01*
X186962D01*
Y200266D01*
X181557D01*
Y199061D01*
X186962D01*
Y196746D01*
X181557D01*
Y195431D01*
X186962D01*
Y193116D01*
X181557D01*
Y191801D01*
X186962D01*
Y189486D01*
X181557D01*
Y188171D01*
X201589D01*
Y188630D01*
X202455D01*
Y187212D01*
X201589D01*
Y187671D01*
X186962D01*
Y185856D01*
X181557D01*
Y184651D01*
X186962D01*
Y182335D01*
X181557D01*
Y181020D01*
X186962D01*
Y178706D01*
X181557D01*
Y177391D01*
X186962D01*
Y175075D01*
X181557D01*
Y173760D01*
X201589D01*
Y174219D01*
X202455D01*
Y172802D01*
X201589D01*
Y173260D01*
X181057D01*
Y175575D01*
X186462D01*
Y176891D01*
X181057D01*
Y179206D01*
X186462D01*
Y180520D01*
X181057D01*
Y182835D01*
X186462D01*
Y184151D01*
X181057D01*
Y186356D01*
X186462D01*
Y187671D01*
X181057D01*
Y189986D01*
X186462D01*
Y191301D01*
X181057D01*
Y193616D01*
X186462D01*
Y194931D01*
X181057D01*
Y197246D01*
X186462D01*
Y198561D01*
X181057D01*
Y200766D01*
X186462D01*
Y202081D01*
X181057D01*
Y204396D01*
X186462D01*
Y205711D01*
X181057D01*
Y208026D01*
X186462D01*
Y209341D01*
X181057D01*
Y211656D01*
X186462D01*
Y212971D01*
X181057D01*
Y215177D01*
X186462D01*
Y216492D01*
X181057D01*
Y218807D01*
X186462D01*
Y220122D01*
X181057D01*
Y222437D01*
X186462D01*
Y223752D01*
X181057D01*
Y226067D01*
X186462D01*
Y227382D01*
X181057D01*
Y229587D01*
X186462D01*
Y230902D01*
X181057D01*
Y233217D01*
X186462D01*
Y234532D01*
X181057D01*
Y236847D01*
X186462D01*
Y238162D01*
X181057D01*
Y240477D01*
X186462D01*
Y241792D01*
X181057D01*
Y243998D01*
X186462D01*
Y245313D01*
X181057D01*
Y247628D01*
X186462D01*
Y248943D01*
X181057D01*
Y251258D01*
X186462D01*
Y252573D01*
X181057D01*
Y254888D01*
X186462D01*
Y256203D01*
X181057D01*
Y258408D01*
X186462D01*
Y259723D01*
X181057D01*
Y262038D01*
X186462D01*
Y263353D01*
X181057D01*
Y265668D01*
X186462D01*
Y266983D01*
X181057D01*
Y269298D01*
X186462D01*
Y270613D01*
X181057D01*
Y272819D01*
X186462D01*
Y274134D01*
X181057D01*
Y276449D01*
X186462D01*
Y277764D01*
X181057D01*
Y280079D01*
X186462D01*
Y281394D01*
X181057D01*
Y283709D01*
X186462D01*
Y285024D01*
X181057D01*
Y287229D01*
X186462D01*
Y288544D01*
X181057D01*
Y290859D01*
X186462D01*
Y292174D01*
X181057D01*
Y294489D01*
X186462D01*
Y295804D01*
X181057D01*
Y298119D01*
X186462D01*
Y299434D01*
X181057D01*
Y301640D01*
X186462D01*
Y302955D01*
X181057D01*
Y305270D01*
X186462D01*
Y306585D01*
X181057D01*
Y308900D01*
X186462D01*
Y310215D01*
X181057D01*
Y312530D01*
X186462D01*
Y313845D01*
X181057D01*
Y316050D01*
X186462D01*
Y317365D01*
X181057D01*
Y319680D01*
X186462D01*
Y320995D01*
X181057D01*
Y323310D01*
X186462D01*
Y324625D01*
X181057D01*
Y326940D01*
X186462D01*
Y328255D01*
X181057D01*
Y330461D01*
X186462D01*
Y331776D01*
X181057D01*
Y334090D01*
X186462D01*
Y335405D01*
X181057D01*
Y337721D01*
X186462D01*
Y339036D01*
X181057D01*
Y341351D01*
X186462D01*
Y342666D01*
X181057D01*
Y344871D01*
X186462D01*
Y346186D01*
X181057D01*
Y348501D01*
X186462D01*
Y349816D01*
X181057D01*
Y352131D01*
X186462D01*
Y353446D01*
X181057D01*
Y355761D01*
X186462D01*
Y357076D01*
X181057D01*
Y359281D01*
X186462D01*
Y360596D01*
X181057D01*
Y362912D01*
X186462D01*
Y364227D01*
X181057D01*
Y366542D01*
X186462D01*
Y367857D01*
X181057D01*
Y370171D01*
X186462D01*
Y371486D01*
X181057D01*
Y373692D01*
X186462D01*
Y375007D01*
X181057D01*
Y377322D01*
X186462D01*
Y378637D01*
X181057D01*
Y380952D01*
X186462D01*
Y382267D01*
X181057D01*
Y384582D01*
X186462D01*
Y385897D01*
X181057D01*
Y388102D01*
X186462D01*
Y389417D01*
X181057D01*
Y391732D01*
X186462D01*
Y393047D01*
X181057D01*
Y395362D01*
X186462D01*
Y396677D01*
X181057D01*
Y398992D01*
X186462D01*
Y400307D01*
X181057D01*
Y402513D01*
X186462D01*
Y403828D01*
X181057D01*
Y406143D01*
X186462D01*
Y407458D01*
X181057D01*
Y409773D01*
X186462D01*
Y411088D01*
X181057D01*
Y413403D01*
X186462D01*
Y414718D01*
X181057D01*
Y416923D01*
X186462D01*
Y418238D01*
X181057D01*
Y420553D01*
X186462D01*
Y421868D01*
X181057D01*
Y424183D01*
X186462D01*
Y425498D01*
X181057D01*
Y427813D01*
X186462D01*
Y429128D01*
X181057D01*
Y431334D01*
X186462D01*
Y432649D01*
X181057D01*
Y434964D01*
X186462D01*
Y436279D01*
X181057D01*
Y438594D01*
X186462D01*
Y439909D01*
X181057D01*
Y442224D01*
X186462D01*
Y443539D01*
X181057D01*
Y445744D01*
X186462D01*
Y447059D01*
X181057D01*
Y449374D01*
X186462D01*
Y450689D01*
X181057D01*
Y453004D01*
X186462D01*
Y454319D01*
X181057D01*
Y456634D01*
X186462D01*
Y457949D01*
X181057D01*
Y460155D01*
X186462D01*
Y461470D01*
X181057D01*
Y463785D01*
X186462D01*
Y465100D01*
X181057D01*
Y467415D01*
X186462D01*
Y468730D01*
X181057D01*
Y471045D01*
X186462D01*
Y472360D01*
X181057D01*
Y474565D01*
X186462D01*
Y475880D01*
X181057D01*
Y478195D01*
X186462D01*
Y479510D01*
X181057D01*
Y481825D01*
X186462D01*
Y483140D01*
X181057D01*
Y485455D01*
X186462D01*
Y486770D01*
X181057D01*
Y488976D01*
X186462D01*
Y490291D01*
X181057D01*
Y492606D01*
X186462D01*
Y493921D01*
X181057D01*
Y496236D01*
X186462D01*
Y497551D01*
X181057D01*
Y499866D01*
X186462D01*
Y501181D01*
X181057D01*
Y503386D01*
X186462D01*
Y504701D01*
X181057D01*
Y507016D01*
X186462D01*
Y508331D01*
X181057D01*
Y510646D01*
X186462D01*
Y511961D01*
X181057D01*
Y514276D01*
X186462D01*
Y515591D01*
X181057D01*
Y517797D01*
X186462D01*
Y519111D01*
X181057D01*
Y521426D01*
X186462D01*
Y522742D01*
X181057D01*
Y525057D01*
X186462D01*
Y526371D01*
X181057D01*
Y528687D01*
X186462D01*
Y530001D01*
X181057D01*
Y532207D01*
X186462D01*
Y533522D01*
X181057D01*
Y535837D01*
X186462D01*
Y537152D01*
X181057D01*
Y539467D01*
X186462D01*
Y540782D01*
X181057D01*
Y543097D01*
X186462D01*
Y544412D01*
X181057D01*
Y546618D01*
X186462D01*
Y547932D01*
X181057D01*
Y550247D01*
X186462D01*
Y551562D01*
X181057D01*
Y553877D01*
X186462D01*
Y555193D01*
X181057D01*
Y557507D01*
X186462D01*
Y558822D01*
X181057D01*
Y561028D01*
X186462D01*
Y562343D01*
X181057D01*
Y564658D01*
X186462D01*
Y565973D01*
X181057D01*
Y568288D01*
X186462D01*
Y569603D01*
X181057D01*
Y571918D01*
X186462D01*
Y573233D01*
X181057D01*
Y575438D01*
X186462D01*
Y576753D01*
X181057D01*
Y579068D01*
X186462D01*
Y580383D01*
X181057D01*
Y582698D01*
X186462D01*
Y584013D01*
X181057D01*
Y586328D01*
X186462D01*
Y587643D01*
X181057D01*
Y588636D01*
X180598D01*
Y589699D01*
X182016D01*
Y588636D01*
D02*
G37*
G36*
X207138Y556698D02*
X206272D01*
Y557157D01*
X205854D01*
Y556262D01*
X206167Y556240D01*
X206775Y556083D01*
X207345Y555820D01*
X207859Y555459D01*
X208300Y555012D01*
X208654Y554493D01*
X208909Y553918D01*
X209056Y553308D01*
X209074Y552994D01*
X207872Y552994D01*
X207872D01*
X207815Y553336D01*
X207552Y553973D01*
X207109Y554502D01*
X206529Y554875D01*
X206204Y554991D01*
Y553243D01*
X205003D01*
Y554991D01*
X204678Y554875D01*
X204098Y554502D01*
X203655Y553973D01*
X203392Y553336D01*
X203335Y552994D01*
X202132D01*
X202132Y552994D01*
X202151Y553308D01*
X202298Y553918D01*
X202553Y554493D01*
X202907Y555012D01*
X203348Y555459D01*
X203862Y555820D01*
X204432Y556083D01*
X205040Y556240D01*
X205353Y556262D01*
X205353Y557657D01*
X206272D01*
Y558115D01*
X207138D01*
Y556698D01*
D02*
G37*
G36*
X209056Y552281D02*
X208909Y551671D01*
X208654Y551096D01*
X208300Y550577D01*
X207859Y550130D01*
X207345Y549769D01*
X206775Y549506D01*
X206167Y549349D01*
X205854Y549327D01*
Y547932D01*
X204935D01*
Y547474D01*
X204069D01*
Y548891D01*
X204935D01*
Y548432D01*
X205353D01*
Y549327D01*
X205353Y549327D01*
X205040Y549349D01*
X204432Y549506D01*
X203862Y549769D01*
X203348Y550130D01*
X202907Y550577D01*
X202553Y551096D01*
X202298Y551671D01*
X202151Y552281D01*
X202132Y552595D01*
X203335D01*
Y552595D01*
X203392Y552253D01*
X203655Y551616D01*
X204098Y551087D01*
X204678Y550714D01*
X205003Y550598D01*
Y552346D01*
X206204D01*
Y550598D01*
X206204Y550598D01*
X206204D01*
X206204D01*
D01*
X206529Y550714D01*
X207109Y551087D01*
X207552Y551616D01*
X207815Y552253D01*
X207872Y552595D01*
X209074Y552595D01*
X209056Y552281D01*
D02*
G37*
G36*
X207138Y542287D02*
X206272D01*
Y542746D01*
X205854D01*
Y541852D01*
X206167Y541829D01*
X206775Y541673D01*
X207345Y541409D01*
X207859Y541048D01*
X208300Y540601D01*
X208654Y540082D01*
X208909Y539508D01*
X209056Y538898D01*
X209074Y538584D01*
X207872Y538584D01*
X207872D01*
X207815Y538925D01*
X207552Y539563D01*
X207109Y540092D01*
X206529Y540464D01*
X206204Y540580D01*
Y538833D01*
X205003D01*
Y540580D01*
X204678Y540464D01*
X204098Y540092D01*
X203655Y539563D01*
X203392Y538925D01*
X203335Y538584D01*
X202132D01*
X202132Y538584D01*
X202151Y538898D01*
X202298Y539508D01*
X202553Y540082D01*
X202907Y540601D01*
X203348Y541048D01*
X203862Y541409D01*
X204432Y541673D01*
X205040Y541829D01*
X205353Y541852D01*
X205353Y543246D01*
X206272D01*
Y543705D01*
X207138D01*
Y542287D01*
D02*
G37*
G36*
X209056Y537871D02*
X208909Y537260D01*
X208654Y536686D01*
X208300Y536167D01*
X207859Y535720D01*
X207345Y535359D01*
X206775Y535096D01*
X206167Y534939D01*
X205854Y534916D01*
Y533522D01*
X204935D01*
Y533063D01*
X204069D01*
Y534481D01*
X204935D01*
Y534022D01*
X205353D01*
Y534916D01*
X205353Y534916D01*
X205040Y534939D01*
X204432Y535096D01*
X203862Y535359D01*
X203348Y535720D01*
X202907Y536167D01*
X202553Y536686D01*
X202298Y537260D01*
X202151Y537871D01*
X202132Y538184D01*
X203335D01*
Y538184D01*
X203392Y537843D01*
X203655Y537206D01*
X204098Y536676D01*
X204678Y536304D01*
X205003Y536188D01*
Y537935D01*
X206204D01*
Y536188D01*
X206204Y536188D01*
X206204D01*
X206204D01*
D01*
X206529Y536304D01*
X207109Y536676D01*
X207552Y537206D01*
X207815Y537843D01*
X207872Y538184D01*
X209074Y538184D01*
X209056Y537871D01*
D02*
G37*
G36*
X207138Y527877D02*
X206272D01*
Y528336D01*
X205854D01*
Y527441D01*
X206167Y527419D01*
X206775Y527262D01*
X207345Y526999D01*
X207859Y526638D01*
X208300Y526191D01*
X208654Y525672D01*
X208909Y525098D01*
X209056Y524487D01*
X209074Y524174D01*
X207872Y524174D01*
X207872D01*
X207815Y524515D01*
X207552Y525152D01*
X207109Y525681D01*
X206529Y526054D01*
X206204Y526170D01*
Y524422D01*
X205003D01*
Y526170D01*
X204678Y526054D01*
X204098Y525681D01*
X203655Y525152D01*
X203392Y524515D01*
X203335Y524174D01*
X202132D01*
X202132Y524174D01*
X202151Y524487D01*
X202298Y525098D01*
X202553Y525672D01*
X202907Y526191D01*
X203348Y526638D01*
X203862Y526999D01*
X204432Y527262D01*
X205040Y527419D01*
X205353Y527441D01*
X205353Y528836D01*
X206272D01*
Y529294D01*
X207138D01*
Y527877D01*
D02*
G37*
G36*
X209056Y523460D02*
X208909Y522850D01*
X208654Y522276D01*
X208300Y521757D01*
X207859Y521309D01*
X207345Y520948D01*
X206775Y520685D01*
X206167Y520528D01*
X205854Y520506D01*
Y519111D01*
X204935D01*
Y518653D01*
X204069D01*
Y520070D01*
X204935D01*
Y519612D01*
X205353D01*
Y520506D01*
X205353Y520506D01*
X205040Y520528D01*
X204432Y520685D01*
X203862Y520948D01*
X203348Y521309D01*
X202907Y521757D01*
X202553Y522276D01*
X202298Y522850D01*
X202151Y523460D01*
X202132Y523774D01*
X203335D01*
Y523774D01*
X203392Y523432D01*
X203655Y522795D01*
X204098Y522266D01*
X204678Y521893D01*
X205003Y521777D01*
Y523525D01*
X206204D01*
Y521777D01*
X206204Y521777D01*
X206204D01*
X206204D01*
D01*
X206529Y521893D01*
X207109Y522266D01*
X207552Y522795D01*
X207815Y523432D01*
X207872Y523774D01*
X209074Y523774D01*
X209056Y523460D01*
D02*
G37*
G36*
X207138Y513467D02*
X206272D01*
Y513925D01*
X205854D01*
Y513031D01*
X206167Y513008D01*
X206775Y512852D01*
X207345Y512589D01*
X207859Y512227D01*
X208300Y511780D01*
X208654Y511261D01*
X208909Y510687D01*
X209056Y510077D01*
X209074Y509763D01*
X207872Y509763D01*
X207872D01*
X207815Y510104D01*
X207552Y510742D01*
X207109Y511271D01*
X206529Y511643D01*
X206204Y511760D01*
Y510012D01*
X205003D01*
Y511760D01*
X204678Y511643D01*
X204098Y511271D01*
X203655Y510742D01*
X203392Y510104D01*
X203335Y509763D01*
X202132D01*
X202132Y509763D01*
X202151Y510077D01*
X202298Y510687D01*
X202553Y511261D01*
X202907Y511780D01*
X203348Y512227D01*
X203862Y512589D01*
X204432Y512852D01*
X205040Y513008D01*
X205353Y513031D01*
X205353Y514425D01*
X206272D01*
Y514884D01*
X207138D01*
Y513467D01*
D02*
G37*
G36*
X209056Y509050D02*
X208909Y508439D01*
X208654Y507865D01*
X208300Y507346D01*
X207859Y506899D01*
X207345Y506538D01*
X206775Y506275D01*
X206167Y506118D01*
X205854Y506095D01*
Y504701D01*
X204935D01*
Y504242D01*
X204069D01*
Y505660D01*
X204935D01*
Y505201D01*
X205353D01*
Y506095D01*
X205353Y506095D01*
X205040Y506118D01*
X204432Y506275D01*
X203862Y506538D01*
X203348Y506899D01*
X202907Y507346D01*
X202553Y507865D01*
X202298Y508439D01*
X202151Y509050D01*
X202132Y509363D01*
X203335D01*
Y509363D01*
X203392Y509022D01*
X203655Y508385D01*
X204098Y507856D01*
X204678Y507483D01*
X205003Y507367D01*
Y509114D01*
X206204D01*
Y507367D01*
X206204Y507367D01*
X206204D01*
X206204D01*
D01*
X206529Y507483D01*
X207109Y507856D01*
X207552Y508385D01*
X207815Y509022D01*
X207872Y509363D01*
X209074Y509363D01*
X209056Y509050D01*
D02*
G37*
G36*
X207138Y499056D02*
X206272D01*
Y499515D01*
X205854D01*
Y498621D01*
X206167Y498598D01*
X206775Y498441D01*
X207345Y498178D01*
X207859Y497817D01*
X208300Y497370D01*
X208654Y496851D01*
X208909Y496277D01*
X209056Y495666D01*
X209074Y495353D01*
X207872Y495353D01*
X207872D01*
X207815Y495694D01*
X207552Y496331D01*
X207109Y496860D01*
X206529Y497233D01*
X206204Y497349D01*
Y495602D01*
X205003D01*
Y497349D01*
X204678Y497233D01*
X204098Y496860D01*
X203655Y496331D01*
X203392Y495694D01*
X203335Y495353D01*
X202132D01*
X202132Y495353D01*
X202151Y495666D01*
X202298Y496277D01*
X202553Y496851D01*
X202907Y497370D01*
X203348Y497817D01*
X203862Y498178D01*
X204432Y498441D01*
X205040Y498598D01*
X205353Y498621D01*
X205353Y500015D01*
X206272D01*
Y500473D01*
X207138D01*
Y499056D01*
D02*
G37*
G36*
X209056Y494639D02*
X208909Y494029D01*
X208654Y493455D01*
X208300Y492936D01*
X207859Y492488D01*
X207345Y492127D01*
X206775Y491864D01*
X206167Y491707D01*
X205854Y491685D01*
Y490291D01*
X204935D01*
Y489832D01*
X204069D01*
Y491249D01*
X204935D01*
Y490791D01*
X205353D01*
Y491685D01*
X205353Y491685D01*
X205040Y491707D01*
X204432Y491864D01*
X203862Y492127D01*
X203348Y492488D01*
X202907Y492936D01*
X202553Y493455D01*
X202298Y494029D01*
X202151Y494639D01*
X202132Y494953D01*
X203335D01*
Y494953D01*
X203392Y494612D01*
X203655Y493974D01*
X204098Y493445D01*
X204678Y493073D01*
X205003Y492956D01*
Y494704D01*
X206204D01*
Y492956D01*
X206204Y492956D01*
X206204D01*
X206204D01*
D01*
X206529Y493073D01*
X207109Y493445D01*
X207552Y493974D01*
X207815Y494612D01*
X207872Y494953D01*
X209074Y494953D01*
X209056Y494639D01*
D02*
G37*
G36*
X207138Y484646D02*
X206272D01*
Y485104D01*
X205854D01*
Y484210D01*
X206167Y484187D01*
X206775Y484031D01*
X207345Y483768D01*
X207859Y483407D01*
X208300Y482959D01*
X208654Y482440D01*
X208909Y481866D01*
X209056Y481256D01*
X209074Y480942D01*
X207872Y480942D01*
X207872D01*
X207815Y481283D01*
X207552Y481921D01*
X207109Y482450D01*
X206529Y482822D01*
X206204Y482939D01*
Y481191D01*
X205003D01*
Y482939D01*
X204678Y482822D01*
X204098Y482450D01*
X203655Y481921D01*
X203392Y481283D01*
X203335Y480942D01*
X202132D01*
X202132Y480942D01*
X202151Y481256D01*
X202298Y481866D01*
X202553Y482440D01*
X202907Y482959D01*
X203348Y483407D01*
X203862Y483768D01*
X204432Y484031D01*
X205040Y484187D01*
X205353Y484210D01*
X205353Y485604D01*
X206272D01*
Y486063D01*
X207138D01*
Y484646D01*
D02*
G37*
G36*
X209056Y480229D02*
X208909Y479618D01*
X208654Y479044D01*
X208300Y478525D01*
X207859Y478078D01*
X207345Y477717D01*
X206775Y477454D01*
X206167Y477297D01*
X205854Y477274D01*
Y475880D01*
X204935D01*
Y475421D01*
X204069D01*
Y476839D01*
X204935D01*
Y476380D01*
X205353D01*
Y477274D01*
X205353Y477274D01*
X205040Y477297D01*
X204432Y477454D01*
X203862Y477717D01*
X203348Y478078D01*
X202907Y478525D01*
X202553Y479044D01*
X202298Y479618D01*
X202151Y480229D01*
X202132Y480542D01*
X203335D01*
Y480542D01*
X203392Y480201D01*
X203655Y479564D01*
X204098Y479035D01*
X204678Y478662D01*
X205003Y478546D01*
Y480293D01*
X206204D01*
Y478546D01*
X206204Y478546D01*
X206204D01*
X206204D01*
D01*
X206529Y478662D01*
X207109Y479035D01*
X207552Y479564D01*
X207815Y480201D01*
X207872Y480542D01*
X209074Y480542D01*
X209056Y480229D01*
D02*
G37*
G36*
X207138Y470235D02*
X206272D01*
Y470694D01*
X205854D01*
Y469800D01*
X206167Y469777D01*
X206775Y469620D01*
X207345Y469357D01*
X207859Y468996D01*
X208300Y468549D01*
X208654Y468030D01*
X208909Y467456D01*
X209056Y466845D01*
X209074Y466532D01*
X207872Y466532D01*
X207872D01*
X207815Y466873D01*
X207552Y467510D01*
X207109Y468039D01*
X206529Y468412D01*
X206204Y468528D01*
Y466781D01*
X205003D01*
Y468528D01*
X204678Y468412D01*
X204098Y468039D01*
X203655Y467510D01*
X203392Y466873D01*
X203335Y466532D01*
X202132D01*
X202132Y466532D01*
X202151Y466845D01*
X202298Y467456D01*
X202553Y468030D01*
X202907Y468549D01*
X203348Y468996D01*
X203862Y469357D01*
X204432Y469620D01*
X205040Y469777D01*
X205353Y469800D01*
X205353Y471194D01*
X206272D01*
Y471653D01*
X207138D01*
Y470235D01*
D02*
G37*
G36*
X209056Y465818D02*
X208909Y465208D01*
X208654Y464634D01*
X208300Y464115D01*
X207859Y463667D01*
X207345Y463306D01*
X206775Y463043D01*
X206167Y462886D01*
X205854Y462864D01*
Y461470D01*
X204935D01*
Y461011D01*
X204069D01*
Y462428D01*
X204935D01*
Y461970D01*
X205353D01*
Y462864D01*
X205353Y462864D01*
X205040Y462886D01*
X204432Y463043D01*
X203862Y463306D01*
X203348Y463667D01*
X202907Y464115D01*
X202553Y464634D01*
X202298Y465208D01*
X202151Y465818D01*
X202132Y466132D01*
X203335D01*
Y466132D01*
X203392Y465791D01*
X203655Y465153D01*
X204098Y464624D01*
X204678Y464252D01*
X205003Y464135D01*
Y465883D01*
X206204D01*
Y464135D01*
X206204Y464135D01*
X206204D01*
X206204D01*
D01*
X206529Y464252D01*
X207109Y464624D01*
X207552Y465153D01*
X207815Y465791D01*
X207872Y466132D01*
X209074Y466132D01*
X209056Y465818D01*
D02*
G37*
G36*
X207138Y455825D02*
X206272D01*
Y456283D01*
X205854D01*
Y455389D01*
X206167Y455367D01*
X206775Y455210D01*
X207345Y454947D01*
X207859Y454586D01*
X208300Y454138D01*
X208654Y453619D01*
X208909Y453045D01*
X209056Y452435D01*
X209074Y452121D01*
X207872Y452121D01*
X207872D01*
X207815Y452462D01*
X207552Y453100D01*
X207109Y453629D01*
X206529Y454002D01*
X206204Y454118D01*
Y452370D01*
X205003D01*
Y454118D01*
X204678Y454001D01*
X204098Y453629D01*
X203655Y453100D01*
X203392Y452462D01*
X203335Y452121D01*
X202132D01*
X202132Y452121D01*
X202151Y452435D01*
X202298Y453045D01*
X202553Y453619D01*
X202907Y454138D01*
X203348Y454586D01*
X203862Y454947D01*
X204432Y455210D01*
X205040Y455367D01*
X205353Y455389D01*
X205353Y456783D01*
X206272D01*
Y457242D01*
X207138D01*
Y455825D01*
D02*
G37*
G36*
X209056Y451408D02*
X208909Y450797D01*
X208654Y450223D01*
X208300Y449704D01*
X207859Y449257D01*
X207345Y448896D01*
X206775Y448633D01*
X206167Y448476D01*
X205854Y448453D01*
Y447059D01*
X204935D01*
Y446601D01*
X204069D01*
Y448018D01*
X204935D01*
Y447559D01*
X205353D01*
Y448453D01*
X205353Y448453D01*
X205040Y448476D01*
X204432Y448633D01*
X203862Y448896D01*
X203348Y449257D01*
X202907Y449704D01*
X202553Y450223D01*
X202298Y450797D01*
X202151Y451408D01*
X202132Y451721D01*
X203335D01*
Y451721D01*
X203392Y451380D01*
X203655Y450743D01*
X204098Y450214D01*
X204678Y449841D01*
X205003Y449725D01*
Y451473D01*
X206204D01*
Y449725D01*
X206204Y449725D01*
X206204D01*
X206204D01*
D01*
X206529Y449841D01*
X207109Y450214D01*
X207552Y450743D01*
X207815Y451380D01*
X207872Y451721D01*
X209074Y451721D01*
X209056Y451408D01*
D02*
G37*
G36*
X207138Y441414D02*
X206272D01*
Y441873D01*
X205854D01*
Y440979D01*
X206167Y440956D01*
X206775Y440799D01*
X207345Y440536D01*
X207859Y440175D01*
X208300Y439728D01*
X208654Y439209D01*
X208909Y438635D01*
X209056Y438024D01*
X209074Y437711D01*
X207872Y437711D01*
X207872D01*
X207815Y438052D01*
X207552Y438689D01*
X207109Y439219D01*
X206529Y439591D01*
X206204Y439707D01*
Y437960D01*
X205003D01*
Y439707D01*
X204678Y439591D01*
X204098Y439218D01*
X203655Y438689D01*
X203392Y438052D01*
X203335Y437711D01*
X202132D01*
X202132Y437711D01*
X202151Y438024D01*
X202298Y438635D01*
X202553Y439209D01*
X202907Y439728D01*
X203348Y440175D01*
X203862Y440536D01*
X204432Y440799D01*
X205040Y440956D01*
X205353Y440979D01*
X205353Y442373D01*
X206272D01*
Y442832D01*
X207138D01*
Y441414D01*
D02*
G37*
G36*
X209056Y436997D02*
X208909Y436387D01*
X208654Y435813D01*
X208300Y435294D01*
X207859Y434846D01*
X207345Y434485D01*
X206775Y434222D01*
X206167Y434066D01*
X205854Y434043D01*
Y432649D01*
X204935D01*
Y432190D01*
X204069D01*
Y433607D01*
X204935D01*
Y433149D01*
X205353D01*
Y434043D01*
X205353Y434043D01*
X205040Y434066D01*
X204432Y434222D01*
X203862Y434485D01*
X203348Y434846D01*
X202907Y435294D01*
X202553Y435813D01*
X202298Y436387D01*
X202151Y436997D01*
X202132Y437311D01*
X203335D01*
Y437311D01*
X203392Y436970D01*
X203655Y436332D01*
X204098Y435803D01*
X204678Y435431D01*
X205003Y435315D01*
Y437062D01*
X206204D01*
Y435315D01*
X206204Y435315D01*
X206204D01*
X206204D01*
D01*
X206529Y435431D01*
X207109Y435803D01*
X207552Y436332D01*
X207815Y436970D01*
X207872Y437311D01*
X209074Y437311D01*
X209056Y436997D01*
D02*
G37*
G36*
X207138Y427004D02*
X206272D01*
Y427462D01*
X205854D01*
Y426568D01*
X206167Y426546D01*
X206775Y426389D01*
X207345Y426126D01*
X207859Y425765D01*
X208300Y425317D01*
X208654Y424798D01*
X208909Y424224D01*
X209056Y423614D01*
X209074Y423300D01*
X207872Y423300D01*
X207872D01*
X207815Y423641D01*
X207552Y424279D01*
X207109Y424808D01*
X206529Y425180D01*
X206204Y425297D01*
Y423549D01*
X205003D01*
Y425297D01*
X204678Y425180D01*
X204098Y424808D01*
X203655Y424279D01*
X203392Y423641D01*
X203335Y423300D01*
X202132D01*
X202132Y423300D01*
X202151Y423614D01*
X202298Y424224D01*
X202553Y424798D01*
X202907Y425317D01*
X203348Y425765D01*
X203862Y426126D01*
X204432Y426389D01*
X205040Y426546D01*
X205353Y426568D01*
X205353Y427962D01*
X206272D01*
Y428421D01*
X207138D01*
Y427004D01*
D02*
G37*
G36*
X209056Y422587D02*
X208909Y421976D01*
X208654Y421402D01*
X208300Y420883D01*
X207859Y420436D01*
X207345Y420075D01*
X206775Y419812D01*
X206167Y419655D01*
X205854Y419632D01*
Y418238D01*
X204935D01*
Y417780D01*
X204069D01*
Y419197D01*
X204935D01*
Y418738D01*
X205353D01*
Y419632D01*
X205353Y419632D01*
X205040Y419655D01*
X204432Y419812D01*
X203862Y420075D01*
X203348Y420436D01*
X202907Y420883D01*
X202553Y421402D01*
X202298Y421976D01*
X202151Y422587D01*
X202132Y422900D01*
X203335D01*
Y422900D01*
X203392Y422559D01*
X203655Y421922D01*
X204098Y421393D01*
X204678Y421020D01*
X205003Y420904D01*
Y422651D01*
X206204D01*
Y420904D01*
X206204Y420904D01*
X206204D01*
X206204D01*
D01*
X206529Y421020D01*
X207109Y421393D01*
X207552Y421922D01*
X207815Y422559D01*
X207872Y422900D01*
X209074Y422900D01*
X209056Y422587D01*
D02*
G37*
G36*
X207138Y412593D02*
X206272D01*
Y413052D01*
X205854D01*
Y412158D01*
X206167Y412135D01*
X206775Y411978D01*
X207345Y411715D01*
X207859Y411354D01*
X208300Y410907D01*
X208654Y410388D01*
X208909Y409814D01*
X209056Y409203D01*
X209074Y408890D01*
X207872Y408890D01*
X207872D01*
X207815Y409231D01*
X207552Y409868D01*
X207109Y410397D01*
X206529Y410770D01*
X206204Y410886D01*
Y409139D01*
X205003D01*
Y410886D01*
X204678Y410770D01*
X204098Y410397D01*
X203655Y409868D01*
X203392Y409231D01*
X203335Y408890D01*
X202132D01*
X202132Y408890D01*
X202151Y409203D01*
X202298Y409814D01*
X202553Y410388D01*
X202907Y410907D01*
X203348Y411354D01*
X203862Y411715D01*
X204432Y411978D01*
X205040Y412135D01*
X205353Y412158D01*
X205353Y413552D01*
X206272D01*
Y414011D01*
X207138D01*
Y412593D01*
D02*
G37*
G36*
X209056Y408176D02*
X208909Y407566D01*
X208654Y406992D01*
X208300Y406473D01*
X207859Y406026D01*
X207345Y405664D01*
X206775Y405401D01*
X206167Y405245D01*
X205854Y405222D01*
Y403828D01*
X204935D01*
Y403369D01*
X204069D01*
Y404786D01*
X204935D01*
Y404328D01*
X205353D01*
Y405222D01*
X205353Y405222D01*
X205040Y405245D01*
X204432Y405401D01*
X203862Y405664D01*
X203348Y406026D01*
X202907Y406473D01*
X202553Y406992D01*
X202298Y407566D01*
X202151Y408176D01*
X202132Y408490D01*
X203335D01*
Y408490D01*
X203392Y408149D01*
X203655Y407512D01*
X204098Y406982D01*
X204678Y406610D01*
X205003Y406494D01*
Y408241D01*
X206204D01*
Y406494D01*
X206204Y406494D01*
X206204D01*
X206204D01*
D01*
X206529Y406610D01*
X207109Y406982D01*
X207552Y407512D01*
X207815Y408149D01*
X207872Y408490D01*
X209074Y408490D01*
X209056Y408176D01*
D02*
G37*
G36*
X207138Y398183D02*
X206272D01*
Y398641D01*
X205854D01*
Y397747D01*
X206167Y397725D01*
X206775Y397568D01*
X207345Y397305D01*
X207859Y396944D01*
X208300Y396497D01*
X208654Y395977D01*
X208909Y395403D01*
X209056Y394793D01*
X209074Y394479D01*
X207872Y394479D01*
X207872D01*
X207815Y394821D01*
X207552Y395458D01*
X207109Y395987D01*
X206529Y396360D01*
X206204Y396476D01*
Y394728D01*
X205003D01*
Y396476D01*
X204678Y396360D01*
X204098Y395987D01*
X203655Y395458D01*
X203392Y394821D01*
X203335Y394479D01*
X202132D01*
X202132Y394479D01*
X202151Y394793D01*
X202298Y395403D01*
X202553Y395977D01*
X202907Y396497D01*
X203348Y396944D01*
X203862Y397305D01*
X204432Y397568D01*
X205040Y397725D01*
X205353Y397747D01*
X205353Y399142D01*
X206272D01*
Y399600D01*
X207138D01*
Y398183D01*
D02*
G37*
G36*
X209056Y393766D02*
X208909Y393156D01*
X208654Y392581D01*
X208300Y392062D01*
X207859Y391615D01*
X207345Y391254D01*
X206775Y390991D01*
X206167Y390834D01*
X205854Y390812D01*
Y389417D01*
X204935D01*
Y388959D01*
X204069D01*
Y390376D01*
X204935D01*
Y389917D01*
X205353D01*
Y390812D01*
X205353Y390812D01*
X205040Y390834D01*
X204432Y390991D01*
X203862Y391254D01*
X203348Y391615D01*
X202907Y392062D01*
X202553Y392581D01*
X202298Y393156D01*
X202151Y393766D01*
X202132Y394079D01*
X203335D01*
Y394079D01*
X203392Y393738D01*
X203655Y393101D01*
X204098Y392572D01*
X204678Y392199D01*
X205003Y392083D01*
Y393831D01*
X206204D01*
Y392083D01*
X206204Y392083D01*
X206204D01*
X206204D01*
D01*
X206529Y392199D01*
X207109Y392572D01*
X207552Y393101D01*
X207815Y393738D01*
X207872Y394079D01*
X209074Y394079D01*
X209056Y393766D01*
D02*
G37*
G36*
X207138Y383772D02*
X206272D01*
Y384231D01*
X205854D01*
Y383337D01*
X206167Y383314D01*
X206775Y383157D01*
X207345Y382894D01*
X207859Y382533D01*
X208300Y382086D01*
X208654Y381567D01*
X208909Y380993D01*
X209056Y380382D01*
X209074Y380069D01*
X207872Y380069D01*
X207872D01*
X207815Y380410D01*
X207552Y381047D01*
X207109Y381577D01*
X206529Y381949D01*
X206204Y382065D01*
Y380318D01*
X205003D01*
Y382065D01*
X204678Y381949D01*
X204098Y381577D01*
X203655Y381047D01*
X203392Y380410D01*
X203335Y380069D01*
X202132D01*
X202132Y380069D01*
X202151Y380382D01*
X202298Y380993D01*
X202553Y381567D01*
X202907Y382086D01*
X203348Y382533D01*
X203862Y382894D01*
X204432Y383157D01*
X205040Y383314D01*
X205353Y383337D01*
X205353Y384731D01*
X206272D01*
Y385190D01*
X207138D01*
Y383772D01*
D02*
G37*
G36*
X209056Y379356D02*
X208909Y378745D01*
X208654Y378171D01*
X208300Y377652D01*
X207859Y377205D01*
X207345Y376844D01*
X206775Y376580D01*
X206167Y376424D01*
X205854Y376401D01*
Y375007D01*
X204935D01*
Y374548D01*
X204069D01*
Y375966D01*
X204935D01*
Y375507D01*
X205353D01*
Y376401D01*
X205353Y376401D01*
X205040Y376424D01*
X204432Y376580D01*
X203862Y376844D01*
X203348Y377205D01*
X202907Y377652D01*
X202553Y378171D01*
X202298Y378745D01*
X202151Y379356D01*
X202132Y379669D01*
X203335D01*
Y379669D01*
X203392Y379328D01*
X203655Y378691D01*
X204098Y378161D01*
X204678Y377789D01*
X205003Y377673D01*
Y379420D01*
X206204D01*
Y377673D01*
X206204Y377673D01*
X206204D01*
X206204D01*
D01*
X206529Y377789D01*
X207109Y378161D01*
X207552Y378691D01*
X207815Y379328D01*
X207872Y379669D01*
X209074Y379669D01*
X209056Y379356D01*
D02*
G37*
G36*
X207138Y369362D02*
X206272D01*
Y369821D01*
X205854D01*
Y368926D01*
X206167Y368904D01*
X206775Y368747D01*
X207345Y368484D01*
X207859Y368123D01*
X208300Y367676D01*
X208654Y367157D01*
X208909Y366582D01*
X209056Y365972D01*
X209074Y365658D01*
X207872Y365658D01*
X207872D01*
X207815Y366000D01*
X207552Y366637D01*
X207109Y367166D01*
X206529Y367539D01*
X206204Y367655D01*
Y365907D01*
X205003D01*
Y367655D01*
X204678Y367539D01*
X204098Y367166D01*
X203655Y366637D01*
X203392Y366000D01*
X203335Y365658D01*
X202132D01*
X202132Y365658D01*
X202151Y365972D01*
X202298Y366582D01*
X202553Y367157D01*
X202907Y367676D01*
X203348Y368123D01*
X203862Y368484D01*
X204432Y368747D01*
X205040Y368904D01*
X205353Y368926D01*
X205353Y370321D01*
X206272D01*
Y370779D01*
X207138D01*
Y369362D01*
D02*
G37*
G36*
X209056Y364945D02*
X208909Y364335D01*
X208654Y363760D01*
X208300Y363241D01*
X207859Y362794D01*
X207345Y362433D01*
X206775Y362170D01*
X206167Y362013D01*
X205854Y361991D01*
Y360596D01*
X204935D01*
Y360138D01*
X204069D01*
Y361555D01*
X204935D01*
Y361097D01*
X205353D01*
Y361991D01*
X205353Y361991D01*
X205040Y362013D01*
X204432Y362170D01*
X203862Y362433D01*
X203348Y362794D01*
X202907Y363241D01*
X202553Y363760D01*
X202298Y364335D01*
X202151Y364945D01*
X202132Y365259D01*
X203335D01*
Y365259D01*
X203392Y364917D01*
X203655Y364280D01*
X204098Y363751D01*
X204678Y363378D01*
X205003Y363262D01*
Y365010D01*
X206204D01*
Y363262D01*
X206204Y363262D01*
X206204D01*
X206204D01*
D01*
X206529Y363378D01*
X207109Y363751D01*
X207552Y364280D01*
X207815Y364917D01*
X207872Y365259D01*
X209074Y365259D01*
X209056Y364945D01*
D02*
G37*
G36*
X207138Y354952D02*
X206272D01*
Y355410D01*
X205854D01*
Y354516D01*
X206167Y354493D01*
X206775Y354337D01*
X207345Y354074D01*
X207859Y353712D01*
X208300Y353265D01*
X208654Y352746D01*
X208909Y352172D01*
X209056Y351562D01*
X209074Y351248D01*
X207872Y351248D01*
X207872D01*
X207815Y351589D01*
X207552Y352226D01*
X207109Y352756D01*
X206529Y353128D01*
X206204Y353244D01*
Y351497D01*
X205003D01*
Y353244D01*
X204678Y353128D01*
X204098Y352756D01*
X203655Y352226D01*
X203392Y351589D01*
X203335Y351248D01*
X202132D01*
X202132Y351248D01*
X202151Y351562D01*
X202298Y352172D01*
X202553Y352746D01*
X202907Y353265D01*
X203348Y353712D01*
X203862Y354074D01*
X204432Y354337D01*
X205040Y354493D01*
X205353Y354516D01*
X205353Y355910D01*
X206272D01*
Y356369D01*
X207138D01*
Y354952D01*
D02*
G37*
G36*
X209056Y350535D02*
X208909Y349924D01*
X208654Y349350D01*
X208300Y348831D01*
X207859Y348384D01*
X207345Y348023D01*
X206775Y347760D01*
X206167Y347603D01*
X205854Y347580D01*
Y346186D01*
X204935D01*
Y345727D01*
X204069D01*
Y347145D01*
X204935D01*
Y346686D01*
X205353D01*
Y347580D01*
X205353Y347580D01*
X205040Y347603D01*
X204432Y347760D01*
X203862Y348023D01*
X203348Y348384D01*
X202907Y348831D01*
X202553Y349350D01*
X202298Y349924D01*
X202151Y350535D01*
X202132Y350848D01*
X203335D01*
Y350848D01*
X203392Y350507D01*
X203655Y349870D01*
X204098Y349340D01*
X204678Y348968D01*
X205003Y348852D01*
Y350599D01*
X206204D01*
Y348852D01*
X206204Y348852D01*
X206204D01*
X206204D01*
D01*
X206529Y348968D01*
X207109Y349340D01*
X207552Y349870D01*
X207815Y350507D01*
X207872Y350848D01*
X209074Y350848D01*
X209056Y350535D01*
D02*
G37*
G36*
X207138Y340541D02*
X206272D01*
Y341000D01*
X205854D01*
Y340105D01*
X206167Y340083D01*
X206775Y339926D01*
X207345Y339663D01*
X207859Y339302D01*
X208300Y338855D01*
X208654Y338336D01*
X208909Y337761D01*
X209056Y337151D01*
X209074Y336838D01*
X207872Y336838D01*
X207872D01*
X207815Y337179D01*
X207552Y337816D01*
X207109Y338345D01*
X206529Y338718D01*
X206204Y338834D01*
Y337086D01*
X205003D01*
Y338834D01*
X204678Y338718D01*
X204098Y338345D01*
X203655Y337816D01*
X203392Y337179D01*
X203335Y336838D01*
X202132D01*
X202132Y336838D01*
X202151Y337151D01*
X202298Y337761D01*
X202553Y338336D01*
X202907Y338855D01*
X203348Y339302D01*
X203862Y339663D01*
X204432Y339926D01*
X205040Y340083D01*
X205353Y340105D01*
X205353Y341500D01*
X206272D01*
Y341958D01*
X207138D01*
Y340541D01*
D02*
G37*
G36*
X209056Y336124D02*
X208909Y335514D01*
X208654Y334940D01*
X208300Y334420D01*
X207859Y333973D01*
X207345Y333612D01*
X206775Y333349D01*
X206167Y333192D01*
X205854Y333170D01*
Y331775D01*
X204935D01*
Y331317D01*
X204069D01*
Y332734D01*
X204935D01*
Y332276D01*
X205353D01*
Y333170D01*
X205353Y333170D01*
X205040Y333192D01*
X204432Y333349D01*
X203862Y333612D01*
X203348Y333973D01*
X202907Y334420D01*
X202553Y334940D01*
X202298Y335514D01*
X202151Y336124D01*
X202132Y336438D01*
X203335D01*
Y336438D01*
X203392Y336096D01*
X203655Y335459D01*
X204098Y334930D01*
X204678Y334557D01*
X205003Y334441D01*
Y336189D01*
X206204D01*
Y334441D01*
X206204Y334441D01*
X206204D01*
X206204D01*
D01*
X206529Y334557D01*
X207109Y334930D01*
X207552Y335459D01*
X207815Y336096D01*
X207872Y336438D01*
X209074Y336438D01*
X209056Y336124D01*
D02*
G37*
G36*
X207138Y326131D02*
X206272D01*
Y326589D01*
X205854D01*
Y325695D01*
X206167Y325672D01*
X206775Y325516D01*
X207345Y325253D01*
X207859Y324891D01*
X208300Y324444D01*
X208654Y323925D01*
X208909Y323351D01*
X209056Y322741D01*
X209074Y322427D01*
X207872Y322427D01*
X207872D01*
X207815Y322768D01*
X207552Y323406D01*
X207109Y323935D01*
X206529Y324307D01*
X206204Y324424D01*
Y322676D01*
X205003D01*
Y324424D01*
X204678Y324307D01*
X204098Y323935D01*
X203655Y323406D01*
X203392Y322768D01*
X203335Y322427D01*
X202132D01*
X202132Y322427D01*
X202151Y322741D01*
X202298Y323351D01*
X202553Y323925D01*
X202907Y324444D01*
X203348Y324891D01*
X203862Y325253D01*
X204432Y325516D01*
X205040Y325672D01*
X205353Y325695D01*
X205353Y327089D01*
X206272D01*
Y327548D01*
X207138D01*
Y326131D01*
D02*
G37*
G36*
X209056Y321714D02*
X208909Y321103D01*
X208654Y320529D01*
X208300Y320010D01*
X207859Y319563D01*
X207345Y319202D01*
X206775Y318939D01*
X206167Y318782D01*
X205854Y318759D01*
Y317365D01*
X204935D01*
Y316906D01*
X204069D01*
Y318324D01*
X204935D01*
Y317865D01*
X205353D01*
Y318759D01*
X205353Y318759D01*
X205040Y318782D01*
X204432Y318939D01*
X203862Y319202D01*
X203348Y319563D01*
X202907Y320010D01*
X202553Y320529D01*
X202298Y321103D01*
X202151Y321714D01*
X202132Y322027D01*
X203335D01*
Y322027D01*
X203392Y321686D01*
X203655Y321049D01*
X204098Y320519D01*
X204678Y320147D01*
X205003Y320031D01*
Y321778D01*
X206204D01*
Y320031D01*
X206204Y320031D01*
X206204D01*
X206204D01*
D01*
X206529Y320147D01*
X207109Y320519D01*
X207552Y321049D01*
X207815Y321686D01*
X207872Y322027D01*
X209074Y322027D01*
X209056Y321714D01*
D02*
G37*
G36*
X207138Y311720D02*
X206272D01*
Y312179D01*
X205854D01*
Y311284D01*
X206167Y311262D01*
X206775Y311105D01*
X207345Y310842D01*
X207859Y310481D01*
X208300Y310034D01*
X208654Y309515D01*
X208909Y308941D01*
X209056Y308330D01*
X209074Y308017D01*
X207872Y308017D01*
X207872D01*
X207815Y308358D01*
X207552Y308995D01*
X207109Y309524D01*
X206529Y309897D01*
X206204Y310013D01*
Y308265D01*
X205003D01*
Y310013D01*
X204678Y309897D01*
X204098Y309524D01*
X203655Y308995D01*
X203392Y308358D01*
X203335Y308017D01*
X202132D01*
X202132Y308017D01*
X202151Y308330D01*
X202298Y308941D01*
X202553Y309515D01*
X202907Y310034D01*
X203348Y310481D01*
X203862Y310842D01*
X204432Y311105D01*
X205040Y311262D01*
X205353Y311284D01*
X205353Y312679D01*
X206272D01*
Y313137D01*
X207138D01*
Y311720D01*
D02*
G37*
G36*
X209056Y307303D02*
X208909Y306693D01*
X208654Y306119D01*
X208300Y305600D01*
X207859Y305152D01*
X207345Y304791D01*
X206775Y304528D01*
X206167Y304371D01*
X205854Y304349D01*
Y302955D01*
X204935D01*
Y302496D01*
X204069D01*
Y303913D01*
X204935D01*
Y303455D01*
X205353D01*
Y304349D01*
X205353Y304349D01*
X205040Y304371D01*
X204432Y304528D01*
X203862Y304791D01*
X203348Y305152D01*
X202907Y305600D01*
X202553Y306119D01*
X202298Y306693D01*
X202151Y307303D01*
X202132Y307617D01*
X203335D01*
Y307617D01*
X203392Y307276D01*
X203655Y306638D01*
X204098Y306109D01*
X204678Y305736D01*
X205003Y305620D01*
Y307368D01*
X206204D01*
Y305620D01*
X206204Y305620D01*
X206204D01*
X206204D01*
D01*
X206529Y305736D01*
X207109Y306109D01*
X207552Y306638D01*
X207815Y307276D01*
X207872Y307617D01*
X209074Y307617D01*
X209056Y307303D01*
D02*
G37*
G36*
X207138Y297310D02*
X206272D01*
Y297768D01*
X205854D01*
Y296874D01*
X206167Y296851D01*
X206775Y296695D01*
X207345Y296432D01*
X207859Y296071D01*
X208300Y295623D01*
X208654Y295104D01*
X208909Y294530D01*
X209056Y293920D01*
X209074Y293606D01*
X207872Y293606D01*
X207872D01*
X207815Y293947D01*
X207552Y294585D01*
X207109Y295114D01*
X206529Y295486D01*
X206204Y295603D01*
Y293855D01*
X205003D01*
Y295603D01*
X204678Y295486D01*
X204098Y295114D01*
X203655Y294585D01*
X203392Y293947D01*
X203335Y293606D01*
X202132D01*
X202132Y293606D01*
X202151Y293920D01*
X202298Y294530D01*
X202553Y295104D01*
X202907Y295623D01*
X203348Y296071D01*
X203862Y296432D01*
X204432Y296695D01*
X205040Y296851D01*
X205353Y296874D01*
X205353Y298268D01*
X206272D01*
Y298727D01*
X207138D01*
Y297310D01*
D02*
G37*
G36*
X209056Y292893D02*
X208909Y292282D01*
X208654Y291708D01*
X208300Y291189D01*
X207859Y290742D01*
X207345Y290381D01*
X206775Y290118D01*
X206167Y289961D01*
X205854Y289938D01*
Y288544D01*
X204935D01*
Y288086D01*
X204069D01*
Y289503D01*
X204935D01*
Y289044D01*
X205353D01*
Y289938D01*
X205353Y289938D01*
X205040Y289961D01*
X204432Y290118D01*
X203862Y290381D01*
X203348Y290742D01*
X202907Y291189D01*
X202553Y291708D01*
X202298Y292282D01*
X202151Y292893D01*
X202132Y293206D01*
X203335D01*
Y293206D01*
X203392Y292865D01*
X203655Y292228D01*
X204098Y291699D01*
X204678Y291326D01*
X205003Y291210D01*
Y292957D01*
X206204D01*
Y291210D01*
X206204Y291210D01*
X206204D01*
X206204D01*
D01*
X206529Y291326D01*
X207109Y291699D01*
X207552Y292228D01*
X207815Y292865D01*
X207872Y293206D01*
X209074Y293206D01*
X209056Y292893D01*
D02*
G37*
G36*
X207138Y282899D02*
X206272D01*
Y283358D01*
X205854D01*
Y282464D01*
X206167Y282441D01*
X206775Y282284D01*
X207345Y282021D01*
X207859Y281660D01*
X208300Y281213D01*
X208654Y280694D01*
X208909Y280120D01*
X209056Y279509D01*
X209074Y279196D01*
X207872Y279196D01*
X207872D01*
X207815Y279537D01*
X207552Y280174D01*
X207109Y280703D01*
X206529Y281076D01*
X206204Y281192D01*
Y279445D01*
X205003D01*
Y281192D01*
X204678Y281076D01*
X204098Y280703D01*
X203655Y280174D01*
X203392Y279537D01*
X203335Y279196D01*
X202132D01*
X202132Y279196D01*
X202151Y279509D01*
X202298Y280120D01*
X202553Y280694D01*
X202907Y281213D01*
X203348Y281660D01*
X203862Y282021D01*
X204432Y282284D01*
X205040Y282441D01*
X205353Y282464D01*
X205353Y283858D01*
X206272D01*
Y284316D01*
X207138D01*
Y282899D01*
D02*
G37*
G36*
X209056Y278482D02*
X208909Y277872D01*
X208654Y277298D01*
X208300Y276779D01*
X207859Y276331D01*
X207345Y275970D01*
X206775Y275707D01*
X206167Y275551D01*
X205854Y275528D01*
Y274134D01*
X204935D01*
Y273675D01*
X204069D01*
Y275092D01*
X204935D01*
Y274634D01*
X205353D01*
Y275528D01*
X205353Y275528D01*
X205040Y275551D01*
X204432Y275707D01*
X203862Y275970D01*
X203348Y276331D01*
X202907Y276779D01*
X202553Y277298D01*
X202298Y277872D01*
X202151Y278482D01*
X202132Y278796D01*
X203335D01*
Y278796D01*
X203392Y278455D01*
X203655Y277817D01*
X204098Y277288D01*
X204678Y276916D01*
X205003Y276799D01*
Y278547D01*
X206204D01*
Y276799D01*
X206204Y276799D01*
X206204D01*
X206204D01*
D01*
X206529Y276916D01*
X207109Y277288D01*
X207552Y277817D01*
X207815Y278455D01*
X207872Y278796D01*
X209074Y278796D01*
X209056Y278482D01*
D02*
G37*
G36*
X207138Y268489D02*
X206272D01*
Y268947D01*
X205854D01*
Y268053D01*
X206167Y268031D01*
X206775Y267874D01*
X207345Y267611D01*
X207859Y267250D01*
X208300Y266802D01*
X208654Y266283D01*
X208909Y265709D01*
X209056Y265099D01*
X209074Y264785D01*
X207872Y264785D01*
X207872D01*
X207815Y265126D01*
X207552Y265764D01*
X207109Y266293D01*
X206529Y266666D01*
X206204Y266782D01*
Y265034D01*
X205003D01*
Y266782D01*
X204678Y266666D01*
X204098Y266293D01*
X203655Y265764D01*
X203392Y265126D01*
X203335Y264785D01*
X202132D01*
X202132Y264785D01*
X202151Y265099D01*
X202298Y265709D01*
X202553Y266283D01*
X202907Y266802D01*
X203348Y267250D01*
X203862Y267611D01*
X204432Y267874D01*
X205040Y268031D01*
X205353Y268053D01*
X205353Y269447D01*
X206272D01*
Y269906D01*
X207138D01*
Y268489D01*
D02*
G37*
G36*
X209056Y264072D02*
X208909Y263461D01*
X208654Y262887D01*
X208300Y262368D01*
X207859Y261921D01*
X207345Y261560D01*
X206775Y261297D01*
X206167Y261140D01*
X205854Y261118D01*
Y259723D01*
X204935D01*
Y259265D01*
X204069D01*
Y260682D01*
X204935D01*
Y260223D01*
X205353D01*
Y261118D01*
X205353Y261118D01*
X205040Y261140D01*
X204432Y261297D01*
X203862Y261560D01*
X203348Y261921D01*
X202907Y262368D01*
X202553Y262887D01*
X202298Y263461D01*
X202151Y264072D01*
X202132Y264385D01*
X203335D01*
Y264385D01*
X203392Y264044D01*
X203655Y263407D01*
X204098Y262878D01*
X204678Y262505D01*
X205003Y262389D01*
Y264137D01*
X206204D01*
Y262389D01*
X206204Y262389D01*
X206204D01*
X206204D01*
D01*
X206529Y262505D01*
X207109Y262878D01*
X207552Y263407D01*
X207815Y264044D01*
X207872Y264385D01*
X209074Y264385D01*
X209056Y264072D01*
D02*
G37*
G36*
X207138Y254078D02*
X206272D01*
Y254537D01*
X205854D01*
Y253643D01*
X206167Y253620D01*
X206775Y253463D01*
X207345Y253200D01*
X207859Y252839D01*
X208300Y252392D01*
X208654Y251873D01*
X208909Y251299D01*
X209056Y250688D01*
X209074Y250375D01*
X207872Y250375D01*
X207872D01*
X207815Y250716D01*
X207552Y251353D01*
X207109Y251883D01*
X206529Y252255D01*
X206204Y252371D01*
Y250624D01*
X205003D01*
Y252371D01*
X204678Y252255D01*
X204098Y251883D01*
X203655Y251353D01*
X203392Y250716D01*
X203335Y250375D01*
X202132D01*
X202132Y250375D01*
X202151Y250688D01*
X202298Y251299D01*
X202553Y251873D01*
X202907Y252392D01*
X203348Y252839D01*
X203862Y253200D01*
X204432Y253463D01*
X205040Y253620D01*
X205353Y253643D01*
X205353Y255037D01*
X206272D01*
Y255496D01*
X207138D01*
Y254078D01*
D02*
G37*
G36*
X209056Y249661D02*
X208909Y249051D01*
X208654Y248477D01*
X208300Y247958D01*
X207859Y247511D01*
X207345Y247149D01*
X206775Y246886D01*
X206167Y246730D01*
X205854Y246707D01*
Y245313D01*
X204935D01*
Y244854D01*
X204069D01*
Y246271D01*
X204935D01*
Y245813D01*
X205353D01*
Y246707D01*
X205353Y246707D01*
X205040Y246730D01*
X204432Y246886D01*
X203862Y247149D01*
X203348Y247511D01*
X202907Y247958D01*
X202553Y248477D01*
X202298Y249051D01*
X202151Y249661D01*
X202132Y249975D01*
X203335D01*
Y249975D01*
X203392Y249634D01*
X203655Y248996D01*
X204098Y248467D01*
X204678Y248095D01*
X205003Y247978D01*
Y249726D01*
X206204D01*
Y247978D01*
X206204Y247978D01*
X206204D01*
X206204D01*
D01*
X206529Y248095D01*
X207109Y248467D01*
X207552Y248996D01*
X207815Y249634D01*
X207872Y249975D01*
X209074Y249975D01*
X209056Y249661D01*
D02*
G37*
G36*
X207138Y239668D02*
X206272D01*
Y240126D01*
X205854D01*
Y239232D01*
X206167Y239210D01*
X206775Y239053D01*
X207345Y238790D01*
X207859Y238429D01*
X208300Y237981D01*
X208654Y237462D01*
X208909Y236888D01*
X209056Y236278D01*
X209074Y235964D01*
X207872Y235964D01*
X207872D01*
X207815Y236305D01*
X207552Y236943D01*
X207109Y237472D01*
X206529Y237845D01*
X206204Y237961D01*
Y236213D01*
X205003D01*
Y237961D01*
X204678Y237844D01*
X204098Y237472D01*
X203655Y236943D01*
X203392Y236305D01*
X203335Y235964D01*
X202132D01*
X202132Y235964D01*
X202151Y236278D01*
X202298Y236888D01*
X202553Y237462D01*
X202907Y237981D01*
X203348Y238429D01*
X203862Y238790D01*
X204432Y239053D01*
X205040Y239210D01*
X205353Y239232D01*
X205353Y240627D01*
X206272D01*
Y241085D01*
X207138D01*
Y239668D01*
D02*
G37*
G36*
X209056Y235251D02*
X208909Y234640D01*
X208654Y234066D01*
X208300Y233547D01*
X207859Y233100D01*
X207345Y232739D01*
X206775Y232476D01*
X206167Y232319D01*
X205854Y232296D01*
Y230902D01*
X204935D01*
Y230444D01*
X204069D01*
Y231861D01*
X204935D01*
Y231402D01*
X205353D01*
Y232296D01*
X205353Y232296D01*
X205040Y232319D01*
X204432Y232476D01*
X203862Y232739D01*
X203348Y233100D01*
X202907Y233547D01*
X202553Y234066D01*
X202298Y234640D01*
X202151Y235251D01*
X202132Y235564D01*
X203335D01*
Y235564D01*
X203392Y235223D01*
X203655Y234586D01*
X204098Y234057D01*
X204678Y233684D01*
X205003Y233568D01*
Y235316D01*
X206204D01*
Y233568D01*
X206204Y233568D01*
X206204D01*
X206204D01*
D01*
X206529Y233684D01*
X207109Y234057D01*
X207552Y234586D01*
X207815Y235223D01*
X207872Y235564D01*
X209074Y235564D01*
X209056Y235251D01*
D02*
G37*
G36*
X207138Y225257D02*
X206272D01*
Y225716D01*
X205854D01*
Y224822D01*
X206167Y224799D01*
X206775Y224642D01*
X207345Y224379D01*
X207859Y224018D01*
X208300Y223571D01*
X208654Y223052D01*
X208909Y222478D01*
X209056Y221867D01*
X209074Y221554D01*
X207872Y221554D01*
X207872D01*
X207815Y221895D01*
X207552Y222532D01*
X207109Y223062D01*
X206529Y223434D01*
X206204Y223550D01*
Y221803D01*
X205003D01*
Y223550D01*
X204678Y223434D01*
X204098Y223061D01*
X203655Y222532D01*
X203392Y221895D01*
X203335Y221554D01*
X202132D01*
X202132Y221554D01*
X202151Y221867D01*
X202298Y222478D01*
X202553Y223052D01*
X202907Y223571D01*
X203348Y224018D01*
X203862Y224379D01*
X204432Y224642D01*
X205040Y224799D01*
X205353Y224822D01*
X205353Y226216D01*
X206272D01*
Y226675D01*
X207138D01*
Y225257D01*
D02*
G37*
G36*
X209056Y220840D02*
X208909Y220230D01*
X208654Y219656D01*
X208300Y219137D01*
X207859Y218690D01*
X207345Y218328D01*
X206775Y218065D01*
X206167Y217909D01*
X205854Y217886D01*
Y216492D01*
X204935D01*
Y216033D01*
X204069D01*
Y217450D01*
X204935D01*
Y216992D01*
X205353D01*
Y217886D01*
X205353Y217886D01*
X205040Y217909D01*
X204432Y218065D01*
X203862Y218328D01*
X203348Y218690D01*
X202907Y219137D01*
X202553Y219656D01*
X202298Y220230D01*
X202151Y220840D01*
X202132Y221154D01*
X203335D01*
Y221154D01*
X203392Y220813D01*
X203655Y220176D01*
X204098Y219646D01*
X204678Y219274D01*
X205003Y219158D01*
Y220905D01*
X206204D01*
Y219158D01*
X206204Y219158D01*
X206204D01*
X206204D01*
D01*
X206529Y219274D01*
X207109Y219646D01*
X207552Y220176D01*
X207815Y220813D01*
X207872Y221154D01*
X209074Y221154D01*
X209056Y220840D01*
D02*
G37*
G36*
X207138Y210847D02*
X206272D01*
Y211305D01*
X205854D01*
Y210411D01*
X206167Y210389D01*
X206775Y210232D01*
X207345Y209969D01*
X207859Y209608D01*
X208300Y209160D01*
X208654Y208641D01*
X208909Y208067D01*
X209056Y207457D01*
X209074Y207143D01*
X207872Y207143D01*
X207872D01*
X207815Y207485D01*
X207552Y208122D01*
X207109Y208651D01*
X206529Y209024D01*
X206204Y209140D01*
Y207392D01*
X205003D01*
Y209140D01*
X204678Y209024D01*
X204098Y208651D01*
X203655Y208122D01*
X203392Y207485D01*
X203335Y207143D01*
X202132D01*
X202132Y207143D01*
X202151Y207457D01*
X202298Y208067D01*
X202553Y208641D01*
X202907Y209160D01*
X203348Y209608D01*
X203862Y209969D01*
X204432Y210232D01*
X205040Y210389D01*
X205353Y210411D01*
X205353Y211806D01*
X206272D01*
Y212264D01*
X207138D01*
Y210847D01*
D02*
G37*
G36*
X209056Y206430D02*
X208909Y205820D01*
X208654Y205245D01*
X208300Y204726D01*
X207859Y204279D01*
X207345Y203918D01*
X206775Y203655D01*
X206167Y203498D01*
X205854Y203476D01*
Y202081D01*
X204935D01*
Y201623D01*
X204069D01*
Y203040D01*
X204935D01*
Y202581D01*
X205353D01*
Y203476D01*
X205353Y203476D01*
X205040Y203498D01*
X204432Y203655D01*
X203862Y203918D01*
X203348Y204279D01*
X202907Y204726D01*
X202553Y205245D01*
X202298Y205820D01*
X202151Y206430D01*
X202132Y206744D01*
X203335D01*
Y206744D01*
X203392Y206402D01*
X203655Y205765D01*
X204098Y205236D01*
X204678Y204863D01*
X205003Y204747D01*
Y206495D01*
X206204D01*
Y204747D01*
X206204Y204747D01*
X206204D01*
X206204D01*
D01*
X206529Y204863D01*
X207109Y205236D01*
X207552Y205765D01*
X207815Y206402D01*
X207872Y206744D01*
X209074Y206744D01*
X209056Y206430D01*
D02*
G37*
G36*
X207138Y196436D02*
X206272D01*
Y196895D01*
X205854D01*
Y196001D01*
X206167Y195978D01*
X206775Y195822D01*
X207345Y195558D01*
X207859Y195197D01*
X208300Y194750D01*
X208654Y194231D01*
X208909Y193657D01*
X209056Y193046D01*
X209074Y192733D01*
X207872Y192733D01*
X207872D01*
X207815Y193074D01*
X207552Y193711D01*
X207109Y194241D01*
X206529Y194613D01*
X206204Y194729D01*
Y192982D01*
X205003D01*
Y194729D01*
X204678Y194613D01*
X204098Y194241D01*
X203655Y193711D01*
X203392Y193074D01*
X203335Y192733D01*
X202132D01*
X202132Y192733D01*
X202151Y193046D01*
X202298Y193657D01*
X202553Y194231D01*
X202907Y194750D01*
X203348Y195197D01*
X203862Y195558D01*
X204432Y195822D01*
X205040Y195978D01*
X205353Y196001D01*
X205353Y197395D01*
X206272D01*
Y197854D01*
X207138D01*
Y196436D01*
D02*
G37*
G36*
X209056Y192019D02*
X208909Y191409D01*
X208654Y190835D01*
X208300Y190316D01*
X207859Y189869D01*
X207345Y189508D01*
X206775Y189244D01*
X206167Y189088D01*
X205854Y189065D01*
Y187671D01*
X204935D01*
Y187212D01*
X204069D01*
Y188630D01*
X204935D01*
Y188171D01*
X205353D01*
Y189065D01*
X205353Y189065D01*
X205040Y189088D01*
X204432Y189244D01*
X203862Y189508D01*
X203348Y189869D01*
X202907Y190316D01*
X202553Y190835D01*
X202298Y191409D01*
X202151Y192019D01*
X202132Y192333D01*
X203335D01*
Y192333D01*
X203392Y191992D01*
X203655Y191355D01*
X204098Y190825D01*
X204678Y190453D01*
X205003Y190337D01*
Y192084D01*
X206204D01*
Y190337D01*
X206204Y190337D01*
X206204D01*
X206204D01*
D01*
X206529Y190453D01*
X207109Y190825D01*
X207552Y191355D01*
X207815Y191992D01*
X207872Y192333D01*
X209074Y192333D01*
X209056Y192019D01*
D02*
G37*
G36*
X207138Y182026D02*
X206272D01*
Y182485D01*
X205854D01*
Y181590D01*
X206167Y181568D01*
X206775Y181411D01*
X207345Y181148D01*
X207859Y180787D01*
X208300Y180340D01*
X208654Y179821D01*
X208909Y179246D01*
X209056Y178636D01*
X209074Y178323D01*
X207872Y178323D01*
X207872D01*
X207815Y178664D01*
X207552Y179301D01*
X207109Y179830D01*
X206529Y180203D01*
X206204Y180319D01*
Y178571D01*
X205003D01*
Y180319D01*
X204678Y180203D01*
X204098Y179830D01*
X203655Y179301D01*
X203392Y178664D01*
X203335Y178323D01*
X202132D01*
X202132Y178323D01*
X202151Y178636D01*
X202298Y179246D01*
X202553Y179821D01*
X202907Y180340D01*
X203348Y180787D01*
X203862Y181148D01*
X204432Y181411D01*
X205040Y181568D01*
X205353Y181590D01*
X205353Y182985D01*
X206272D01*
Y183443D01*
X207138D01*
Y182026D01*
D02*
G37*
G36*
X209056Y177609D02*
X208909Y176999D01*
X208654Y176425D01*
X208300Y175906D01*
X207859Y175458D01*
X207345Y175097D01*
X206775Y174834D01*
X206167Y174677D01*
X205854Y174655D01*
Y173260D01*
X204935D01*
Y172802D01*
X204069D01*
Y174219D01*
X204935D01*
Y173760D01*
X205353D01*
Y174655D01*
X205353Y174655D01*
X205040Y174677D01*
X204432Y174834D01*
X203862Y175097D01*
X203348Y175458D01*
X202907Y175906D01*
X202553Y176425D01*
X202298Y176999D01*
X202151Y177609D01*
X202132Y177923D01*
X203335D01*
Y177922D01*
X203392Y177581D01*
X203655Y176944D01*
X204098Y176415D01*
X204678Y176042D01*
X205003Y175926D01*
Y177674D01*
X206204D01*
Y175926D01*
X206204Y175926D01*
X206204D01*
X206204D01*
D01*
X206529Y176042D01*
X207109Y176415D01*
X207552Y176944D01*
X207815Y177581D01*
X207872Y177922D01*
X209074Y177923D01*
X209056Y177609D01*
D02*
G37*
D11*
X229885Y589415D02*
D03*
Y591896D02*
D03*
X181307Y589266D02*
D03*
Y591747D02*
D03*
D21*
X213037Y613980D02*
D03*
X198185D02*
D03*
D22*
X205604Y566357D02*
D03*
Y568053D02*
D03*
Y551946D02*
D03*
Y553643D02*
D03*
Y537536D02*
D03*
Y539232D02*
D03*
Y523125D02*
D03*
Y524822D02*
D03*
Y508715D02*
D03*
Y510412D02*
D03*
Y494304D02*
D03*
Y496001D02*
D03*
Y479894D02*
D03*
Y481591D02*
D03*
Y465483D02*
D03*
Y467180D02*
D03*
Y451073D02*
D03*
Y452770D02*
D03*
Y436662D02*
D03*
Y438359D02*
D03*
Y422252D02*
D03*
Y423949D02*
D03*
Y407841D02*
D03*
Y409538D02*
D03*
Y393431D02*
D03*
Y395128D02*
D03*
Y379021D02*
D03*
Y380717D02*
D03*
Y364610D02*
D03*
Y366307D02*
D03*
X205604Y350200D02*
D03*
Y351897D02*
D03*
Y335789D02*
D03*
Y337486D02*
D03*
X205604Y321379D02*
D03*
Y323076D02*
D03*
Y306968D02*
D03*
Y308665D02*
D03*
Y292558D02*
D03*
Y294255D02*
D03*
X205604Y278147D02*
D03*
Y279844D02*
D03*
X205604Y263737D02*
D03*
Y265434D02*
D03*
X205604Y249326D02*
D03*
Y251023D02*
D03*
Y234916D02*
D03*
Y236613D02*
D03*
Y220505D02*
D03*
Y222202D02*
D03*
X205604Y206095D02*
D03*
Y207792D02*
D03*
Y191685D02*
D03*
Y193381D02*
D03*
Y177274D02*
D03*
Y178971D02*
D03*
D23*
X202022Y562593D02*
D03*
X204502D02*
D03*
X206705Y571817D02*
D03*
X209185D02*
D03*
X202022Y548182D02*
D03*
X204502D02*
D03*
X206705Y557407D02*
D03*
X209185D02*
D03*
X202022Y533772D02*
D03*
X204502D02*
D03*
X206705Y542996D02*
D03*
X209185D02*
D03*
X202022Y519361D02*
D03*
X204502D02*
D03*
X206705Y528586D02*
D03*
X209185D02*
D03*
X202022Y504951D02*
D03*
X204502D02*
D03*
X206705Y514175D02*
D03*
X209185D02*
D03*
X202022Y490541D02*
D03*
X204502D02*
D03*
X206705Y499765D02*
D03*
X209185D02*
D03*
X202022Y476130D02*
D03*
X204502D02*
D03*
X206705Y485354D02*
D03*
X209185D02*
D03*
X202022Y461720D02*
D03*
X204502D02*
D03*
X206705Y470944D02*
D03*
X209185D02*
D03*
X202022Y447309D02*
D03*
X204502D02*
D03*
X206705Y456533D02*
D03*
X209185D02*
D03*
X202022Y432899D02*
D03*
X204502D02*
D03*
X206705Y442123D02*
D03*
X209185D02*
D03*
X202022Y418488D02*
D03*
X204502D02*
D03*
X206705Y427712D02*
D03*
X209185D02*
D03*
X202022Y404078D02*
D03*
X204502D02*
D03*
X206705Y413302D02*
D03*
X209185D02*
D03*
X202022Y389667D02*
D03*
X204502D02*
D03*
X206705Y398891D02*
D03*
X209185D02*
D03*
X202022Y375257D02*
D03*
X204502D02*
D03*
X206705Y384481D02*
D03*
X209185D02*
D03*
X202022Y360846D02*
D03*
X204502D02*
D03*
X206705Y370071D02*
D03*
X209185D02*
D03*
X202022Y346436D02*
D03*
X204502D02*
D03*
X206705Y355660D02*
D03*
X209185D02*
D03*
X202022Y332026D02*
D03*
X204502D02*
D03*
X206705Y341250D02*
D03*
X209185D02*
D03*
X202022Y317615D02*
D03*
X204502D02*
D03*
X206705Y326839D02*
D03*
X209185D02*
D03*
X202022Y303205D02*
D03*
X204502D02*
D03*
X206705Y312429D02*
D03*
X209185D02*
D03*
X202022Y288794D02*
D03*
X204502D02*
D03*
X206705Y298018D02*
D03*
X209185D02*
D03*
X202022Y274384D02*
D03*
X204502D02*
D03*
X206705Y283608D02*
D03*
X209185D02*
D03*
X202022Y259973D02*
D03*
X204502D02*
D03*
X206705Y269197D02*
D03*
X209185D02*
D03*
X202022Y245563D02*
D03*
X204502D02*
D03*
X206705Y254787D02*
D03*
X209185D02*
D03*
X202022Y231152D02*
D03*
X204502D02*
D03*
X206705Y240376D02*
D03*
X209185D02*
D03*
X202022Y216742D02*
D03*
X204502D02*
D03*
X206705Y225966D02*
D03*
X209185D02*
D03*
X202022Y202331D02*
D03*
X204502D02*
D03*
X206705Y211556D02*
D03*
X209185D02*
D03*
X202022Y187921D02*
D03*
X204502D02*
D03*
X206705Y197145D02*
D03*
X209185D02*
D03*
X202022Y173511D02*
D03*
X204502D02*
D03*
X206705Y182735D02*
D03*
X209185D02*
D03*
M02*
