G04*
G04 #@! TF.GenerationSoftware,Altium Limited,Altium Designer,25.3.3 (18)*
G04*
G04 Layer_Physical_Order=1*
G04 Layer_Color=255*
%FSLAX25Y25*%
%MOIN*%
G70*
G04*
G04 #@! TF.SameCoordinates,601A9F49-DEDD-47AA-BEC0-E602D5E64D20*
G04*
G04*
G04 #@! TF.FilePolarity,Positive*
G04*
G01*
G75*
%ADD11R,0.01417X0.00866*%
%ADD12R,0.00799X0.00898*%
%ADD21C,0.03543*%
G36*
X206052Y175042D02*
X206089Y175047D01*
X206162Y175060D01*
X206235Y175074D01*
X206308Y175090D01*
X206344Y175099D01*
Y175099D01*
Y173260D01*
X211750D01*
Y175075D01*
X215187D01*
Y177391D01*
X211750D01*
Y178706D01*
X215187D01*
Y181020D01*
X211750D01*
Y182335D01*
X215187D01*
Y184651D01*
X211750D01*
Y185856D01*
X215187D01*
Y188171D01*
X211750D01*
Y189486D01*
X215187D01*
Y191801D01*
X211750D01*
Y193116D01*
X215187D01*
Y195431D01*
X211750D01*
Y196746D01*
X215187D01*
Y199061D01*
X211750D01*
Y200266D01*
X215187D01*
Y202581D01*
X211750D01*
Y203896D01*
X215187D01*
Y206211D01*
X211750D01*
Y207526D01*
X215187D01*
Y209841D01*
X211750D01*
Y211156D01*
X215187D01*
Y213471D01*
X211750D01*
Y214677D01*
X215187D01*
Y216992D01*
X211750D01*
Y218307D01*
X215187D01*
Y220622D01*
X211750D01*
Y221937D01*
X215187D01*
Y224252D01*
X211750D01*
Y225567D01*
X215187D01*
Y227882D01*
X211750D01*
Y229087D01*
X215187D01*
Y231402D01*
X211750D01*
Y232717D01*
X215187D01*
Y235032D01*
X211750D01*
Y236347D01*
X215187D01*
Y238662D01*
X211750D01*
Y239977D01*
X215187D01*
Y242292D01*
X211750D01*
Y243498D01*
X215187D01*
Y245813D01*
X211750D01*
Y247128D01*
X215187D01*
Y249443D01*
X211750D01*
Y250758D01*
X215187D01*
Y253073D01*
X211750D01*
Y254388D01*
X215187D01*
Y256703D01*
X211750D01*
Y257908D01*
X215187D01*
Y260223D01*
X211750D01*
Y261538D01*
X215187D01*
Y263853D01*
X211750D01*
Y265168D01*
X215187D01*
Y267483D01*
X211750D01*
Y268798D01*
X215187D01*
Y271113D01*
X211750D01*
Y272319D01*
X215187D01*
Y274634D01*
X211750D01*
Y275949D01*
X215187D01*
Y278264D01*
X211750D01*
Y279579D01*
X215187D01*
Y281894D01*
X211750D01*
Y283209D01*
X215187D01*
Y285524D01*
X211750D01*
Y286729D01*
X215187D01*
Y289044D01*
X211750D01*
Y290359D01*
X215187D01*
Y292674D01*
X211750D01*
Y293989D01*
X215187D01*
Y296304D01*
X211750D01*
Y297619D01*
X215187D01*
Y299934D01*
X211750D01*
Y301140D01*
X215187D01*
Y303455D01*
X211750D01*
Y304770D01*
X215187D01*
Y307085D01*
X211750D01*
Y308400D01*
X215187D01*
Y310715D01*
X211750D01*
Y312030D01*
X215187D01*
Y314345D01*
X211750D01*
Y315550D01*
X215187D01*
Y317865D01*
X211750D01*
Y319180D01*
X215187D01*
Y321495D01*
X211750D01*
Y322810D01*
X215187D01*
Y325125D01*
X211750D01*
Y326440D01*
X215187D01*
Y328755D01*
X211750D01*
Y329961D01*
X215187D01*
Y332276D01*
X211750D01*
Y333591D01*
X215187D01*
Y335906D01*
X211750D01*
Y337221D01*
X215187D01*
Y339536D01*
X211750D01*
Y340851D01*
X215187D01*
Y343165D01*
X211750D01*
Y344371D01*
X215187D01*
Y346686D01*
X211750D01*
Y348001D01*
X215187D01*
Y350316D01*
X211750D01*
Y351631D01*
X215187D01*
Y353946D01*
X211750D01*
Y355261D01*
X215187D01*
Y357576D01*
X211750D01*
Y358782D01*
X215187D01*
Y361097D01*
X211750D01*
Y362411D01*
X215187D01*
Y364726D01*
X211750D01*
Y366041D01*
X215187D01*
Y368356D01*
X211750D01*
Y369672D01*
X215187D01*
Y371987D01*
X211750D01*
Y373192D01*
X215187D01*
Y375507D01*
X211750D01*
Y376822D01*
X215187D01*
Y379137D01*
X211750D01*
Y380452D01*
X215187D01*
Y382767D01*
X211750D01*
Y384082D01*
X215187D01*
Y386397D01*
X211750D01*
Y387602D01*
X215187D01*
Y389917D01*
X211750D01*
Y391232D01*
X215187D01*
Y393547D01*
X211750D01*
Y394862D01*
X215187D01*
Y397177D01*
X211750D01*
Y398492D01*
X215187D01*
Y400807D01*
X211750D01*
Y402013D01*
X215187D01*
Y404328D01*
X211750D01*
Y405643D01*
X215187D01*
Y407958D01*
X211750D01*
Y409273D01*
X215187D01*
Y411588D01*
X211750D01*
Y412903D01*
X215187D01*
Y415218D01*
X211750D01*
Y416423D01*
X215187D01*
Y418738D01*
X211750D01*
Y420053D01*
X215187D01*
Y422368D01*
X211750D01*
Y423683D01*
X215187D01*
Y425998D01*
X211750D01*
Y427313D01*
X215187D01*
Y429628D01*
X211750D01*
Y430834D01*
X215187D01*
Y433149D01*
X211750D01*
Y434464D01*
X215187D01*
Y436779D01*
X211750D01*
Y438094D01*
X215187D01*
Y440409D01*
X211750D01*
Y441724D01*
X215187D01*
Y444039D01*
X211750D01*
Y445244D01*
X215187D01*
Y447559D01*
X211750D01*
Y448874D01*
X215187D01*
Y451189D01*
X211750D01*
Y452504D01*
X215187D01*
Y454819D01*
X211750D01*
Y456134D01*
X215187D01*
Y458449D01*
X211750D01*
Y459655D01*
X215187D01*
Y461970D01*
X211750D01*
Y463285D01*
X215187D01*
Y465600D01*
X211750D01*
Y466915D01*
X215187D01*
Y469230D01*
X211750D01*
Y470545D01*
X215187D01*
Y472860D01*
X211750D01*
Y474065D01*
X215187D01*
Y476380D01*
X211750D01*
Y477695D01*
X215187D01*
Y480010D01*
X211750D01*
Y481325D01*
X215187D01*
Y483640D01*
X211750D01*
Y484955D01*
X215187D01*
Y487270D01*
X211750D01*
Y488476D01*
X215187D01*
Y490791D01*
X211750D01*
Y492106D01*
X215187D01*
Y494421D01*
X211750D01*
Y495736D01*
X215187D01*
Y498051D01*
X211750D01*
Y499366D01*
X215187D01*
Y501681D01*
X211750D01*
Y502886D01*
X215187D01*
Y505201D01*
X211750D01*
Y506516D01*
X215187D01*
Y508831D01*
X211750D01*
Y510146D01*
X215187D01*
Y512461D01*
X211750D01*
Y513776D01*
X215187D01*
Y516091D01*
X211750D01*
Y517297D01*
X215187D01*
Y519612D01*
X211750D01*
Y520927D01*
X215187D01*
Y523242D01*
X211750D01*
Y524556D01*
X215187D01*
Y526871D01*
X211750D01*
Y528187D01*
X215187D01*
Y530502D01*
X211750D01*
Y531707D01*
X215187D01*
Y534022D01*
X211750D01*
Y535337D01*
X215187D01*
Y537652D01*
X211750D01*
Y538967D01*
X215187D01*
Y541282D01*
X211750D01*
Y542597D01*
X215187D01*
Y544912D01*
X211750D01*
Y546117D01*
X215187D01*
Y548432D01*
X211750D01*
Y549748D01*
X215187D01*
Y552062D01*
X211750D01*
Y553377D01*
X215187D01*
Y555692D01*
X211750D01*
Y557007D01*
X215187D01*
Y559323D01*
X211750D01*
Y560528D01*
X215187D01*
Y562843D01*
X211750D01*
Y564158D01*
X215187D01*
Y566473D01*
X211750D01*
Y567788D01*
X215187D01*
Y570103D01*
X211750D01*
Y571418D01*
X215187D01*
Y573733D01*
X211750D01*
Y574938D01*
X215187D01*
Y577253D01*
X211750D01*
Y578568D01*
X215187D01*
Y580883D01*
X211750D01*
Y582198D01*
X215187D01*
Y584513D01*
X211750D01*
Y585828D01*
X215187D01*
Y588143D01*
X211750D01*
Y588636D01*
X212209D01*
Y589699D01*
X210792D01*
Y588636D01*
X211250D01*
Y587643D01*
X214687D01*
Y586328D01*
X211250D01*
Y584013D01*
X214687D01*
Y582698D01*
X211250D01*
Y580383D01*
X214687D01*
Y579068D01*
X211250D01*
Y576753D01*
X214687D01*
Y575438D01*
X211250D01*
Y573233D01*
X214687D01*
Y571918D01*
X211250D01*
Y569603D01*
X214687D01*
Y568288D01*
X211250D01*
Y565973D01*
X214687D01*
Y564658D01*
X211250D01*
Y562843D01*
X206844D01*
X206844Y564350D01*
X207304Y564550D01*
X208051Y565217D01*
X208551Y566086D01*
X208753Y567068D01*
X208637Y568063D01*
X208215Y568972D01*
X207528Y569703D01*
X206647Y570180D01*
X206153Y570269D01*
X206153Y570269D01*
X206153Y569057D01*
X206448Y568942D01*
X206962Y568579D01*
X207331Y568069D01*
X207517Y567468D01*
X207500Y566839D01*
X207282Y566248D01*
X206885Y565760D01*
X206352Y565424D01*
X206052Y565326D01*
X206052Y565326D01*
Y564124D01*
X206089Y564130D01*
X206162Y564142D01*
X206235Y564156D01*
X206308Y564173D01*
X206344Y564181D01*
Y564181D01*
Y562343D01*
X214687D01*
Y561028D01*
X211250D01*
Y558822D01*
X214687D01*
Y557507D01*
X211250D01*
Y555193D01*
X214687D01*
Y553877D01*
X211250D01*
Y551562D01*
X214687D01*
Y550247D01*
X211250D01*
Y548432D01*
X206844D01*
X206844Y549939D01*
X207304Y550139D01*
X208051Y550807D01*
X208551Y551676D01*
X208753Y552657D01*
X208637Y553653D01*
X208215Y554562D01*
X207528Y555292D01*
X206647Y555770D01*
X206153Y555859D01*
X206153Y555859D01*
X206153Y554646D01*
X206448Y554532D01*
X206962Y554168D01*
X207331Y553659D01*
X207517Y553057D01*
X207500Y552428D01*
X207282Y551838D01*
X206885Y551349D01*
X206352Y551014D01*
X206052Y550915D01*
X206052Y550915D01*
Y549714D01*
X206089Y549719D01*
X206162Y549732D01*
X206235Y549746D01*
X206308Y549762D01*
X206344Y549771D01*
Y549771D01*
Y547932D01*
X214687D01*
Y546618D01*
X211250D01*
Y544412D01*
X214687D01*
Y543097D01*
X211250D01*
Y540782D01*
X214687D01*
Y539467D01*
X211250D01*
Y537152D01*
X214687D01*
Y535837D01*
X211250D01*
Y534022D01*
X206844D01*
X206844Y535529D01*
X207304Y535729D01*
X208051Y536397D01*
X208551Y537265D01*
X208753Y538247D01*
X208637Y539243D01*
X208215Y540151D01*
X207528Y540882D01*
X206647Y541360D01*
X206153Y541448D01*
X206153Y541448D01*
X206153Y540236D01*
X206448Y540122D01*
X206962Y539758D01*
X207331Y539248D01*
X207517Y538647D01*
X207500Y538018D01*
X207282Y537427D01*
X206885Y536939D01*
X206352Y536603D01*
X206052Y536505D01*
X206052Y536505D01*
Y535304D01*
X206089Y535309D01*
X206162Y535321D01*
X206235Y535336D01*
X206308Y535352D01*
X206344Y535360D01*
Y535360D01*
Y533522D01*
X214687D01*
Y532207D01*
X211250D01*
Y530001D01*
X214687D01*
Y528687D01*
X211250D01*
Y526371D01*
X214687D01*
Y525057D01*
X211250D01*
Y522742D01*
X214687D01*
Y521426D01*
X211250D01*
Y519612D01*
X206844D01*
X206844Y521118D01*
X207304Y521318D01*
X208051Y521986D01*
X208551Y522855D01*
X208753Y523837D01*
X208637Y524832D01*
X208215Y525741D01*
X207528Y526471D01*
X206647Y526949D01*
X206153Y527038D01*
X206153Y527038D01*
X206153Y525826D01*
X206448Y525711D01*
X206962Y525348D01*
X207331Y524838D01*
X207517Y524236D01*
X207500Y523607D01*
X207282Y523017D01*
X206885Y522528D01*
X206352Y522193D01*
X206052Y522094D01*
X206052Y522095D01*
Y520893D01*
X206089Y520898D01*
X206162Y520911D01*
X206235Y520925D01*
X206308Y520941D01*
X206344Y520950D01*
Y520950D01*
Y519111D01*
X214687D01*
Y517797D01*
X211250D01*
Y515591D01*
X214687D01*
Y514276D01*
X211250D01*
Y511961D01*
X214687D01*
Y510646D01*
X211250D01*
Y508331D01*
X214687D01*
Y507016D01*
X211250D01*
Y505201D01*
X206844D01*
X206844Y506708D01*
X207304Y506908D01*
X208051Y507576D01*
X208551Y508444D01*
X208753Y509426D01*
X208637Y510422D01*
X208215Y511331D01*
X207528Y512061D01*
X206647Y512539D01*
X206153Y512627D01*
X206153Y512627D01*
X206153Y511415D01*
X206448Y511301D01*
X206962Y510937D01*
X207331Y510427D01*
X207517Y509826D01*
X207500Y509197D01*
X207282Y508606D01*
X206885Y508118D01*
X206352Y507782D01*
X206052Y507684D01*
X206052Y507684D01*
Y506483D01*
X206089Y506488D01*
X206162Y506500D01*
X206235Y506515D01*
X206308Y506531D01*
X206344Y506539D01*
Y506539D01*
Y504701D01*
X214687D01*
Y503386D01*
X211250D01*
Y501181D01*
X214687D01*
Y499866D01*
X211250D01*
Y497551D01*
X214687D01*
Y496236D01*
X211250D01*
Y493921D01*
X214687D01*
Y492606D01*
X211250D01*
Y490791D01*
X206844D01*
X206844Y492298D01*
X207304Y492497D01*
X208051Y493165D01*
X208551Y494034D01*
X208753Y495015D01*
X208637Y496011D01*
X208215Y496920D01*
X207528Y497650D01*
X206647Y498128D01*
X206153Y498217D01*
X206153Y498217D01*
X206153Y497005D01*
X206448Y496890D01*
X206962Y496526D01*
X207331Y496017D01*
X207517Y495416D01*
X207500Y494786D01*
X207282Y494196D01*
X206885Y493707D01*
X206352Y493372D01*
X206052Y493274D01*
X206052Y493274D01*
Y492072D01*
X206089Y492077D01*
X206162Y492090D01*
X206235Y492104D01*
X206308Y492120D01*
X206344Y492129D01*
Y492129D01*
Y490291D01*
X214687D01*
Y488976D01*
X211250D01*
Y486770D01*
X214687D01*
Y485455D01*
X211250D01*
Y483140D01*
X214687D01*
Y481825D01*
X211250D01*
Y479510D01*
X214687D01*
Y478195D01*
X211250D01*
Y476380D01*
X206844D01*
X206844Y477887D01*
X207304Y478087D01*
X208051Y478755D01*
X208551Y479623D01*
X208753Y480605D01*
X208637Y481601D01*
X208215Y482510D01*
X207528Y483240D01*
X206647Y483718D01*
X206153Y483806D01*
X206153Y483806D01*
X206153Y482594D01*
X206448Y482480D01*
X206962Y482116D01*
X207331Y481606D01*
X207517Y481005D01*
X207500Y480376D01*
X207282Y479785D01*
X206885Y479297D01*
X206352Y478961D01*
X206052Y478863D01*
X206052Y478863D01*
X206052Y477662D01*
X206089Y477667D01*
X206162Y477680D01*
X206235Y477694D01*
X206308Y477710D01*
X206344Y477719D01*
X206344D01*
Y475880D01*
X214687D01*
Y474565D01*
X211250D01*
Y472360D01*
X214687D01*
Y471045D01*
X211250D01*
Y468730D01*
X214687D01*
Y467415D01*
X211250D01*
Y465100D01*
X214687D01*
Y463785D01*
X211250D01*
Y461970D01*
X206844D01*
X206844Y463477D01*
X207304Y463676D01*
X208051Y464344D01*
X208551Y465213D01*
X208753Y466195D01*
X208637Y467190D01*
X208215Y468099D01*
X207528Y468829D01*
X206647Y469307D01*
X206153Y469396D01*
X206153Y469396D01*
X206153Y468184D01*
X206448Y468069D01*
X206962Y467706D01*
X207331Y467196D01*
X207517Y466595D01*
X207500Y465965D01*
X207282Y465375D01*
X206885Y464886D01*
X206352Y464551D01*
X206052Y464453D01*
X206052Y464453D01*
X206052Y463251D01*
X206089Y463257D01*
X206162Y463269D01*
X206235Y463283D01*
X206308Y463299D01*
X206344Y463308D01*
X206344D01*
Y461470D01*
X214687D01*
Y460155D01*
X211250D01*
Y457949D01*
X214687D01*
Y456634D01*
X211250D01*
Y454319D01*
X214687D01*
Y453004D01*
X211250D01*
Y450689D01*
X214687D01*
Y449374D01*
X211250D01*
Y447559D01*
X206844D01*
X206844Y449066D01*
X207304Y449266D01*
X208051Y449934D01*
X208551Y450802D01*
X208753Y451784D01*
X208637Y452780D01*
X208215Y453689D01*
X207528Y454419D01*
X206647Y454897D01*
X206153Y454985D01*
Y454985D01*
X206153Y453773D01*
X206448Y453659D01*
X206962Y453295D01*
X207331Y452786D01*
X207517Y452184D01*
X207500Y451555D01*
X207282Y450965D01*
X206885Y450476D01*
X206352Y450140D01*
X206052Y450042D01*
X206052Y450042D01*
X206052Y448841D01*
X206089Y448846D01*
X206162Y448859D01*
X206235Y448873D01*
X206308Y448889D01*
X206344Y448898D01*
X206344D01*
Y447059D01*
X214687D01*
Y445744D01*
X211250D01*
Y443539D01*
X214687D01*
Y442224D01*
X211250D01*
Y439909D01*
X214687D01*
Y438594D01*
X211250D01*
Y436279D01*
X214687D01*
Y434964D01*
X211250D01*
Y433149D01*
X206844D01*
X206844Y434656D01*
X207304Y434855D01*
X208051Y435523D01*
X208551Y436392D01*
X208753Y437374D01*
X208637Y438369D01*
X208215Y439278D01*
X207528Y440008D01*
X206647Y440486D01*
X206153Y440575D01*
Y440575D01*
X206153Y439363D01*
X206448Y439248D01*
X206962Y438885D01*
X207331Y438375D01*
X207517Y437774D01*
X207500Y437145D01*
X207282Y436554D01*
X206885Y436065D01*
X206352Y435730D01*
X206052Y435632D01*
X206052Y435632D01*
X206052Y434430D01*
X206089Y434436D01*
X206162Y434448D01*
X206235Y434462D01*
X206308Y434478D01*
X206344Y434487D01*
X206344D01*
Y432649D01*
X214687D01*
Y431334D01*
X211250D01*
Y429128D01*
X214687D01*
Y427813D01*
X211250D01*
Y425498D01*
X214687D01*
Y424183D01*
X211250D01*
Y421868D01*
X214687D01*
Y420553D01*
X211250D01*
Y418738D01*
X206844D01*
X206844Y420245D01*
X207304Y420445D01*
X208051Y421113D01*
X208551Y421981D01*
X208753Y422963D01*
X208637Y423959D01*
X208215Y424868D01*
X207528Y425598D01*
X206647Y426076D01*
X206153Y426164D01*
Y426164D01*
X206153Y424952D01*
X206448Y424838D01*
X206962Y424474D01*
X207331Y423965D01*
X207517Y423363D01*
X207500Y422734D01*
X207282Y422144D01*
X206885Y421655D01*
X206352Y421320D01*
X206052Y421221D01*
X206052Y421221D01*
Y420020D01*
X206089Y420025D01*
X206162Y420038D01*
X206235Y420052D01*
X206308Y420068D01*
X206344Y420077D01*
Y420077D01*
Y418238D01*
X214687D01*
Y416923D01*
X211250D01*
Y414718D01*
X214687D01*
Y413403D01*
X211250D01*
Y411088D01*
X214687D01*
Y409773D01*
X211250D01*
Y407458D01*
X214687D01*
Y406143D01*
X211250D01*
Y404328D01*
X206844D01*
X206844Y405835D01*
X207304Y406035D01*
X208051Y406702D01*
X208551Y407571D01*
X208753Y408553D01*
X208637Y409548D01*
X208215Y410457D01*
X207528Y411188D01*
X206647Y411665D01*
X206153Y411754D01*
Y411754D01*
X206153Y410542D01*
X206448Y410428D01*
X206962Y410064D01*
X207331Y409554D01*
X207517Y408953D01*
X207500Y408324D01*
X207282Y407733D01*
X206885Y407244D01*
X206352Y406909D01*
X206052Y406811D01*
X206052Y406811D01*
Y405609D01*
X206089Y405615D01*
X206162Y405627D01*
X206235Y405642D01*
X206308Y405657D01*
X206344Y405666D01*
Y405666D01*
Y403828D01*
X214687D01*
Y402513D01*
X211250D01*
Y400307D01*
X214687D01*
Y398992D01*
X211250D01*
Y396677D01*
X214687D01*
Y395362D01*
X211250D01*
Y393047D01*
X214687D01*
Y391732D01*
X211250D01*
Y389917D01*
X206844D01*
X206844Y391424D01*
X207304Y391624D01*
X208051Y392292D01*
X208551Y393161D01*
X208753Y394142D01*
X208637Y395138D01*
X208215Y396047D01*
X207528Y396777D01*
X206647Y397255D01*
X206153Y397343D01*
Y397343D01*
X206153Y396131D01*
X206448Y396017D01*
X206962Y395653D01*
X207331Y395144D01*
X207517Y394542D01*
X207500Y393913D01*
X207282Y393323D01*
X206885Y392834D01*
X206352Y392499D01*
X206052Y392400D01*
X206052Y392400D01*
Y391199D01*
X206089Y391204D01*
X206162Y391217D01*
X206235Y391231D01*
X206308Y391247D01*
X206344Y391256D01*
Y391256D01*
Y389417D01*
X214687D01*
Y388102D01*
X211250D01*
Y385897D01*
X214687D01*
Y384582D01*
X211250D01*
Y382267D01*
X214687D01*
Y380952D01*
X211250D01*
Y378637D01*
X214687D01*
Y377322D01*
X211250D01*
Y375507D01*
X206844D01*
X206844Y377014D01*
X207304Y377214D01*
X208051Y377881D01*
X208551Y378750D01*
X208753Y379732D01*
X208637Y380728D01*
X208215Y381636D01*
X207528Y382367D01*
X206647Y382844D01*
X206153Y382933D01*
Y382933D01*
X206153Y381721D01*
X206448Y381607D01*
X206962Y381243D01*
X207331Y380733D01*
X207517Y380132D01*
X207500Y379503D01*
X207282Y378912D01*
X206885Y378424D01*
X206352Y378088D01*
X206052Y377990D01*
X206052Y377990D01*
Y376788D01*
X206089Y376794D01*
X206162Y376806D01*
X206235Y376821D01*
X206308Y376836D01*
X206344Y376845D01*
Y376845D01*
Y375007D01*
X214687D01*
Y373692D01*
X211250D01*
Y371486D01*
X214687D01*
Y370171D01*
X211250D01*
Y367857D01*
X214687D01*
Y366542D01*
X211250D01*
Y364227D01*
X214687D01*
Y362912D01*
X211250D01*
Y361097D01*
X206844D01*
X206844Y362603D01*
X207304Y362803D01*
X208051Y363471D01*
X208551Y364340D01*
X208753Y365321D01*
X208637Y366317D01*
X208215Y367226D01*
X207528Y367956D01*
X206647Y368434D01*
X206153Y368523D01*
Y368523D01*
X206153Y367310D01*
X206448Y367196D01*
X206962Y366832D01*
X207331Y366323D01*
X207517Y365722D01*
X207500Y365092D01*
X207282Y364502D01*
X206885Y364013D01*
X206352Y363678D01*
X206052Y363580D01*
X206052Y363580D01*
Y362378D01*
X206089Y362383D01*
X206162Y362396D01*
X206235Y362410D01*
X206308Y362426D01*
X206344Y362435D01*
Y362435D01*
Y360596D01*
X214687D01*
Y359281D01*
X211250D01*
Y357076D01*
X214687D01*
Y355761D01*
X211250D01*
Y353446D01*
X214687D01*
Y352131D01*
X211250D01*
Y349816D01*
X214687D01*
Y348501D01*
X211250D01*
Y346686D01*
X206844D01*
X206844Y348193D01*
X207304Y348393D01*
X208051Y349061D01*
X208551Y349929D01*
X208753Y350911D01*
X208637Y351907D01*
X208215Y352816D01*
X207528Y353546D01*
X206647Y354024D01*
X206153Y354112D01*
Y354112D01*
X206153Y352900D01*
X206448Y352786D01*
X206962Y352422D01*
X207331Y351912D01*
X207517Y351311D01*
X207500Y350682D01*
X207282Y350091D01*
X206885Y349603D01*
X206352Y349267D01*
X206052Y349169D01*
X206052Y349169D01*
Y347968D01*
X206089Y347973D01*
X206162Y347985D01*
X206235Y348000D01*
X206308Y348016D01*
X206344Y348024D01*
Y348024D01*
Y346186D01*
X214687D01*
Y344871D01*
X211250D01*
Y342666D01*
X214687D01*
Y341351D01*
X211250D01*
Y339036D01*
X214687D01*
Y337721D01*
X211250D01*
Y335405D01*
X214687D01*
Y334090D01*
X211250D01*
Y332276D01*
X206844D01*
X206844Y333783D01*
X207304Y333982D01*
X208051Y334650D01*
X208551Y335519D01*
X208753Y336501D01*
X208637Y337496D01*
X208215Y338405D01*
X207528Y339135D01*
X206647Y339613D01*
X206153Y339702D01*
Y339702D01*
X206153Y338490D01*
X206448Y338375D01*
X206962Y338012D01*
X207331Y337502D01*
X207517Y336901D01*
X207500Y336271D01*
X207282Y335681D01*
X206885Y335192D01*
X206352Y334857D01*
X206052Y334759D01*
X206052Y334759D01*
Y333557D01*
X206089Y333562D01*
X206162Y333575D01*
X206235Y333589D01*
X206308Y333605D01*
X206344Y333614D01*
Y333614D01*
Y331776D01*
X214687D01*
Y330461D01*
X211250D01*
Y328255D01*
X214687D01*
Y326940D01*
X211250D01*
Y324625D01*
X214687D01*
Y323310D01*
X211250D01*
Y320995D01*
X214687D01*
Y319680D01*
X211250D01*
Y317865D01*
X206844D01*
X206844Y319372D01*
X207304Y319572D01*
X208051Y320240D01*
X208551Y321108D01*
X208753Y322090D01*
X208637Y323086D01*
X208215Y323994D01*
X207528Y324725D01*
X206647Y325203D01*
X206153Y325291D01*
Y325291D01*
X206153Y324079D01*
X206448Y323965D01*
X206962Y323601D01*
X207331Y323091D01*
X207517Y322490D01*
X207500Y321861D01*
X207282Y321270D01*
X206885Y320782D01*
X206352Y320446D01*
X206052Y320348D01*
X206052Y320348D01*
Y319147D01*
X206089Y319152D01*
X206162Y319164D01*
X206235Y319179D01*
X206308Y319195D01*
X206344Y319203D01*
Y319203D01*
Y317365D01*
X214687D01*
Y316050D01*
X211250D01*
Y313845D01*
X214687D01*
Y312530D01*
X211250D01*
Y310215D01*
X214687D01*
Y308900D01*
X211250D01*
Y306585D01*
X214687D01*
Y305270D01*
X211250D01*
Y303455D01*
X206844D01*
X206844Y304962D01*
X207304Y305161D01*
X208051Y305829D01*
X208551Y306698D01*
X208753Y307680D01*
X208637Y308675D01*
X208215Y309584D01*
X207528Y310314D01*
X206647Y310792D01*
X206153Y310881D01*
Y310881D01*
X206153Y309669D01*
X206448Y309554D01*
X206962Y309191D01*
X207331Y308681D01*
X207517Y308080D01*
X207500Y307450D01*
X207282Y306860D01*
X206885Y306371D01*
X206352Y306036D01*
X206052Y305938D01*
X206052Y305938D01*
Y304736D01*
X206089Y304742D01*
X206162Y304754D01*
X206235Y304768D01*
X206308Y304784D01*
X206344Y304793D01*
Y304793D01*
Y302955D01*
X214687D01*
Y301640D01*
X211250D01*
Y299434D01*
X214687D01*
Y298119D01*
X211250D01*
Y295804D01*
X214687D01*
Y294489D01*
X211250D01*
Y292174D01*
X214687D01*
Y290859D01*
X211250D01*
Y289044D01*
X206844D01*
X206844Y290551D01*
X207304Y290751D01*
X208051Y291419D01*
X208551Y292287D01*
X208753Y293269D01*
X208637Y294265D01*
X208215Y295174D01*
X207528Y295904D01*
X206647Y296382D01*
X206153Y296470D01*
Y296470D01*
X206153Y295258D01*
X206448Y295144D01*
X206962Y294780D01*
X207331Y294270D01*
X207517Y293669D01*
X207500Y293040D01*
X207282Y292449D01*
X206885Y291961D01*
X206352Y291625D01*
X206052Y291527D01*
X206052Y291527D01*
Y290326D01*
X206089Y290331D01*
X206162Y290344D01*
X206235Y290358D01*
X206308Y290374D01*
X206344Y290383D01*
Y290383D01*
Y288544D01*
X214687D01*
Y287229D01*
X211250D01*
Y285024D01*
X214687D01*
Y283709D01*
X211250D01*
Y281394D01*
X214687D01*
Y280079D01*
X211250D01*
Y277764D01*
X214687D01*
Y276449D01*
X211250D01*
Y274634D01*
X206844D01*
X206844Y276141D01*
X207304Y276340D01*
X208051Y277008D01*
X208551Y277877D01*
X208753Y278859D01*
X208637Y279854D01*
X208215Y280763D01*
X207528Y281493D01*
X206647Y281971D01*
X206153Y282060D01*
Y282060D01*
X206153Y280848D01*
X206448Y280733D01*
X206962Y280370D01*
X207331Y279860D01*
X207517Y279259D01*
X207500Y278629D01*
X207282Y278039D01*
X206885Y277550D01*
X206352Y277215D01*
X206052Y277117D01*
X206052Y277117D01*
Y275915D01*
X206089Y275921D01*
X206162Y275933D01*
X206235Y275947D01*
X206308Y275963D01*
X206344Y275972D01*
Y275972D01*
Y274134D01*
X214687D01*
Y272819D01*
X211250D01*
Y270613D01*
X214687D01*
Y269298D01*
X211250D01*
Y266983D01*
X214687D01*
Y265668D01*
X211250D01*
Y263353D01*
X214687D01*
Y262038D01*
X211250D01*
Y260223D01*
X206844D01*
X206844Y261730D01*
X207304Y261930D01*
X208051Y262598D01*
X208551Y263466D01*
X208753Y264448D01*
X208637Y265444D01*
X208215Y266353D01*
X207528Y267083D01*
X206647Y267561D01*
X206153Y267649D01*
Y267649D01*
X206153Y266437D01*
X206448Y266323D01*
X206962Y265959D01*
X207331Y265450D01*
X207517Y264848D01*
X207500Y264219D01*
X207282Y263629D01*
X206885Y263140D01*
X206352Y262805D01*
X206052Y262706D01*
X206052Y262706D01*
Y261505D01*
X206089Y261510D01*
X206162Y261523D01*
X206235Y261537D01*
X206308Y261553D01*
X206344Y261562D01*
Y261562D01*
Y259723D01*
X214687D01*
Y258408D01*
X211250D01*
Y256203D01*
X214687D01*
Y254888D01*
X211250D01*
Y252573D01*
X214687D01*
Y251258D01*
X211250D01*
Y248943D01*
X214687D01*
Y247628D01*
X211250D01*
Y245813D01*
X206844D01*
X206844Y247320D01*
X207304Y247519D01*
X208051Y248187D01*
X208551Y249056D01*
X208753Y250038D01*
X208637Y251033D01*
X208215Y251942D01*
X207528Y252673D01*
X206647Y253150D01*
X206153Y253239D01*
Y253239D01*
X206153Y252027D01*
X206448Y251912D01*
X206962Y251549D01*
X207331Y251039D01*
X207517Y250438D01*
X207500Y249809D01*
X207282Y249218D01*
X206885Y248729D01*
X206352Y248394D01*
X206052Y248296D01*
X206052Y248296D01*
Y247094D01*
X206089Y247100D01*
X206162Y247112D01*
X206235Y247126D01*
X206308Y247142D01*
X206344Y247151D01*
Y247151D01*
Y245313D01*
X214687D01*
Y243998D01*
X211250D01*
Y241792D01*
X214687D01*
Y240477D01*
X211250D01*
Y238162D01*
X214687D01*
Y236847D01*
X211250D01*
Y234532D01*
X214687D01*
Y233217D01*
X211250D01*
Y231402D01*
X206844D01*
X206844Y232909D01*
X207304Y233109D01*
X208051Y233777D01*
X208551Y234646D01*
X208753Y235627D01*
X208637Y236623D01*
X208215Y237532D01*
X207528Y238262D01*
X206647Y238740D01*
X206153Y238828D01*
Y238828D01*
X206153Y237616D01*
X206448Y237502D01*
X206962Y237138D01*
X207331Y236629D01*
X207517Y236027D01*
X207500Y235398D01*
X207282Y234808D01*
X206885Y234319D01*
X206352Y233984D01*
X206052Y233885D01*
X206052Y233885D01*
Y232684D01*
X206089Y232689D01*
X206162Y232702D01*
X206235Y232716D01*
X206308Y232732D01*
X206344Y232741D01*
Y232741D01*
Y230902D01*
X214687D01*
Y229587D01*
X211250D01*
Y227382D01*
X214687D01*
Y226067D01*
X211250D01*
Y223752D01*
X214687D01*
Y222437D01*
X211250D01*
Y220122D01*
X214687D01*
Y218807D01*
X211250D01*
Y216992D01*
X206844D01*
X206844Y218499D01*
X207304Y218699D01*
X208051Y219366D01*
X208551Y220235D01*
X208753Y221217D01*
X208637Y222213D01*
X208215Y223121D01*
X207528Y223852D01*
X206647Y224329D01*
X206153Y224418D01*
Y224418D01*
X206153Y223206D01*
X206448Y223092D01*
X206962Y222728D01*
X207331Y222218D01*
X207517Y221617D01*
X207500Y220988D01*
X207282Y220397D01*
X206885Y219908D01*
X206352Y219573D01*
X206052Y219475D01*
X206052Y219475D01*
Y218273D01*
X206089Y218279D01*
X206162Y218291D01*
X206235Y218305D01*
X206308Y218321D01*
X206344Y218330D01*
Y218330D01*
Y216492D01*
X214687D01*
Y215177D01*
X211250D01*
Y212971D01*
X214687D01*
Y211656D01*
X211250D01*
Y209341D01*
X214687D01*
Y208026D01*
X211250D01*
Y205711D01*
X214687D01*
Y204396D01*
X211250D01*
Y202581D01*
X206844D01*
X206844Y204088D01*
X207304Y204288D01*
X208051Y204956D01*
X208551Y205825D01*
X208753Y206806D01*
X208637Y207802D01*
X208215Y208711D01*
X207528Y209441D01*
X206647Y209919D01*
X206153Y210008D01*
Y210008D01*
X206153Y208795D01*
X206448Y208681D01*
X206962Y208317D01*
X207331Y207808D01*
X207517Y207206D01*
X207500Y206577D01*
X207282Y205987D01*
X206885Y205498D01*
X206352Y205163D01*
X206052Y205064D01*
X206052Y205064D01*
Y203863D01*
X206089Y203868D01*
X206162Y203881D01*
X206235Y203895D01*
X206308Y203911D01*
X206344Y203920D01*
Y203920D01*
Y202081D01*
X214687D01*
Y200766D01*
X211250D01*
Y198561D01*
X214687D01*
Y197246D01*
X211250D01*
Y194931D01*
X214687D01*
Y193616D01*
X211250D01*
Y191301D01*
X214687D01*
Y189986D01*
X211250D01*
Y188171D01*
X206844D01*
X206844Y189678D01*
X207304Y189878D01*
X208051Y190545D01*
X208551Y191414D01*
X208753Y192396D01*
X208637Y193392D01*
X208215Y194300D01*
X207528Y195031D01*
X206647Y195509D01*
X206153Y195597D01*
Y195597D01*
X206153Y194385D01*
X206448Y194271D01*
X206962Y193907D01*
X207331Y193397D01*
X207517Y192796D01*
X207500Y192167D01*
X207282Y191576D01*
X206885Y191087D01*
X206352Y190752D01*
X206052Y190654D01*
X206052Y190654D01*
Y189453D01*
X206089Y189458D01*
X206162Y189470D01*
X206235Y189485D01*
X206308Y189500D01*
X206344Y189509D01*
Y189509D01*
Y187671D01*
X214687D01*
Y186356D01*
X211250D01*
Y184151D01*
X214687D01*
Y182835D01*
X211250D01*
Y180520D01*
X214687D01*
Y179206D01*
X211250D01*
Y176891D01*
X214687D01*
Y175575D01*
X211250D01*
Y173760D01*
X206844D01*
X206844Y175267D01*
X207304Y175467D01*
X208051Y176135D01*
X208551Y177004D01*
X208753Y177985D01*
X208637Y178981D01*
X208215Y179890D01*
X207528Y180620D01*
X206647Y181098D01*
X206153Y181187D01*
Y181187D01*
X206153Y179974D01*
X206448Y179860D01*
X206962Y179496D01*
X207331Y178987D01*
X207517Y178385D01*
X207500Y177756D01*
X207282Y177166D01*
X206885Y176677D01*
X206352Y176342D01*
X206052Y176243D01*
X206052Y176243D01*
Y175042D01*
D02*
G37*
G36*
X196020Y178706D02*
Y181020D01*
X199457D01*
Y182335D01*
X196020D01*
Y184651D01*
X199457D01*
Y185856D01*
X196020D01*
Y188171D01*
X199457D01*
Y189486D01*
X196020D01*
Y191801D01*
X199457D01*
Y193116D01*
X196020D01*
Y195431D01*
X199457D01*
Y196746D01*
X196020D01*
Y199061D01*
X199457D01*
Y200266D01*
X196020D01*
Y202581D01*
X199457D01*
Y203896D01*
X196020D01*
Y206211D01*
X199457D01*
Y207526D01*
X196020D01*
Y209841D01*
X199457D01*
Y211156D01*
X196020D01*
Y213471D01*
X199457D01*
Y214677D01*
X196020D01*
Y216992D01*
X199457D01*
Y218307D01*
X196020D01*
Y220622D01*
X199457D01*
Y221937D01*
X196020D01*
Y224252D01*
X199457D01*
Y225567D01*
X196020D01*
Y227882D01*
X199457D01*
Y229087D01*
X196020D01*
Y231402D01*
X199457D01*
Y232717D01*
X196020D01*
Y235032D01*
X199457D01*
Y236347D01*
X196020D01*
Y238662D01*
X199457D01*
Y239977D01*
X196020D01*
Y242292D01*
X199457D01*
Y243498D01*
X196020D01*
Y245813D01*
X199457D01*
Y247128D01*
X196020D01*
Y249443D01*
X199457D01*
Y250758D01*
X196020D01*
Y253073D01*
X199457D01*
Y254388D01*
X196020D01*
Y256703D01*
X199457D01*
Y257908D01*
X196020D01*
Y260223D01*
X199457D01*
Y261538D01*
X196020D01*
Y263853D01*
X199457D01*
Y265168D01*
X196020D01*
Y267483D01*
X199457D01*
Y268798D01*
X196020D01*
Y271113D01*
X199457D01*
Y272319D01*
X196020D01*
Y274634D01*
X199457D01*
Y275949D01*
X196020D01*
Y278264D01*
X199457D01*
Y279579D01*
X196020D01*
Y281894D01*
X199457D01*
Y283209D01*
X196020D01*
Y285524D01*
X199457D01*
Y286729D01*
X196020D01*
Y289044D01*
X199457D01*
Y290359D01*
X196020D01*
Y292674D01*
X199457D01*
Y293989D01*
X196020D01*
Y296304D01*
X199457D01*
Y297619D01*
X196020D01*
Y299934D01*
X199457D01*
Y301140D01*
X196020D01*
Y303455D01*
X199457D01*
Y304770D01*
X196020D01*
Y307085D01*
X199457D01*
Y308400D01*
X196020D01*
Y310715D01*
X199457D01*
Y312030D01*
X196020D01*
Y314345D01*
X199457D01*
Y315550D01*
X196020D01*
Y317865D01*
X199457D01*
Y319180D01*
X196020D01*
Y321495D01*
X199457D01*
Y322810D01*
X196020D01*
Y325125D01*
X199457D01*
Y326440D01*
X196020D01*
Y328755D01*
X199457D01*
Y329961D01*
X196020D01*
Y332276D01*
X199457D01*
Y333591D01*
X196020D01*
Y335906D01*
X199457D01*
Y337221D01*
X196020D01*
Y339536D01*
X199457D01*
Y340851D01*
X196020D01*
Y343165D01*
X199457D01*
Y344371D01*
X196020D01*
Y346686D01*
X199457D01*
Y348001D01*
X196020D01*
Y350316D01*
X199457D01*
Y351631D01*
X196020D01*
Y353946D01*
X199457D01*
Y355261D01*
X196020D01*
Y357576D01*
X199457D01*
Y358782D01*
X196020D01*
Y361097D01*
X199457D01*
Y362411D01*
X196020D01*
Y364726D01*
X199457D01*
Y366041D01*
X196020D01*
Y368356D01*
X199457D01*
Y369672D01*
X196020D01*
Y371987D01*
X199457D01*
Y373192D01*
X196020D01*
Y375507D01*
X199457D01*
Y376822D01*
X196020D01*
Y379137D01*
X199457D01*
Y380452D01*
X196020D01*
Y382767D01*
X199457D01*
Y384082D01*
X196020D01*
Y386397D01*
X199457D01*
Y387602D01*
X196020D01*
Y389917D01*
X199457D01*
Y391232D01*
X196020D01*
Y393547D01*
X199457D01*
Y394862D01*
X196020D01*
Y397177D01*
X199457D01*
Y398492D01*
X196020D01*
Y400807D01*
X199457D01*
Y402013D01*
X196020D01*
Y404328D01*
X199457D01*
Y405643D01*
X196020D01*
Y407958D01*
X199457D01*
Y409273D01*
X196020D01*
Y411588D01*
X199457D01*
Y412903D01*
X196020D01*
Y415218D01*
X199457D01*
Y416423D01*
X196020D01*
Y418738D01*
X199457D01*
Y420053D01*
X196020D01*
Y422368D01*
X199457D01*
Y423683D01*
X196020D01*
Y425998D01*
X199457D01*
Y427313D01*
X196020D01*
Y429628D01*
X199457D01*
Y430834D01*
X196020D01*
Y433149D01*
X199457D01*
Y434464D01*
X196020D01*
Y436779D01*
X199457D01*
Y438094D01*
X196020D01*
Y440409D01*
X199457D01*
Y441724D01*
X196020D01*
Y444039D01*
X199457D01*
Y445244D01*
X196020D01*
Y447559D01*
X199457D01*
Y448874D01*
X196020D01*
Y451189D01*
X199457D01*
Y452504D01*
X196020D01*
Y454819D01*
X199457D01*
Y456134D01*
X196020D01*
Y458449D01*
X199457D01*
Y459655D01*
X196020D01*
Y461970D01*
X199457D01*
Y463285D01*
X196020D01*
Y465600D01*
X199457D01*
Y466915D01*
X196020D01*
Y469230D01*
X199457D01*
Y470545D01*
X196020D01*
Y472860D01*
X199457D01*
Y474065D01*
X196020D01*
Y476380D01*
X199457D01*
Y477695D01*
X196020D01*
Y480010D01*
X199457D01*
Y481325D01*
X196020D01*
Y483640D01*
X199457D01*
Y484955D01*
X196020D01*
Y487270D01*
X199457D01*
Y488476D01*
X196020D01*
Y490791D01*
X199457D01*
Y492106D01*
X196020D01*
Y494421D01*
X199457D01*
Y495736D01*
X196020D01*
Y498051D01*
X199457D01*
Y499366D01*
X196020D01*
Y501681D01*
X199457D01*
Y502886D01*
X196020D01*
Y505201D01*
X199457D01*
Y506516D01*
X196020D01*
Y508831D01*
X199457D01*
Y510146D01*
X196020D01*
Y512461D01*
X199457D01*
Y513776D01*
X196020D01*
Y516091D01*
X199457D01*
Y517297D01*
X196020D01*
Y519612D01*
X199457D01*
Y520927D01*
X196020D01*
Y523242D01*
X199457D01*
Y524556D01*
X196020D01*
Y526871D01*
X199457D01*
Y528187D01*
X196020D01*
Y530502D01*
X199457D01*
Y531707D01*
X196020D01*
Y534022D01*
X199457D01*
Y535337D01*
X196020D01*
Y537652D01*
X199457D01*
Y538967D01*
X196020D01*
Y541282D01*
X199457D01*
Y542597D01*
X196020D01*
Y544912D01*
X199457D01*
Y546117D01*
X196020D01*
Y548432D01*
X199457D01*
Y549748D01*
X196020D01*
Y552062D01*
X199457D01*
Y553377D01*
X196020D01*
Y555692D01*
X199457D01*
Y557007D01*
X196020D01*
Y559323D01*
X199457D01*
Y560528D01*
X196020D01*
Y562843D01*
X199457D01*
Y564158D01*
X196020D01*
Y566473D01*
X199457D01*
Y567788D01*
X196020D01*
Y570103D01*
X199457D01*
Y571418D01*
X196020D01*
Y573733D01*
X199457D01*
Y574938D01*
X196020D01*
Y577253D01*
X199457D01*
Y578568D01*
X196020D01*
Y580883D01*
X199457D01*
Y582198D01*
X196020D01*
Y584513D01*
X199457D01*
Y585828D01*
X196020D01*
Y588143D01*
X199457D01*
Y588636D01*
X198998D01*
Y589699D01*
X200415D01*
Y588636D01*
X199957D01*
Y587643D01*
X196520D01*
Y586328D01*
X199957D01*
Y584013D01*
X196520D01*
Y582698D01*
X199957D01*
Y580383D01*
X196520D01*
Y579068D01*
X199957D01*
Y576753D01*
X196520D01*
Y575438D01*
X199957D01*
Y573233D01*
X196520D01*
Y571918D01*
X199957D01*
Y569603D01*
X196520D01*
Y568288D01*
X199957D01*
Y565973D01*
X196520D01*
Y564658D01*
X199957D01*
Y562843D01*
X204363D01*
Y564350D01*
X203903Y564550D01*
X203156Y565217D01*
X202656Y566086D01*
X202453Y567068D01*
X202570Y568063D01*
X202992Y568972D01*
X203679Y569703D01*
X204560Y570180D01*
X205053Y570269D01*
Y570269D01*
Y569057D01*
X204759Y568942D01*
X204245Y568579D01*
X203876Y568069D01*
X203690Y567468D01*
X203707Y566839D01*
X203925Y566248D01*
X204322Y565760D01*
X204854Y565424D01*
X205155Y565326D01*
Y565326D01*
X205155Y564124D01*
X205118Y564130D01*
X205045Y564142D01*
X204972Y564156D01*
X204899Y564173D01*
X204863Y564181D01*
X204863Y564181D01*
Y562343D01*
X196520D01*
Y561028D01*
X199957D01*
Y558822D01*
X196520D01*
Y557507D01*
X199957D01*
Y555193D01*
X196520D01*
Y553877D01*
X199957D01*
Y551562D01*
X196520D01*
Y550247D01*
X199957D01*
Y548432D01*
X204363D01*
Y549939D01*
X203903Y550139D01*
X203156Y550807D01*
X202656Y551676D01*
X202453Y552657D01*
X202570Y553653D01*
X202992Y554562D01*
X203679Y555292D01*
X204560Y555770D01*
X205053Y555859D01*
Y555859D01*
Y554646D01*
X204759Y554532D01*
X204245Y554168D01*
X203876Y553659D01*
X203690Y553057D01*
X203707Y552428D01*
X203925Y551838D01*
X204322Y551349D01*
X204854Y551014D01*
X205155Y550915D01*
Y550915D01*
X205155Y549714D01*
X205118Y549719D01*
X205045Y549732D01*
X204972Y549746D01*
X204899Y549762D01*
X204863Y549771D01*
X204863Y549771D01*
Y547932D01*
X196520D01*
Y546618D01*
X199957D01*
Y544412D01*
X196520D01*
Y543097D01*
X199957D01*
Y540782D01*
X196520D01*
Y539467D01*
X199957D01*
Y537152D01*
X196520D01*
Y535837D01*
X199957D01*
Y534022D01*
X204363D01*
Y535529D01*
X203903Y535729D01*
X203156Y536397D01*
X202656Y537265D01*
X202453Y538247D01*
X202570Y539243D01*
X202992Y540151D01*
X203679Y540882D01*
X204560Y541360D01*
X205053Y541448D01*
Y541448D01*
Y540236D01*
X204759Y540122D01*
X204245Y539758D01*
X203876Y539248D01*
X203690Y538647D01*
X203707Y538018D01*
X203925Y537427D01*
X204322Y536939D01*
X204854Y536603D01*
X205155Y536505D01*
Y536505D01*
X205155Y535304D01*
X205118Y535309D01*
X205045Y535321D01*
X204972Y535336D01*
X204899Y535352D01*
X204863Y535360D01*
X204863Y535360D01*
Y533522D01*
X196520D01*
Y532207D01*
X199957D01*
Y530001D01*
X196520D01*
Y528687D01*
X199957D01*
Y526371D01*
X196520D01*
Y525057D01*
X199957D01*
Y522742D01*
X196520D01*
Y521426D01*
X199957D01*
Y519612D01*
X204363D01*
Y521118D01*
X203903Y521318D01*
X203156Y521986D01*
X202656Y522855D01*
X202453Y523837D01*
X202570Y524832D01*
X202992Y525741D01*
X203679Y526471D01*
X204560Y526949D01*
X205053Y527038D01*
Y527038D01*
Y525826D01*
X204759Y525711D01*
X204245Y525348D01*
X203876Y524838D01*
X203690Y524236D01*
X203707Y523607D01*
X203925Y523017D01*
X204322Y522528D01*
X204854Y522193D01*
X205155Y522094D01*
Y522095D01*
X205155Y520893D01*
X205118Y520898D01*
X205045Y520911D01*
X204972Y520925D01*
X204899Y520941D01*
X204863Y520950D01*
X204863Y520950D01*
Y519111D01*
X196520D01*
Y517797D01*
X199957D01*
Y515591D01*
X196520D01*
Y514276D01*
X199957D01*
Y511961D01*
X196520D01*
Y510646D01*
X199957D01*
Y508331D01*
X196520D01*
Y507016D01*
X199957D01*
Y505201D01*
X204363D01*
Y506708D01*
X203903Y506908D01*
X203156Y507576D01*
X202656Y508444D01*
X202453Y509426D01*
X202570Y510422D01*
X202992Y511331D01*
X203679Y512061D01*
X204560Y512539D01*
X205053Y512627D01*
Y512627D01*
Y511415D01*
X204759Y511301D01*
X204245Y510937D01*
X203876Y510427D01*
X203690Y509826D01*
X203707Y509197D01*
X203925Y508606D01*
X204322Y508118D01*
X204854Y507782D01*
X205155Y507684D01*
Y507684D01*
X205155Y506483D01*
X205118Y506488D01*
X205045Y506500D01*
X204972Y506515D01*
X204899Y506531D01*
X204863Y506539D01*
X204863Y506539D01*
Y504701D01*
X196520D01*
Y503386D01*
X199957D01*
Y501181D01*
X196520D01*
Y499866D01*
X199957D01*
Y497551D01*
X196520D01*
Y496236D01*
X199957D01*
Y493921D01*
X196520D01*
Y492606D01*
X199957D01*
Y490791D01*
X204363D01*
Y492298D01*
X203903Y492497D01*
X203156Y493165D01*
X202656Y494034D01*
X202453Y495015D01*
X202570Y496011D01*
X202992Y496920D01*
X203679Y497650D01*
X204560Y498128D01*
X205053Y498217D01*
Y498217D01*
Y497005D01*
X204759Y496890D01*
X204245Y496526D01*
X203876Y496017D01*
X203690Y495416D01*
X203707Y494786D01*
X203925Y494196D01*
X204322Y493707D01*
X204854Y493372D01*
X205155Y493274D01*
Y493274D01*
X205155Y492072D01*
X205118Y492077D01*
X205045Y492090D01*
X204972Y492104D01*
X204899Y492120D01*
X204863Y492129D01*
X204863Y492129D01*
Y490291D01*
X196520D01*
Y488976D01*
X199957D01*
Y486770D01*
X196520D01*
Y485455D01*
X199957D01*
Y483140D01*
X196520D01*
Y481825D01*
X199957D01*
Y479510D01*
X196520D01*
Y478195D01*
X199957D01*
Y476380D01*
X204363D01*
Y477887D01*
X203903Y478087D01*
X203156Y478755D01*
X202656Y479623D01*
X202453Y480605D01*
X202570Y481601D01*
X202992Y482510D01*
X203679Y483240D01*
X204560Y483718D01*
X205053Y483806D01*
Y483806D01*
Y482594D01*
X204759Y482480D01*
X204245Y482116D01*
X203876Y481606D01*
X203690Y481005D01*
X203707Y480376D01*
X203925Y479785D01*
X204322Y479297D01*
X204854Y478961D01*
X205155Y478863D01*
Y478863D01*
Y477662D01*
X205118Y477667D01*
X205045Y477680D01*
X204972Y477694D01*
X204899Y477710D01*
X204863Y477719D01*
D01*
Y475880D01*
X196520D01*
Y474565D01*
X199957D01*
Y472360D01*
X196520D01*
Y471045D01*
X199957D01*
Y468730D01*
X196520D01*
Y467415D01*
X199957D01*
Y465100D01*
X196520D01*
Y463785D01*
X199957D01*
Y461970D01*
X204363D01*
Y463477D01*
X203903Y463676D01*
X203156Y464344D01*
X202656Y465213D01*
X202453Y466195D01*
X202570Y467190D01*
X202992Y468099D01*
X203679Y468829D01*
X204560Y469307D01*
X205053Y469396D01*
Y469396D01*
Y468184D01*
X204759Y468069D01*
X204245Y467706D01*
X203876Y467196D01*
X203690Y466595D01*
X203707Y465965D01*
X203925Y465375D01*
X204322Y464886D01*
X204854Y464551D01*
X205155Y464453D01*
Y464453D01*
Y463251D01*
X205118Y463257D01*
X205045Y463269D01*
X204972Y463283D01*
X204899Y463299D01*
X204863Y463308D01*
D01*
Y461470D01*
X196520D01*
Y460155D01*
X199957D01*
Y457949D01*
X196520D01*
Y456634D01*
X199957D01*
Y454319D01*
X196520D01*
Y453004D01*
X199957D01*
Y450689D01*
X196520D01*
Y449374D01*
X199957D01*
Y447559D01*
X204363D01*
Y449066D01*
X203903Y449266D01*
X203156Y449934D01*
X202656Y450802D01*
X202453Y451784D01*
X202570Y452780D01*
X202992Y453689D01*
X203679Y454419D01*
X204560Y454897D01*
X205053Y454985D01*
X205053Y454985D01*
Y453773D01*
X204759Y453659D01*
X204245Y453295D01*
X203876Y452786D01*
X203690Y452184D01*
X203707Y451555D01*
X203925Y450965D01*
X204322Y450476D01*
X204854Y450140D01*
X205155Y450042D01*
Y450042D01*
Y448841D01*
X205118Y448846D01*
X205045Y448859D01*
X204972Y448873D01*
X204899Y448889D01*
X204863Y448898D01*
D01*
Y447059D01*
X196520D01*
Y445744D01*
X199957D01*
Y443539D01*
X196520D01*
Y442224D01*
X199957D01*
Y439909D01*
X196520D01*
Y438594D01*
X199957D01*
Y436279D01*
X196520D01*
Y434964D01*
X199957D01*
Y433149D01*
X204363D01*
Y434656D01*
X203903Y434855D01*
X203156Y435523D01*
X202656Y436392D01*
X202453Y437374D01*
X202570Y438369D01*
X202992Y439278D01*
X203679Y440008D01*
X204560Y440486D01*
X205053Y440575D01*
X205053Y440575D01*
Y439363D01*
X204759Y439248D01*
X204245Y438885D01*
X203876Y438375D01*
X203690Y437774D01*
X203707Y437145D01*
X203925Y436554D01*
X204322Y436065D01*
X204854Y435730D01*
X205155Y435632D01*
Y435632D01*
Y434430D01*
X205118Y434436D01*
X205045Y434448D01*
X204972Y434462D01*
X204899Y434478D01*
X204863Y434487D01*
D01*
Y432649D01*
X196520D01*
Y431334D01*
X199957D01*
Y429128D01*
X196520D01*
Y427813D01*
X199957D01*
Y425498D01*
X196520D01*
Y424183D01*
X199957D01*
Y421868D01*
X196520D01*
Y420553D01*
X199957D01*
Y418738D01*
X204363D01*
Y420245D01*
X203903Y420445D01*
X203156Y421113D01*
X202656Y421981D01*
X202453Y422963D01*
X202570Y423959D01*
X202992Y424868D01*
X203679Y425598D01*
X204560Y426076D01*
X205053Y426164D01*
X205053Y426164D01*
Y424952D01*
X204759Y424838D01*
X204245Y424474D01*
X203876Y423965D01*
X203690Y423363D01*
X203707Y422734D01*
X203925Y422144D01*
X204322Y421655D01*
X204854Y421320D01*
X205155Y421221D01*
Y421221D01*
X205155Y420020D01*
X205118Y420025D01*
X205045Y420038D01*
X204972Y420052D01*
X204899Y420068D01*
X204863Y420077D01*
X204863Y420077D01*
Y418238D01*
X196520D01*
Y416923D01*
X199957D01*
Y414718D01*
X196520D01*
Y413403D01*
X199957D01*
Y411088D01*
X196520D01*
Y409773D01*
X199957D01*
Y407458D01*
X196520D01*
Y406143D01*
X199957D01*
Y404328D01*
X204363D01*
Y405835D01*
X203903Y406035D01*
X203156Y406702D01*
X202656Y407571D01*
X202453Y408553D01*
X202570Y409548D01*
X202992Y410457D01*
X203679Y411188D01*
X204560Y411665D01*
X205053Y411754D01*
X205053Y411754D01*
Y410542D01*
X204759Y410428D01*
X204245Y410064D01*
X203876Y409554D01*
X203690Y408953D01*
X203707Y408324D01*
X203925Y407733D01*
X204322Y407244D01*
X204854Y406909D01*
X205155Y406811D01*
Y406811D01*
X205155Y405609D01*
X205118Y405615D01*
X205045Y405627D01*
X204972Y405642D01*
X204899Y405657D01*
X204863Y405666D01*
X204863Y405666D01*
Y403828D01*
X196520D01*
Y402513D01*
X199957D01*
Y400307D01*
X196520D01*
Y398992D01*
X199957D01*
Y396677D01*
X196520D01*
Y395362D01*
X199957D01*
Y393047D01*
X196520D01*
Y391732D01*
X199957D01*
Y389917D01*
X204363D01*
Y391424D01*
X203903Y391624D01*
X203156Y392292D01*
X202656Y393161D01*
X202453Y394142D01*
X202570Y395138D01*
X202992Y396047D01*
X203679Y396777D01*
X204560Y397255D01*
X205053Y397343D01*
X205053Y397343D01*
Y396131D01*
X204759Y396017D01*
X204245Y395653D01*
X203876Y395144D01*
X203690Y394542D01*
X203707Y393913D01*
X203925Y393323D01*
X204322Y392834D01*
X204854Y392499D01*
X205155Y392400D01*
Y392400D01*
X205155Y391199D01*
X205118Y391204D01*
X205045Y391217D01*
X204972Y391231D01*
X204899Y391247D01*
X204863Y391256D01*
X204863Y391256D01*
Y389417D01*
X196520D01*
Y388102D01*
X199957D01*
Y385897D01*
X196520D01*
Y384582D01*
X199957D01*
Y382267D01*
X196520D01*
Y380952D01*
X199957D01*
Y378637D01*
X196520D01*
Y377322D01*
X199957D01*
Y375507D01*
X204363D01*
Y377014D01*
X203903Y377214D01*
X203156Y377881D01*
X202656Y378750D01*
X202453Y379732D01*
X202570Y380728D01*
X202992Y381636D01*
X203679Y382367D01*
X204560Y382844D01*
X205053Y382933D01*
X205053Y382933D01*
Y381721D01*
X204759Y381607D01*
X204245Y381243D01*
X203876Y380733D01*
X203690Y380132D01*
X203707Y379503D01*
X203925Y378912D01*
X204322Y378424D01*
X204854Y378088D01*
X205155Y377990D01*
Y377990D01*
X205155Y376788D01*
X205118Y376794D01*
X205045Y376806D01*
X204972Y376821D01*
X204899Y376836D01*
X204863Y376845D01*
X204863Y376845D01*
Y375007D01*
X196520D01*
Y373692D01*
X199957D01*
Y371486D01*
X196520D01*
Y370171D01*
X199957D01*
Y367857D01*
X196520D01*
Y366542D01*
X199957D01*
Y364227D01*
X196520D01*
Y362912D01*
X199957D01*
Y361097D01*
X204363D01*
Y362603D01*
X203903Y362803D01*
X203156Y363471D01*
X202656Y364340D01*
X202453Y365321D01*
X202570Y366317D01*
X202992Y367226D01*
X203679Y367956D01*
X204560Y368434D01*
X205053Y368523D01*
X205053Y368523D01*
Y367310D01*
X204759Y367196D01*
X204245Y366832D01*
X203876Y366323D01*
X203690Y365722D01*
X203707Y365092D01*
X203925Y364502D01*
X204322Y364013D01*
X204854Y363678D01*
X205155Y363580D01*
Y363580D01*
X205155Y362378D01*
X205118Y362383D01*
X205045Y362396D01*
X204972Y362410D01*
X204899Y362426D01*
X204863Y362435D01*
X204863Y362435D01*
Y360596D01*
X196520D01*
Y359281D01*
X199957D01*
Y357076D01*
X196520D01*
Y355761D01*
X199957D01*
Y353446D01*
X196520D01*
Y352131D01*
X199957D01*
Y349816D01*
X196520D01*
Y348501D01*
X199957D01*
Y346686D01*
X204363D01*
Y348193D01*
X203903Y348393D01*
X203156Y349061D01*
X202656Y349929D01*
X202453Y350911D01*
X202570Y351907D01*
X202992Y352816D01*
X203679Y353546D01*
X204560Y354024D01*
X205053Y354112D01*
X205053Y354112D01*
Y352900D01*
X204759Y352786D01*
X204245Y352422D01*
X203876Y351912D01*
X203690Y351311D01*
X203707Y350682D01*
X203925Y350091D01*
X204322Y349603D01*
X204854Y349267D01*
X205155Y349169D01*
Y349169D01*
X205155Y347968D01*
X205118Y347973D01*
X205045Y347985D01*
X204972Y348000D01*
X204899Y348016D01*
X204863Y348024D01*
X204863Y348024D01*
Y346186D01*
X196520D01*
Y344871D01*
X199957D01*
Y342666D01*
X196520D01*
Y341351D01*
X199957D01*
Y339036D01*
X196520D01*
Y337721D01*
X199957D01*
Y335405D01*
X196520D01*
Y334090D01*
X199957D01*
Y332276D01*
X204363D01*
Y333783D01*
X203903Y333982D01*
X203156Y334650D01*
X202656Y335519D01*
X202453Y336501D01*
X202570Y337496D01*
X202992Y338405D01*
X203679Y339135D01*
X204560Y339613D01*
X205053Y339702D01*
X205053Y339702D01*
Y338490D01*
X204759Y338375D01*
X204245Y338012D01*
X203876Y337502D01*
X203690Y336901D01*
X203707Y336271D01*
X203925Y335681D01*
X204322Y335192D01*
X204854Y334857D01*
X205155Y334759D01*
Y334759D01*
X205155Y333557D01*
X205118Y333562D01*
X205045Y333575D01*
X204972Y333589D01*
X204899Y333605D01*
X204863Y333614D01*
X204863Y333614D01*
Y331776D01*
X196520D01*
Y330461D01*
X199957D01*
Y328255D01*
X196520D01*
Y326940D01*
X199957D01*
Y324625D01*
X196520D01*
Y323310D01*
X199957D01*
Y320995D01*
X196520D01*
Y319680D01*
X199957D01*
Y317865D01*
X204363D01*
Y319372D01*
X203903Y319572D01*
X203156Y320240D01*
X202656Y321108D01*
X202453Y322090D01*
X202570Y323086D01*
X202992Y323994D01*
X203679Y324725D01*
X204560Y325203D01*
X205053Y325291D01*
X205053Y325291D01*
Y324079D01*
X204759Y323965D01*
X204245Y323601D01*
X203876Y323091D01*
X203690Y322490D01*
X203707Y321861D01*
X203925Y321270D01*
X204322Y320782D01*
X204854Y320446D01*
X205155Y320348D01*
Y320348D01*
X205155Y319147D01*
X205118Y319152D01*
X205045Y319164D01*
X204972Y319179D01*
X204899Y319195D01*
X204863Y319203D01*
X204863Y319203D01*
Y317365D01*
X196520D01*
Y316050D01*
X199957D01*
Y313845D01*
X196520D01*
Y312530D01*
X199957D01*
Y310215D01*
X196520D01*
Y308900D01*
X199957D01*
Y306585D01*
X196520D01*
Y305270D01*
X199957D01*
Y303455D01*
X204363D01*
Y304962D01*
X203903Y305161D01*
X203156Y305829D01*
X202656Y306698D01*
X202453Y307680D01*
X202570Y308675D01*
X202992Y309584D01*
X203679Y310314D01*
X204560Y310792D01*
X205053Y310881D01*
X205053Y310881D01*
Y309669D01*
X204759Y309554D01*
X204245Y309191D01*
X203876Y308681D01*
X203690Y308080D01*
X203707Y307450D01*
X203925Y306860D01*
X204322Y306371D01*
X204854Y306036D01*
X205155Y305938D01*
Y305938D01*
X205155Y304736D01*
X205118Y304742D01*
X205045Y304754D01*
X204972Y304768D01*
X204899Y304784D01*
X204863Y304793D01*
X204863Y304793D01*
Y302955D01*
X196520D01*
Y301640D01*
X199957D01*
Y299434D01*
X196520D01*
Y298119D01*
X199957D01*
Y295804D01*
X196520D01*
Y294489D01*
X199957D01*
Y292174D01*
X196520D01*
Y290859D01*
X199957D01*
Y289044D01*
X204363D01*
Y290551D01*
X203903Y290751D01*
X203156Y291419D01*
X202656Y292287D01*
X202453Y293269D01*
X202570Y294265D01*
X202992Y295174D01*
X203679Y295904D01*
X204560Y296382D01*
X205053Y296470D01*
X205053Y296470D01*
Y295258D01*
X204759Y295144D01*
X204245Y294780D01*
X203876Y294270D01*
X203690Y293669D01*
X203707Y293040D01*
X203925Y292449D01*
X204322Y291961D01*
X204854Y291625D01*
X205155Y291527D01*
Y291527D01*
X205155Y290326D01*
X205118Y290331D01*
X205045Y290344D01*
X204972Y290358D01*
X204899Y290374D01*
X204863Y290383D01*
X204863Y290383D01*
Y288544D01*
X196520D01*
Y287229D01*
X199957D01*
Y285024D01*
X196520D01*
Y283709D01*
X199957D01*
Y281394D01*
X196520D01*
Y280079D01*
X199957D01*
Y277764D01*
X196520D01*
Y276449D01*
X199957D01*
Y274634D01*
X204363D01*
Y276141D01*
X203903Y276340D01*
X203156Y277008D01*
X202656Y277877D01*
X202453Y278859D01*
X202570Y279854D01*
X202992Y280763D01*
X203679Y281493D01*
X204560Y281971D01*
X205053Y282060D01*
X205053Y282060D01*
Y280848D01*
X204759Y280733D01*
X204245Y280370D01*
X203876Y279860D01*
X203690Y279259D01*
X203707Y278629D01*
X203925Y278039D01*
X204322Y277550D01*
X204854Y277215D01*
X205155Y277117D01*
Y277117D01*
X205155Y275915D01*
X205118Y275921D01*
X205045Y275933D01*
X204972Y275947D01*
X204899Y275963D01*
X204863Y275972D01*
X204863Y275972D01*
Y274134D01*
X196520D01*
Y272819D01*
X199957D01*
Y270613D01*
X196520D01*
Y269298D01*
X199957D01*
Y266983D01*
X196520D01*
Y265668D01*
X199957D01*
Y263353D01*
X196520D01*
Y262038D01*
X199957D01*
Y260223D01*
X204363D01*
Y261730D01*
X203903Y261930D01*
X203156Y262598D01*
X202656Y263466D01*
X202453Y264448D01*
X202570Y265444D01*
X202992Y266353D01*
X203679Y267083D01*
X204560Y267561D01*
X205053Y267649D01*
X205053Y267649D01*
Y266437D01*
X204759Y266323D01*
X204245Y265959D01*
X203876Y265450D01*
X203690Y264848D01*
X203707Y264219D01*
X203925Y263629D01*
X204322Y263140D01*
X204854Y262805D01*
X205155Y262706D01*
Y262706D01*
X205155Y261505D01*
X205118Y261510D01*
X205045Y261523D01*
X204972Y261537D01*
X204899Y261553D01*
X204863Y261562D01*
X204863Y261562D01*
Y259723D01*
X196520D01*
Y258408D01*
X199957D01*
Y256203D01*
X196520D01*
Y254888D01*
X199957D01*
Y252573D01*
X196520D01*
Y251258D01*
X199957D01*
Y248943D01*
X196520D01*
Y247628D01*
X199957D01*
Y245813D01*
X204363D01*
Y247320D01*
X203903Y247519D01*
X203156Y248187D01*
X202656Y249056D01*
X202453Y250038D01*
X202570Y251033D01*
X202992Y251942D01*
X203679Y252673D01*
X204560Y253150D01*
X205053Y253239D01*
X205053Y253239D01*
Y252027D01*
X204759Y251912D01*
X204245Y251549D01*
X203876Y251039D01*
X203690Y250438D01*
X203707Y249809D01*
X203925Y249218D01*
X204322Y248729D01*
X204854Y248394D01*
X205155Y248296D01*
Y248296D01*
X205155Y247094D01*
X205118Y247100D01*
X205045Y247112D01*
X204972Y247126D01*
X204899Y247142D01*
X204863Y247151D01*
X204863Y247151D01*
Y245313D01*
X196520D01*
Y243998D01*
X199957D01*
Y241792D01*
X196520D01*
Y240477D01*
X199957D01*
Y238162D01*
X196520D01*
Y236847D01*
X199957D01*
Y234532D01*
X196520D01*
Y233217D01*
X199957D01*
Y231402D01*
X204363D01*
Y232909D01*
X203903Y233109D01*
X203156Y233777D01*
X202656Y234646D01*
X202453Y235627D01*
X202570Y236623D01*
X202992Y237532D01*
X203679Y238262D01*
X204560Y238740D01*
X205053Y238828D01*
X205053Y238828D01*
Y237616D01*
X204759Y237502D01*
X204245Y237138D01*
X203876Y236629D01*
X203690Y236027D01*
X203707Y235398D01*
X203925Y234808D01*
X204322Y234319D01*
X204854Y233984D01*
X205155Y233885D01*
Y233885D01*
X205155Y232684D01*
X205118Y232689D01*
X205045Y232702D01*
X204972Y232716D01*
X204899Y232732D01*
X204863Y232741D01*
X204863Y232741D01*
Y230902D01*
X196520D01*
Y229587D01*
X199957D01*
Y227382D01*
X196520D01*
Y226067D01*
X199957D01*
Y223752D01*
X196520D01*
Y222437D01*
X199957D01*
Y220122D01*
X196520D01*
Y218807D01*
X199957D01*
Y216992D01*
X204363D01*
Y218499D01*
X203903Y218699D01*
X203156Y219366D01*
X202656Y220235D01*
X202453Y221217D01*
X202570Y222213D01*
X202992Y223121D01*
X203679Y223852D01*
X204560Y224329D01*
X205053Y224418D01*
X205053Y224418D01*
Y223206D01*
X204759Y223092D01*
X204245Y222728D01*
X203876Y222218D01*
X203690Y221617D01*
X203707Y220988D01*
X203925Y220397D01*
X204322Y219908D01*
X204854Y219573D01*
X205155Y219475D01*
Y219475D01*
X205155Y218273D01*
X205118Y218279D01*
X205045Y218291D01*
X204972Y218305D01*
X204899Y218321D01*
X204863Y218330D01*
X204863Y218330D01*
Y216492D01*
X196520D01*
Y215177D01*
X199957D01*
Y212971D01*
X196520D01*
Y211656D01*
X199957D01*
Y209341D01*
X196520D01*
Y208026D01*
X199957D01*
Y205711D01*
X196520D01*
Y204396D01*
X199957D01*
Y202581D01*
X204363D01*
Y204088D01*
X203903Y204288D01*
X203156Y204956D01*
X202656Y205825D01*
X202453Y206806D01*
X202570Y207802D01*
X202992Y208711D01*
X203679Y209441D01*
X204560Y209919D01*
X205053Y210008D01*
X205053Y210008D01*
Y208795D01*
X204759Y208681D01*
X204245Y208317D01*
X203876Y207808D01*
X203690Y207206D01*
X203707Y206577D01*
X203925Y205987D01*
X204322Y205498D01*
X204854Y205163D01*
X205155Y205064D01*
Y205064D01*
X205155Y203863D01*
X205118Y203868D01*
X205045Y203881D01*
X204972Y203895D01*
X204899Y203911D01*
X204863Y203920D01*
X204863Y203920D01*
Y202081D01*
X196520D01*
Y200766D01*
X199957D01*
Y198561D01*
X196520D01*
Y197246D01*
X199957D01*
Y194931D01*
X196520D01*
Y193616D01*
X199957D01*
Y191301D01*
X196520D01*
Y189986D01*
X199957D01*
Y188171D01*
X204363D01*
Y189678D01*
X203903Y189878D01*
X203156Y190545D01*
X202656Y191414D01*
X202453Y192396D01*
X202570Y193392D01*
X202992Y194300D01*
X203679Y195031D01*
X204560Y195509D01*
X205053Y195597D01*
X205053Y195597D01*
Y194385D01*
X204759Y194271D01*
X204245Y193907D01*
X203876Y193397D01*
X203690Y192796D01*
X203707Y192167D01*
X203925Y191576D01*
X204322Y191087D01*
X204854Y190752D01*
X205155Y190654D01*
Y190654D01*
X205155Y189453D01*
X205118Y189458D01*
X205045Y189470D01*
X204972Y189485D01*
X204899Y189500D01*
X204863Y189509D01*
X204863Y189509D01*
Y187671D01*
X196520D01*
Y186356D01*
X199957D01*
Y184151D01*
X196520D01*
Y182835D01*
X199957D01*
Y180520D01*
X196520D01*
Y179206D01*
X199957D01*
Y176891D01*
X196520D01*
Y175575D01*
X199957D01*
Y173760D01*
X204363D01*
Y175267D01*
X203903Y175467D01*
X203156Y176135D01*
X202656Y177004D01*
X202453Y177985D01*
X202570Y178981D01*
X202992Y179890D01*
X203679Y180620D01*
X204560Y181098D01*
X205053Y181187D01*
X205053Y181187D01*
Y179974D01*
X204759Y179860D01*
X204245Y179496D01*
X203876Y178987D01*
X203690Y178385D01*
X203707Y177756D01*
X203925Y177166D01*
X204322Y176677D01*
X204854Y176342D01*
X205155Y176243D01*
Y176243D01*
X205155Y175042D01*
X205118Y175047D01*
X205045Y175060D01*
X204972Y175074D01*
X204899Y175090D01*
X204863Y175099D01*
X204863Y175099D01*
Y173260D01*
X199457D01*
Y175075D01*
X196020D01*
Y177391D01*
X199457D01*
Y178706D01*
X196020D01*
D02*
G37*
G36*
Y592979D02*
X199457D01*
Y592376D01*
X198998D01*
Y591313D01*
X200415D01*
Y592376D01*
X199957D01*
Y593479D01*
X196520D01*
Y594794D01*
X199957D01*
Y597109D01*
X196520D01*
Y598424D01*
X199957D01*
Y600739D01*
X196520D01*
Y602054D01*
X199957D01*
Y604369D01*
X196520D01*
Y605684D01*
X199957D01*
Y607999D01*
X196520D01*
Y609314D01*
X199957D01*
Y611421D01*
X201138D01*
Y616539D01*
X195232D01*
Y611421D01*
X196020D01*
Y611129D01*
X199457D01*
Y609814D01*
X196020D01*
Y607499D01*
X199457D01*
Y606184D01*
X196020D01*
Y603869D01*
X199457D01*
Y602554D01*
X196020D01*
Y600239D01*
X199457D01*
Y598924D01*
X196020D01*
Y596609D01*
X199457D01*
Y595294D01*
X196020D01*
Y592979D01*
D02*
G37*
G36*
X210792Y592376D02*
X211250D01*
Y593479D01*
X214687D01*
Y594794D01*
X211250D01*
Y597109D01*
X214687D01*
Y598424D01*
X211250D01*
Y600739D01*
X214687D01*
Y602054D01*
X211250D01*
Y604369D01*
X214687D01*
Y605684D01*
X211250D01*
Y607999D01*
X214687D01*
Y609314D01*
X211250D01*
Y611421D01*
X210084D01*
Y616539D01*
X215990D01*
Y611421D01*
X215187D01*
Y611129D01*
X211750D01*
Y609814D01*
X215187D01*
Y607499D01*
X211750D01*
Y606184D01*
X215187D01*
Y603869D01*
X211750D01*
Y602554D01*
X215187D01*
Y600239D01*
X211750D01*
Y598924D01*
X215187D01*
Y596609D01*
X211750D01*
Y595294D01*
X215187D01*
Y592979D01*
X211750D01*
Y592376D01*
X212209D01*
Y591313D01*
X210792D01*
Y592376D01*
D02*
G37*
D11*
X211500Y591747D02*
D03*
Y589266D02*
D03*
X199707Y591747D02*
D03*
Y589266D02*
D03*
D12*
X206452Y564875D02*
D03*
X204755D02*
D03*
X206452Y550465D02*
D03*
X204755D02*
D03*
X206452Y536054D02*
D03*
X204755D02*
D03*
X206452Y521644D02*
D03*
X204755D02*
D03*
X206452Y507233D02*
D03*
X204755D02*
D03*
X206452Y492823D02*
D03*
X204755D02*
D03*
X206452Y478412D02*
D03*
X204755D02*
D03*
X206452Y464002D02*
D03*
X204755D02*
D03*
X206452Y449592D02*
D03*
X204755D02*
D03*
X206452Y435181D02*
D03*
X204755D02*
D03*
X206452Y420771D02*
D03*
X204755D02*
D03*
X206452Y406360D02*
D03*
X204755D02*
D03*
X206452Y391950D02*
D03*
X204755D02*
D03*
X206452Y377539D02*
D03*
X204755D02*
D03*
X206452Y363129D02*
D03*
X204755D02*
D03*
X206452Y348718D02*
D03*
X204755D02*
D03*
X206452Y334308D02*
D03*
X204755D02*
D03*
X206452Y319898D02*
D03*
X204755D02*
D03*
X206452Y305487D02*
D03*
X204755D02*
D03*
X206452Y291076D02*
D03*
X204755D02*
D03*
X206452Y276666D02*
D03*
X204755D02*
D03*
X206452Y262256D02*
D03*
X204755D02*
D03*
X206452Y247845D02*
D03*
X204755D02*
D03*
X206452Y233435D02*
D03*
X204755D02*
D03*
X206452Y219024D02*
D03*
X204755D02*
D03*
X206452Y204614D02*
D03*
X204755D02*
D03*
X206452Y190203D02*
D03*
X204755D02*
D03*
X206452Y175793D02*
D03*
X204755D02*
D03*
D21*
X213037Y613980D02*
D03*
X198185D02*
D03*
M02*
