G04*
G04 #@! TF.GenerationSoftware,Altium Limited,Altium Designer,25.3.3 (18)*
G04*
G04 Layer_Color=8421504*
%FSLAX25Y25*%
%MOIN*%
G70*
G04*
G04 #@! TF.SameCoordinates,601A9F49-DEDD-47AA-BEC0-E602D5E64D20*
G04*
G04*
G04 #@! TF.FilePolarity,Positive*
G04*
G01*
G75*
%ADD11R,0.01417X0.00866*%
%ADD12R,0.00799X0.00898*%
D11*
X211500Y591747D02*
D03*
Y589266D02*
D03*
X199707Y591747D02*
D03*
Y589266D02*
D03*
D12*
X206452Y564875D02*
D03*
X204755D02*
D03*
X206452Y550465D02*
D03*
X204755D02*
D03*
X206452Y536054D02*
D03*
X204755D02*
D03*
X206452Y521644D02*
D03*
X204755D02*
D03*
X206452Y507233D02*
D03*
X204755D02*
D03*
X206452Y492823D02*
D03*
X204755D02*
D03*
X206452Y478412D02*
D03*
X204755D02*
D03*
X206452Y464002D02*
D03*
X204755D02*
D03*
X206452Y449592D02*
D03*
X204755D02*
D03*
X206452Y435181D02*
D03*
X204755D02*
D03*
X206452Y420771D02*
D03*
X204755D02*
D03*
X206452Y406360D02*
D03*
X204755D02*
D03*
X206452Y391950D02*
D03*
X204755D02*
D03*
X206452Y377539D02*
D03*
X204755D02*
D03*
X206452Y363129D02*
D03*
X204755D02*
D03*
X206452Y348718D02*
D03*
X204755D02*
D03*
X206452Y334308D02*
D03*
X204755D02*
D03*
X206452Y319898D02*
D03*
X204755D02*
D03*
X206452Y305487D02*
D03*
X204755D02*
D03*
X206452Y291076D02*
D03*
X204755D02*
D03*
X206452Y276666D02*
D03*
X204755D02*
D03*
X206452Y262256D02*
D03*
X204755D02*
D03*
X206452Y247845D02*
D03*
X204755D02*
D03*
X206452Y233435D02*
D03*
X204755D02*
D03*
X206452Y219024D02*
D03*
X204755D02*
D03*
X206452Y204614D02*
D03*
X204755D02*
D03*
X206452Y190203D02*
D03*
X204755D02*
D03*
X206452Y175793D02*
D03*
X204755D02*
D03*
M02*
