G04*
G04 #@! TF.GenerationSoftware,Altium Limited,Altium Designer,25.3.3 (18)*
G04*
G04 Layer_Color=255*
%FSLAX25Y25*%
%MOIN*%
G70*
G04*
G04 #@! TF.SameCoordinates,601A9F49-DEDD-47AA-BEC0-E602D5E64D20*
G04*
G04*
G04 #@! TF.FilePolarity,Positive*
G04*
G01*
G75*
%ADD11R,0.01417X0.00866*%
%ADD22R,0.00898X0.00799*%
%ADD23R,0.00866X0.01417*%
D11*
X229885Y589415D02*
D03*
Y591896D02*
D03*
X181307Y589266D02*
D03*
Y591747D02*
D03*
D22*
X205604Y566357D02*
D03*
Y568053D02*
D03*
Y551946D02*
D03*
Y553643D02*
D03*
Y537536D02*
D03*
Y539232D02*
D03*
Y523125D02*
D03*
Y524822D02*
D03*
Y508715D02*
D03*
Y510412D02*
D03*
Y494304D02*
D03*
Y496001D02*
D03*
Y479894D02*
D03*
Y481591D02*
D03*
Y465483D02*
D03*
Y467180D02*
D03*
Y451073D02*
D03*
Y452770D02*
D03*
Y436662D02*
D03*
Y438359D02*
D03*
Y422252D02*
D03*
Y423949D02*
D03*
Y407841D02*
D03*
Y409538D02*
D03*
Y393431D02*
D03*
Y395128D02*
D03*
Y379021D02*
D03*
Y380717D02*
D03*
Y364610D02*
D03*
Y366307D02*
D03*
X205604Y350200D02*
D03*
Y351897D02*
D03*
Y335789D02*
D03*
Y337486D02*
D03*
X205604Y321379D02*
D03*
Y323076D02*
D03*
Y306968D02*
D03*
Y308665D02*
D03*
Y292558D02*
D03*
Y294255D02*
D03*
X205604Y278147D02*
D03*
Y279844D02*
D03*
X205604Y263737D02*
D03*
Y265434D02*
D03*
X205604Y249326D02*
D03*
Y251023D02*
D03*
Y234916D02*
D03*
Y236613D02*
D03*
Y220505D02*
D03*
Y222202D02*
D03*
X205604Y206095D02*
D03*
Y207792D02*
D03*
Y191685D02*
D03*
Y193381D02*
D03*
Y177274D02*
D03*
Y178971D02*
D03*
D23*
X202022Y562593D02*
D03*
X204502D02*
D03*
X206705Y571817D02*
D03*
X209185D02*
D03*
X202022Y548182D02*
D03*
X204502D02*
D03*
X206705Y557407D02*
D03*
X209185D02*
D03*
X202022Y533772D02*
D03*
X204502D02*
D03*
X206705Y542996D02*
D03*
X209185D02*
D03*
X202022Y519361D02*
D03*
X204502D02*
D03*
X206705Y528586D02*
D03*
X209185D02*
D03*
X202022Y504951D02*
D03*
X204502D02*
D03*
X206705Y514175D02*
D03*
X209185D02*
D03*
X202022Y490541D02*
D03*
X204502D02*
D03*
X206705Y499765D02*
D03*
X209185D02*
D03*
X202022Y476130D02*
D03*
X204502D02*
D03*
X206705Y485354D02*
D03*
X209185D02*
D03*
X202022Y461720D02*
D03*
X204502D02*
D03*
X206705Y470944D02*
D03*
X209185D02*
D03*
X202022Y447309D02*
D03*
X204502D02*
D03*
X206705Y456533D02*
D03*
X209185D02*
D03*
X202022Y432899D02*
D03*
X204502D02*
D03*
X206705Y442123D02*
D03*
X209185D02*
D03*
X202022Y418488D02*
D03*
X204502D02*
D03*
X206705Y427712D02*
D03*
X209185D02*
D03*
X202022Y404078D02*
D03*
X204502D02*
D03*
X206705Y413302D02*
D03*
X209185D02*
D03*
X202022Y389667D02*
D03*
X204502D02*
D03*
X206705Y398891D02*
D03*
X209185D02*
D03*
X202022Y375257D02*
D03*
X204502D02*
D03*
X206705Y384481D02*
D03*
X209185D02*
D03*
X202022Y360846D02*
D03*
X204502D02*
D03*
X206705Y370071D02*
D03*
X209185D02*
D03*
X202022Y346436D02*
D03*
X204502D02*
D03*
X206705Y355660D02*
D03*
X209185D02*
D03*
X202022Y332026D02*
D03*
X204502D02*
D03*
X206705Y341250D02*
D03*
X209185D02*
D03*
X202022Y317615D02*
D03*
X204502D02*
D03*
X206705Y326839D02*
D03*
X209185D02*
D03*
X202022Y303205D02*
D03*
X204502D02*
D03*
X206705Y312429D02*
D03*
X209185D02*
D03*
X202022Y288794D02*
D03*
X204502D02*
D03*
X206705Y298018D02*
D03*
X209185D02*
D03*
X202022Y274384D02*
D03*
X204502D02*
D03*
X206705Y283608D02*
D03*
X209185D02*
D03*
X202022Y259973D02*
D03*
X204502D02*
D03*
X206705Y269197D02*
D03*
X209185D02*
D03*
X202022Y245563D02*
D03*
X204502D02*
D03*
X206705Y254787D02*
D03*
X209185D02*
D03*
X202022Y231152D02*
D03*
X204502D02*
D03*
X206705Y240376D02*
D03*
X209185D02*
D03*
X202022Y216742D02*
D03*
X204502D02*
D03*
X206705Y225966D02*
D03*
X209185D02*
D03*
X202022Y202331D02*
D03*
X204502D02*
D03*
X206705Y211556D02*
D03*
X209185D02*
D03*
X202022Y187921D02*
D03*
X204502D02*
D03*
X206705Y197145D02*
D03*
X209185D02*
D03*
X202022Y173511D02*
D03*
X204502D02*
D03*
X206705Y182735D02*
D03*
X209185D02*
D03*
M02*
