G04*
G04 #@! TF.GenerationSoftware,Altium Limited,Altium Designer,25.3.3 (18)*
G04*
G04 Layer_Color=8388736*
%FSLAX25Y25*%
%MOIN*%
G70*
G04*
G04 #@! TF.SameCoordinates,601A9F49-DEDD-47AA-BEC0-E602D5E64D20*
G04*
G04*
G04 #@! TF.FilePolarity,Negative*
G04*
G01*
G75*
%ADD11R,0.01417X0.00866*%
%ADD12R,0.00799X0.00898*%
%ADD13R,1.26805X0.36181*%
%ADD14R,0.31701X0.60500*%
%ADD15R,1.26805X0.11811*%
%ADD16R,0.21195X0.14964*%
%ADD17R,0.22210X0.17558*%
%ADD18R,0.21608X0.17558*%
%ADD19R,0.21107X0.14964*%
%ADD20C,0.04343*%
G36*
X237305Y358253D02*
X237305D01*
Y343843D01*
X173902D01*
Y358253D01*
X173902D01*
Y372664D01*
X237305D01*
Y358253D01*
D02*
G37*
G36*
Y329432D02*
X237305D01*
Y315022D01*
X173902D01*
Y329432D01*
X173902D01*
Y343843D01*
X237305D01*
Y329432D01*
D02*
G37*
G36*
Y300611D02*
X237305D01*
Y286201D01*
Y271791D01*
Y257380D01*
Y242970D01*
Y228559D01*
Y214149D01*
Y199738D01*
X173902D01*
Y214149D01*
Y228559D01*
Y242970D01*
Y257380D01*
Y271791D01*
Y286201D01*
Y300611D01*
X173902D01*
Y315022D01*
X237305D01*
Y300611D01*
D02*
G37*
G36*
Y185328D02*
Y170917D01*
X173902D01*
Y185328D01*
Y199738D01*
X237305D01*
Y185328D01*
D02*
G37*
G36*
X237305Y459127D02*
Y444716D01*
Y430306D01*
Y415895D01*
Y401485D01*
Y387074D01*
Y372664D01*
X173902D01*
Y387074D01*
Y401485D01*
Y415895D01*
Y430306D01*
Y444716D01*
Y459127D01*
Y473537D01*
X237305D01*
Y459127D01*
D02*
G37*
G36*
X210233Y560000D02*
X237305D01*
Y545589D01*
Y531179D01*
Y516768D01*
Y502358D01*
Y487947D01*
Y473537D01*
X173902D01*
Y487947D01*
Y502358D01*
Y516768D01*
Y531179D01*
Y545589D01*
Y560000D01*
X200974D01*
Y574410D01*
X210233D01*
Y560000D01*
D02*
G37*
%LPC*%
G36*
X206855Y363581D02*
Y362683D01*
X207249D01*
Y363581D01*
X206855D01*
D02*
G37*
G36*
X203958Y363581D02*
Y362683D01*
X204351D01*
Y363581D01*
X203958D01*
D02*
G37*
G36*
X206056Y363580D02*
X205155D01*
Y362682D01*
X206056D01*
Y363580D01*
D02*
G37*
G36*
X206855Y349170D02*
Y348273D01*
X207249D01*
Y349170D01*
X206855D01*
D02*
G37*
G36*
X203958Y349170D02*
Y348273D01*
X204351D01*
Y349170D01*
X203958D01*
D02*
G37*
G36*
X206056Y349169D02*
X205155D01*
Y348271D01*
X206056D01*
Y349169D01*
D02*
G37*
G36*
X206855Y334760D02*
Y333862D01*
X207249D01*
Y334760D01*
X206855D01*
D02*
G37*
G36*
X203958Y334760D02*
Y333862D01*
X204351D01*
Y334760D01*
X203958D01*
D02*
G37*
G36*
X206056Y334759D02*
X205155D01*
Y333861D01*
X206056D01*
Y334759D01*
D02*
G37*
G36*
X206855Y320350D02*
Y319452D01*
X207249D01*
Y320350D01*
X206855D01*
D02*
G37*
G36*
X203958Y320350D02*
Y319452D01*
X204351D01*
Y320350D01*
X203958D01*
D02*
G37*
G36*
X206056Y320348D02*
X205155D01*
Y319450D01*
X206056D01*
Y320348D01*
D02*
G37*
G36*
X206855Y305939D02*
Y305041D01*
X207249D01*
Y305939D01*
X206855D01*
D02*
G37*
G36*
X203958Y305939D02*
Y305041D01*
X204351D01*
Y305939D01*
X203958D01*
D02*
G37*
G36*
X206056Y305938D02*
X205155D01*
Y305040D01*
X206056D01*
Y305938D01*
D02*
G37*
G36*
X206855Y291529D02*
Y290631D01*
X207249D01*
Y291529D01*
X206855D01*
D02*
G37*
G36*
X203958Y291529D02*
Y290631D01*
X204351D01*
Y291529D01*
X203958D01*
D02*
G37*
G36*
X206056Y291527D02*
X205155D01*
Y290630D01*
X206056D01*
Y291527D01*
D02*
G37*
G36*
X206855Y277118D02*
Y276220D01*
X207249D01*
Y277118D01*
X206855D01*
D02*
G37*
G36*
X203958Y277118D02*
Y276220D01*
X204351D01*
Y277118D01*
X203958D01*
D02*
G37*
G36*
X206056Y277117D02*
X205155D01*
Y276219D01*
X206056D01*
Y277117D01*
D02*
G37*
G36*
X206855Y262708D02*
Y261810D01*
X207249D01*
Y262708D01*
X206855D01*
D02*
G37*
G36*
X203958Y262708D02*
Y261810D01*
X204351D01*
Y262708D01*
X203958D01*
D02*
G37*
G36*
X206056Y262706D02*
X205155D01*
Y261809D01*
X206056D01*
Y262706D01*
D02*
G37*
G36*
X206855Y248297D02*
Y247399D01*
X207249D01*
Y248297D01*
X206855D01*
D02*
G37*
G36*
X203958Y248297D02*
Y247399D01*
X204351D01*
Y248297D01*
X203958D01*
D02*
G37*
G36*
X206056Y248296D02*
X205155D01*
Y247398D01*
X206056D01*
Y248296D01*
D02*
G37*
G36*
X206855Y233887D02*
Y232989D01*
X207249D01*
Y233887D01*
X206855D01*
D02*
G37*
G36*
X203958Y233887D02*
Y232989D01*
X204351D01*
Y233887D01*
X203958D01*
D02*
G37*
G36*
X206056Y233885D02*
X205155D01*
Y232988D01*
X206056D01*
Y233885D01*
D02*
G37*
G36*
X206855Y219476D02*
Y218579D01*
X207249D01*
Y219476D01*
X206855D01*
D02*
G37*
G36*
X203958Y219476D02*
Y218579D01*
X204351D01*
Y219476D01*
X203958D01*
D02*
G37*
G36*
X206056Y219475D02*
X205155D01*
Y218577D01*
X206056D01*
Y219475D01*
D02*
G37*
G36*
X206855Y205066D02*
Y204168D01*
X207249D01*
Y205066D01*
X206855D01*
D02*
G37*
G36*
X203958Y205066D02*
Y204168D01*
X204351D01*
Y205066D01*
X203958D01*
D02*
G37*
G36*
X206056Y205064D02*
X205155D01*
Y204167D01*
X206056D01*
Y205064D01*
D02*
G37*
G36*
X206855Y190655D02*
Y189758D01*
X207249D01*
Y190655D01*
X206855D01*
D02*
G37*
G36*
X203958Y190655D02*
Y189758D01*
X204351D01*
Y190655D01*
X203958D01*
D02*
G37*
G36*
X206056Y190654D02*
X205155D01*
Y189756D01*
X206056D01*
Y190654D01*
D02*
G37*
G36*
X206855Y176245D02*
Y175347D01*
X207249D01*
Y176245D01*
X206855D01*
D02*
G37*
G36*
X203958Y176245D02*
Y175347D01*
X204351D01*
Y176245D01*
X203958D01*
D02*
G37*
G36*
X206056Y176243D02*
X205155D01*
Y175346D01*
X206056D01*
Y176243D01*
D02*
G37*
G36*
X206855Y464454D02*
Y463556D01*
X207249D01*
Y464454D01*
X206855D01*
D02*
G37*
G36*
X203958Y464454D02*
Y463556D01*
X204351D01*
Y464454D01*
X203958D01*
D02*
G37*
G36*
X206056Y464453D02*
X205155D01*
Y463555D01*
X206056D01*
Y464453D01*
D02*
G37*
G36*
X206855Y450044D02*
Y449146D01*
X207249D01*
Y450044D01*
X206855D01*
D02*
G37*
G36*
X203958Y450044D02*
Y449146D01*
X204351D01*
Y450044D01*
X203958D01*
D02*
G37*
G36*
X206056Y450042D02*
X205155D01*
Y449145D01*
X206056D01*
Y450042D01*
D02*
G37*
G36*
X206855Y435633D02*
Y434735D01*
X207249D01*
Y435633D01*
X206855D01*
D02*
G37*
G36*
X203958Y435633D02*
Y434735D01*
X204351D01*
Y435633D01*
X203958D01*
D02*
G37*
G36*
X206056Y435632D02*
X205155D01*
Y434734D01*
X206056D01*
Y435632D01*
D02*
G37*
G36*
X206855Y421223D02*
Y420325D01*
X207249D01*
Y421223D01*
X206855D01*
D02*
G37*
G36*
X203958Y421223D02*
Y420325D01*
X204351D01*
Y421223D01*
X203958D01*
D02*
G37*
G36*
X206056Y421221D02*
X205155D01*
Y420324D01*
X206056D01*
Y421221D01*
D02*
G37*
G36*
X206855Y406812D02*
Y405915D01*
X207249D01*
Y406812D01*
X206855D01*
D02*
G37*
G36*
X203958Y406812D02*
Y405915D01*
X204351D01*
Y406812D01*
X203958D01*
D02*
G37*
G36*
X206056Y406811D02*
X205155D01*
Y405913D01*
X206056D01*
Y406811D01*
D02*
G37*
G36*
X206855Y392402D02*
Y391504D01*
X207249D01*
Y392402D01*
X206855D01*
D02*
G37*
G36*
X203958Y392402D02*
Y391504D01*
X204351D01*
Y392402D01*
X203958D01*
D02*
G37*
G36*
X206056Y392400D02*
X205155D01*
Y391503D01*
X206056D01*
Y392400D01*
D02*
G37*
G36*
X206855Y377991D02*
Y377094D01*
X207249D01*
Y377991D01*
X206855D01*
D02*
G37*
G36*
X203958Y377991D02*
Y377094D01*
X204351D01*
Y377991D01*
X203958D01*
D02*
G37*
G36*
X206056Y377990D02*
X205155D01*
Y377092D01*
X206056D01*
Y377990D01*
D02*
G37*
G36*
X206845Y565327D02*
Y564430D01*
X207239D01*
Y565327D01*
X206845D01*
D02*
G37*
G36*
X203948Y565327D02*
Y564430D01*
X204342D01*
Y565327D01*
X203948D01*
D02*
G37*
G36*
X206046Y565326D02*
X205145D01*
Y564428D01*
X206046D01*
Y565326D01*
D02*
G37*
G36*
X206855Y550917D02*
Y550019D01*
X207249D01*
Y550917D01*
X206855D01*
D02*
G37*
G36*
X203958Y550917D02*
Y550019D01*
X204351D01*
Y550917D01*
X203958D01*
D02*
G37*
G36*
X206056Y550915D02*
X205155D01*
Y550018D01*
X206056D01*
Y550915D01*
D02*
G37*
G36*
X206855Y536506D02*
Y535609D01*
X207249D01*
Y536506D01*
X206855D01*
D02*
G37*
G36*
X203958Y536506D02*
Y535609D01*
X204351D01*
Y536506D01*
X203958D01*
D02*
G37*
G36*
X206056Y536505D02*
X205155D01*
Y535607D01*
X206056D01*
Y536505D01*
D02*
G37*
G36*
X206855Y522096D02*
Y521198D01*
X207249D01*
Y522096D01*
X206855D01*
D02*
G37*
G36*
X203958Y522096D02*
Y521198D01*
X204351D01*
Y522096D01*
X203958D01*
D02*
G37*
G36*
X206056Y522094D02*
X205155D01*
Y521197D01*
X206056D01*
Y522094D01*
D02*
G37*
G36*
X206855Y507685D02*
Y506788D01*
X207249D01*
Y507685D01*
X206855D01*
D02*
G37*
G36*
X203958Y507685D02*
Y506788D01*
X204351D01*
Y507685D01*
X203958D01*
D02*
G37*
G36*
X206056Y507684D02*
X205155D01*
Y506786D01*
X206056D01*
Y507684D01*
D02*
G37*
G36*
X206855Y493275D02*
Y492377D01*
X207249D01*
Y493275D01*
X206855D01*
D02*
G37*
G36*
X203958Y493275D02*
Y492377D01*
X204351D01*
Y493275D01*
X203958D01*
D02*
G37*
G36*
X206056Y493274D02*
X205155D01*
Y492376D01*
X206056D01*
Y493274D01*
D02*
G37*
G36*
X206855Y478864D02*
Y477967D01*
X207249D01*
Y478864D01*
X206855D01*
D02*
G37*
G36*
X203958Y478864D02*
Y477967D01*
X204351D01*
Y478864D01*
X203958D01*
D02*
G37*
G36*
X206056Y478863D02*
X205155D01*
Y477965D01*
X206056D01*
Y478863D01*
D02*
G37*
%LPD*%
D11*
X211500Y591747D02*
D03*
Y589266D02*
D03*
X199707Y591747D02*
D03*
Y589266D02*
D03*
D12*
X206452Y564875D02*
D03*
X204755D02*
D03*
X206452Y550465D02*
D03*
X204755D02*
D03*
X206452Y536054D02*
D03*
X204755D02*
D03*
X206452Y521644D02*
D03*
X204755D02*
D03*
X206452Y507233D02*
D03*
X204755D02*
D03*
X206452Y492823D02*
D03*
X204755D02*
D03*
X206452Y478412D02*
D03*
X204755D02*
D03*
X206452Y464002D02*
D03*
X204755D02*
D03*
X206452Y449592D02*
D03*
X204755D02*
D03*
X206452Y435181D02*
D03*
X204755D02*
D03*
X206452Y420771D02*
D03*
X204755D02*
D03*
X206452Y406360D02*
D03*
X204755D02*
D03*
X206452Y391950D02*
D03*
X204755D02*
D03*
X206452Y377539D02*
D03*
X204755D02*
D03*
X206452Y363129D02*
D03*
X204755D02*
D03*
X206452Y348718D02*
D03*
X204755D02*
D03*
X206452Y334308D02*
D03*
X204755D02*
D03*
X206452Y319898D02*
D03*
X204755D02*
D03*
X206452Y305487D02*
D03*
X204755D02*
D03*
X206452Y291076D02*
D03*
X204755D02*
D03*
X206452Y276666D02*
D03*
X204755D02*
D03*
X206452Y262256D02*
D03*
X204755D02*
D03*
X206452Y247845D02*
D03*
X204755D02*
D03*
X206452Y233435D02*
D03*
X204755D02*
D03*
X206452Y219024D02*
D03*
X204755D02*
D03*
X206452Y204614D02*
D03*
X204755D02*
D03*
X206452Y190203D02*
D03*
X204755D02*
D03*
X206452Y175793D02*
D03*
X204755D02*
D03*
D13*
X173902Y145258D02*
D03*
D14*
X221454Y143007D02*
D03*
D15*
X173902Y112906D02*
D03*
D16*
X226707Y566441D02*
D03*
D17*
X190745Y562056D02*
D03*
D18*
X220763D02*
D03*
D19*
X184456Y566441D02*
D03*
D20*
X213037Y613980D02*
D03*
X198185D02*
D03*
M02*
